<?xml version="1.0" encoding="utf-8"?>
<!-- Generator: Adobe Illustrator 16.0.0, SVG Export Plug-In . SVG Version: 6.00 Build 0)  -->
<!DOCTYPE svg PUBLIC "-//W3C//DTD SVG 1.1//EN" "http://www.w3.org/Graphics/SVG/1.1/DTD/svg11.dtd">
<svg version="1.1" id="Layer_1" xmlns="http://www.w3.org/2000/svg" xmlns:xlink="http://www.w3.org/1999/xlink" x="0px" y="0px"
	 width="64px" height="64px" viewBox="0 0 64 64" enable-background="new 0 0 64 64" xml:space="preserve">
<g>
	<g>
		<circle fill="#F47D77" cx="32" cy="32" r="31.565"/>
	</g>
	<g>
		<g>
			<path fill="#FFFFFF" d="M33.405,36.364v8.731h-2.758v-8.731H33.405 M36.162,33.607h-8.271v14.245h8.271V33.607L36.162,33.607z"/>
		</g>
		<g>
			<path fill="#FFFFFF" d="M21.917,18.904v15.163H19.16V18.904H21.917 M24.673,16.147h-8.271v20.677h8.271V16.147L24.673,16.147z"/>
		</g>
		<g>
			<path fill="#FFFFFF" d="M21.917,42.339v2.757H19.16v-2.757H21.917 M24.673,39.582h-8.271v8.271h8.271V39.582L24.673,39.582z"/>
		</g>
		<g>
			<path fill="#FFFFFF" d="M44.434,45.096h-2.758V29.932h2.758V45.096 M47.19,47.853V27.175h-8.271v20.678H47.19L47.19,47.853z"/>
		</g>
		<g>
			<path fill="#FFFFFF" d="M44.434,21.661h-2.758v-2.757h2.758V21.661 M47.19,24.418v-8.271h-8.271v8.271H47.19L47.19,24.418z"/>
		</g>
		<g>
			<path fill="#FFFFFF" d="M33.405,18.904v8.729h-2.758v-8.729H33.405 M36.162,16.147h-8.271v14.243h8.271V16.147L36.162,16.147z"/>
		</g>
	</g>
</g>
</svg>
