<?xml version="1.0" encoding="utf-8"?>
<!-- Generator: Adobe Illustrator 16.0.0, SVG Export Plug-In . SVG Version: 6.00 Build 0)  -->
<!DOCTYPE svg PUBLIC "-//W3C//DTD SVG 1.1//EN" "http://www.w3.org/Graphics/SVG/1.1/DTD/svg11.dtd">
<svg version="1.1" id="Layer_1" xmlns="http://www.w3.org/2000/svg" xmlns:xlink="http://www.w3.org/1999/xlink" x="0px" y="0px"
	 width="38px" height="44px" viewBox="0 0 38 44" enable-background="new 0 0 38 44" xml:space="preserve">
<g transform="translate(0 -1028.4)">
	<path fill="#7F8C8D" d="M23.111,1067.261c0,2.838-1.841,5.139-4.111,5.139s-4.111-2.301-4.111-5.139c0-2.839,1.841-5.14,4.111-5.14
		S23.111,1064.422,23.111,1067.261z"/>
	<path fill="#F39C12" d="M19,1029.232c-7.947,0-14.39,6.579-14.39,14.801c0,6.372,6.424,12.127,8.223,16.033
		c1.799,3.7,0,10.278,0,10.278l6.167-1.027l6.167,1.027c0,0-1.799-6.578,0-10.278c1.799-3.906,8.223-9.662,8.223-16.033
		C33.39,1035.811,26.947,1029.232,19,1029.232z"/>
	<path fill="#F1C40F" d="M19,1029.232c7.947,0,14.39,6.579,14.39,14.801c0,6.372-6.424,12.127-8.223,16.033
		c-1.799,3.7,0,10.278,0,10.278L19,1069.317V1029.232z"/>
	<path fill="#E67E22" d="M12.833,1041.566l-2.056,2.056L19,1068.289l8.223-24.667l-2.056-2.056l-2.056,2.056l-2.056-2.056
		L19,1043.621l-2.056-2.056l-2.056,2.056L12.833,1041.566z M12.833,1043.621l2.056,2.056l1.027-1.028l1.028-1.028l1.027,1.028
		l1.028,1.028l1.027-1.028l1.028-1.028l1.028,1.028l1.027,1.028l2.056-2.056l0.899,0.822L19,1065.617l-7.066-21.173L12.833,1043.621
		z"/>
	<rect x="12.833" y="1060.066" fill="#BDC3C7" width="12.334" height="10.278"/>
	<path fill="#95A5A6" d="M12.833,1060.066v10.278H19v-2.056h6.167v-2.056H19v-2.056h6.167v-2.056H19v-2.056H12.833z"/>
	<path fill="#7F8C8D" d="M12.833,1062.122v2.056H19v-2.056H12.833z M12.833,1066.233v2.056H19v-2.056H12.833z"/>
</g>
</svg>
