<?xml version="1.0" encoding="utf-8"?>
<!-- Generator: Adobe Illustrator 16.0.0, SVG Export Plug-In . SVG Version: 6.00 Build 0)  -->
<!DOCTYPE svg PUBLIC "-//W3C//DTD SVG 1.1//EN" "http://www.w3.org/Graphics/SVG/1.1/DTD/svg11.dtd">
<svg version="1.1" id="Layer_1" xmlns="http://www.w3.org/2000/svg" xmlns:xlink="http://www.w3.org/1999/xlink" x="0px" y="0px"
	 width="180px" height="46px" viewBox="0 0 180 46" enable-background="new 0 0 180 46" xml:space="preserve">
<g>
	<g>
		<g>
			<circle fill="#FFFFFF" cx="23.544" cy="23" r="22.898"/>
		</g>
		<g>
			<g>
				<path fill="#F37D77" d="M24.563,26.166V32.5h-2v-6.334H24.563 M26.563,24.166h-6V34.5h6V24.166L26.563,24.166z"/>
			</g>
			<g>
				<path fill="#F37D77" d="M16.229,13.5v11h-2v-11H16.229 M18.229,11.5h-6v15h6V11.5L18.229,11.5z"/>
			</g>
			<g>
				<path fill="#F37D77" d="M16.229,30.5v2h-2v-2H16.229 M18.229,28.5h-6v6h6V28.5L18.229,28.5z"/>
			</g>
			<g>
				<path fill="#F37D77" d="M32.563,32.5h-2v-11h2V32.5 M34.563,34.5v-15h-6v15H34.563L34.563,34.5z"/>
			</g>
			<g>
				<path fill="#F37D77" d="M32.563,15.5h-2v-2h2V15.5 M34.563,17.5v-6h-6v6H34.563L34.563,17.5z"/>
			</g>
			<g>
				<path fill="#F37D77" d="M24.563,13.5v6.333h-2V13.5H24.563 M26.563,11.5h-6v10.333h6V11.5L26.563,11.5z"/>
			</g>
		</g>
	</g>
	<g>
		<path fill="#FFFFFF" d="M63.363,19.896c0.934,0.338,1.64,0.761,2.117,1.269c0.815,0.854,1.222,1.848,1.222,2.98
			c0,1.36-0.412,2.653-1.237,3.877c-0.775,1.123-1.765,2.012-2.967,2.668c-1.213,0.656-2.459,0.983-3.742,0.983
			c-0.994,0-2.067-0.254-3.22-0.76c-0.09,0.269-0.144,0.446-0.164,0.535c-0.129,0.467-0.333,0.7-0.611,0.7
			c-0.288,0-0.537-0.164-0.745-0.491c-0.149-0.229-0.224-0.462-0.224-0.701c0-0.349,0.219-1.078,0.656-2.19
			c0.895-2.285,1.679-4.078,2.355-5.382c0.417-0.805,1.282-2.335,2.594-4.591c0.576-0.975,1.406-2.301,2.49-3.98
			c0.258-0.396,0.507-0.8,0.745-1.208c-0.497,0.159-1.118,0.417-1.863,0.775c-0.636,0.298-1.009,0.447-1.118,0.447
			c-0.149,0-0.278-0.075-0.388-0.225c-0.11-0.148-0.164-0.323-0.164-0.521c0-0.309,0.104-0.531,0.313-0.67
			c0.377-0.27,1.053-0.602,2.027-0.999c2.038-0.825,3.682-1.237,4.935-1.237c1.053,0,1.908,0.264,2.564,0.79
			c0.656,0.527,0.984,1.188,0.984,1.983c0,1.64-0.95,3.056-2.848,4.248C65.932,18.913,64.695,19.479,63.363,19.896z M55.955,29.646
			c0.338,0.199,0.586,0.328,0.745,0.387c0.427,0.17,0.994,0.254,1.699,0.254c2.117,0,3.812-0.84,5.083-2.52
			c1.083-1.422,1.625-2.816,1.625-4.189c0-0.935-0.413-1.675-1.237-2.222c-0.487-0.317-1.058-0.477-1.714-0.477
			c-0.249,0-0.616,0.055-1.103,0.164c-0.09,0.02-0.179,0.03-0.269,0.03c-0.239,0-0.437-0.175-0.596-0.522
			c-0.795,1.213-1.69,2.907-2.684,5.084C56.998,26.75,56.481,28.086,55.955,29.646z M61.127,18.972
			c1.689-0.308,3.279-0.91,4.77-1.804c1.729-1.043,2.594-2.082,2.594-3.115c0-0.478-0.229-0.85-0.686-1.118
			c-0.298-0.179-0.715-0.268-1.252-0.268c-0.348,0-0.72,0.037-1.118,0.11c-0.398,0.075-0.82,0.187-1.267,0.335
			c0.168,0.13,0.253,0.288,0.253,0.478c0,0.259-0.164,0.605-0.492,1.043c-0.109,0.149-0.308,0.442-0.596,0.879
			c-0.11,0.189-0.442,0.691-0.999,1.506C61.788,17.825,61.385,18.476,61.127,18.972z"/>
		<path fill="#FFFFFF" d="M71.786,28.125c-0.428,0.598-0.805,1.074-1.133,1.432c-0.577,0.637-1.148,0.955-1.714,0.955
			c-0.487,0-0.865-0.221-1.133-0.658c-0.189-0.307-0.284-0.676-0.284-1.102c0-1.281,0.547-2.754,1.64-4.412
			c0.507-0.775,1.009-1.367,1.506-1.775c0.388-0.328,0.706-0.491,0.955-0.491c0.139,0,0.268,0.06,0.387,0.179
			c0.099,0.109,0.149,0.219,0.149,0.328c0,0.188-0.184,0.497-0.551,0.925c-0.825,0.984-1.451,1.888-1.878,2.712
			c-0.497,0.965-0.745,1.719-0.745,2.266c0,0.14,0.032,0.246,0.096,0.322c0.065,0.074,0.157,0.111,0.276,0.111
			c0.507,0,1.213-0.725,2.117-2.178c0.467-0.754,0.87-1.59,1.207-2.504c0.179-0.498,0.413-0.939,0.701-1.327
			c0.278-0.349,0.551-0.521,0.82-0.521c0.149,0,0.283,0.064,0.403,0.193c0.128,0.139,0.193,0.293,0.193,0.462
			c0,0.356-0.343,1.163-1.028,2.415c-0.467,0.864-0.701,1.586-0.701,2.162c0,0.614,0.164,1.143,0.492,1.58
			c0.089,0.118,0.362,0.307,0.82,0.565c0.218,0.129,0.328,0.338,0.328,0.627c0,0.178-0.077,0.332-0.231,0.461
			s-0.34,0.193-0.559,0.193c-0.497,0-0.949-0.199-1.356-0.596c-0.368-0.357-0.602-0.875-0.701-1.551
			C71.84,28.811,71.815,28.553,71.786,28.125z"/>
		<path fill="#FFFFFF" d="M82.4,20.508c0.616,0,1.079,0.109,1.386,0.328c0.308,0.219,0.462,0.552,0.462,0.999
			c0,0.587-0.219,1.152-0.656,1.699c-0.417,0.517-1.043,0.933-1.878,1.251c-0.457,0.17-0.84,0.254-1.147,0.254
			c-0.417,0-0.626-0.184-0.626-0.551c0-0.248,0.119-0.438,0.358-0.566c0.06-0.029,0.397-0.113,1.013-0.254
			c0.368-0.079,0.706-0.253,1.014-0.521c0.268-0.229,0.402-0.477,0.402-0.745c0-0.209-0.06-0.362-0.179-0.463
			c-0.119-0.099-0.298-0.147-0.537-0.147c-0.576,0-1.212,0.232-1.908,0.7c-0.805,0.526-1.208,1.153-1.208,1.879
			c0,0.516,0.264,1.162,0.791,1.938c0.586,0.846,0.879,1.561,0.879,2.146c0,0.875-0.387,1.562-1.163,2.06
			c-0.477,0.307-1.019,0.461-1.625,0.461c-0.954,0-1.679-0.343-2.176-1.029c-0.348-0.486-0.522-1.063-0.522-1.729
			c0-0.774,0.199-1.426,0.596-1.952c0.258-0.349,0.527-0.521,0.805-0.521c0.248,0,0.373,0.1,0.373,0.299
			c0,0.08-0.045,0.199-0.134,0.357c-0.229,0.426-0.343,0.93-0.343,1.506c0,0.486,0.174,0.897,0.522,1.236
			c0.308,0.299,0.661,0.446,1.059,0.446c0.387,0,0.69-0.129,0.909-0.387c0.179-0.22,0.268-0.498,0.268-0.836
			c0-0.419-0.239-0.96-0.715-1.625c-0.656-0.914-0.984-1.742-0.984-2.488c0-0.994,0.542-1.874,1.625-2.64
			C80.114,20.875,81.227,20.508,82.4,20.508z"/>
		<path fill="#FFFFFF" d="M87.229,21.477c0.169,0,0.308,0.064,0.417,0.194c0.08,0.108,0.119,0.219,0.119,0.328
			c0,0.179-0.144,0.477-0.432,0.895c-1.034,1.6-1.769,2.917-2.207,3.952c-0.467,1.063-0.879,2.155-1.237,3.278
			c-0.159,0.496-0.407,0.746-0.745,0.746c-0.199,0-0.358-0.08-0.477-0.238c-0.109-0.131-0.164-0.271-0.164-0.418
			c0-0.299,0.318-1.293,0.955-2.981c0.497-1.332,1.302-2.803,2.415-4.413c0.357-0.526,0.626-0.88,0.805-1.059
			C86.857,21.57,87.041,21.477,87.229,21.477z M90.062,15.945c0.447,0,0.67,0.229,0.67,0.687c0,0.417-0.219,0.879-0.655,1.386
			c-0.417,0.487-0.82,0.731-1.208,0.731c-0.188,0-0.343-0.07-0.462-0.209c-0.119-0.129-0.179-0.288-0.179-0.479
			c0-0.477,0.263-0.982,0.79-1.52C89.406,16.146,89.754,15.945,90.062,15.945z"/>
		<path fill="#FFFFFF" d="M90.107,25.293c0.129-0.119,0.253-0.238,0.373-0.357c2.077-2.027,3.467-3.042,4.172-3.042
			c0.391,0,0.582,0.214,0.582,0.642c0,0.298-0.174,0.65-0.52,1.058c-1.898,2.218-2.848,4.171-2.848,5.858
			c0,0.547,0.146,1.07,0.445,1.566c0.141,0.229,0.209,0.405,0.209,0.537c0,0.118-0.059,0.231-0.178,0.342
			c-0.131,0.141-0.285,0.209-0.463,0.209c-0.408,0-0.752-0.258-1.029-0.775c-0.269-0.486-0.402-1.078-0.402-1.773
			c0-1.342,0.507-2.828,1.521-4.457c-1.353,0.865-2.61,2.396-3.771,4.592c-0.298,0.525-0.616,0.789-0.954,0.789
			c-0.168,0-0.308-0.061-0.417-0.18c-0.139-0.139-0.208-0.316-0.208-0.535c0-0.537,0.611-1.942,1.834-4.219
			c0.655-1.232,1.172-2.127,1.55-2.685c0.377-0.547,0.701-0.819,0.969-0.819c0.129,0,0.254,0.06,0.373,0.179
			c0.139,0.14,0.209,0.298,0.209,0.478c0,0.219-0.145,0.531-0.434,0.939C90.703,24.244,90.365,24.797,90.107,25.293z"/>
		<path fill="#FFFFFF" d="M96.369,27.543v0.27c0,0.22,0.055,0.406,0.164,0.566c0.248,0.367,0.654,0.551,1.223,0.551
			c1.242,0,2.678-0.953,4.309-2.861c0.287-0.327,0.531-0.491,0.729-0.491c0.109,0,0.209,0.055,0.299,0.164
			c0.061,0.079,0.09,0.153,0.09,0.225c0,0.388-0.477,1.043-1.432,1.968c-0.746,0.725-1.541,1.315-2.387,1.772
			c-0.844,0.457-1.629,0.688-2.354,0.688c-0.744,0-1.332-0.261-1.76-0.777c-0.287-0.357-0.434-0.844-0.434-1.459
			c0-1.68,0.791-3.324,2.371-4.936c1.283-1.312,2.4-1.968,3.355-1.968c0.258,0,0.49,0.08,0.699,0.239
			c0.26,0.208,0.389,0.481,0.389,0.819c0,0.527-0.244,1.173-0.73,1.938C99.895,25.84,98.385,26.938,96.369,27.543z M96.695,26.381
			c0.695-0.238,1.242-0.506,1.641-0.805c0.695-0.537,1.248-1.143,1.656-1.819c0.148-0.237,0.223-0.452,0.223-0.641
			c0-0.199-0.094-0.299-0.283-0.299c-0.258,0-0.625,0.194-1.104,0.581C97.973,24.086,97.262,25.08,96.695,26.381z"/>
		<path fill="#FFFFFF" d="M110.426,20.508c0.615,0,1.078,0.109,1.387,0.328c0.307,0.219,0.461,0.552,0.461,0.999
			c0,0.587-0.219,1.152-0.654,1.699c-0.418,0.517-1.043,0.933-1.879,1.251c-0.457,0.17-0.84,0.254-1.148,0.254
			c-0.416,0-0.625-0.184-0.625-0.551c0-0.248,0.119-0.438,0.355-0.566c0.063-0.029,0.398-0.113,1.016-0.254
			c0.367-0.079,0.705-0.253,1.014-0.521c0.27-0.229,0.402-0.477,0.402-0.745c0-0.209-0.061-0.362-0.178-0.463
			c-0.119-0.099-0.301-0.147-0.537-0.147c-0.576,0-1.213,0.232-1.91,0.7c-0.805,0.526-1.207,1.153-1.207,1.879
			c0,0.516,0.264,1.162,0.791,1.938c0.586,0.846,0.879,1.561,0.879,2.146c0,0.875-0.387,1.562-1.162,2.06
			c-0.477,0.307-1.02,0.461-1.625,0.461c-0.955,0-1.68-0.343-2.176-1.029c-0.35-0.486-0.521-1.063-0.521-1.729
			c0-0.774,0.197-1.426,0.596-1.952c0.26-0.349,0.527-0.521,0.807-0.521c0.248,0,0.371,0.1,0.371,0.299
			c0,0.08-0.045,0.199-0.133,0.357c-0.23,0.426-0.346,0.93-0.346,1.506c0,0.486,0.176,0.897,0.523,1.236
			c0.307,0.299,0.66,0.446,1.059,0.446c0.387,0,0.689-0.129,0.908-0.387c0.18-0.22,0.27-0.498,0.27-0.836
			c0-0.419-0.238-0.96-0.717-1.625c-0.654-0.914-0.982-1.742-0.982-2.488c0-0.994,0.541-1.874,1.625-2.64
			C108.139,20.875,109.252,20.508,110.426,20.508z"/>
		<path fill="#FFFFFF" d="M118.191,20.508c0.617,0,1.078,0.109,1.389,0.328c0.307,0.219,0.461,0.552,0.461,0.999
			c0,0.587-0.219,1.152-0.656,1.699c-0.418,0.517-1.043,0.933-1.877,1.251c-0.457,0.17-0.84,0.254-1.148,0.254
			c-0.418,0-0.625-0.184-0.625-0.551c0-0.248,0.119-0.438,0.357-0.566c0.059-0.029,0.395-0.113,1.014-0.254
			c0.367-0.079,0.705-0.253,1.014-0.521c0.268-0.229,0.4-0.477,0.4-0.745c0-0.209-0.059-0.362-0.178-0.463
			c-0.119-0.099-0.299-0.147-0.537-0.147c-0.576,0-1.213,0.232-1.908,0.7c-0.805,0.526-1.207,1.153-1.207,1.879
			c0,0.516,0.264,1.162,0.789,1.938c0.588,0.846,0.881,1.561,0.881,2.146c0,0.875-0.387,1.562-1.164,2.06
			c-0.477,0.307-1.018,0.461-1.623,0.461c-0.953,0-1.682-0.343-2.178-1.029c-0.348-0.486-0.52-1.063-0.52-1.729
			c0-0.774,0.197-1.426,0.596-1.952c0.258-0.349,0.527-0.521,0.805-0.521c0.248,0,0.373,0.1,0.373,0.299
			c0,0.08-0.045,0.199-0.135,0.357c-0.229,0.426-0.344,0.93-0.344,1.506c0,0.486,0.176,0.897,0.523,1.236
			c0.307,0.299,0.66,0.446,1.059,0.446c0.387,0,0.689-0.129,0.908-0.387c0.18-0.22,0.268-0.498,0.268-0.836
			c0-0.419-0.238-0.96-0.713-1.625c-0.658-0.914-0.984-1.742-0.984-2.488c0-0.994,0.541-1.874,1.625-2.64
			C115.906,20.875,117.02,20.508,118.191,20.508z"/>
		<path fill="#FFFFFF" d="M134.934,25.756c0.318-0.467,1.053-1.59,2.205-3.37c0.984-1.521,2.555-3.712,4.711-6.574
			c1.252-1.66,2.387-3.051,3.398-4.174c0.605-0.676,1.143-1.014,1.609-1.014c0.27,0,0.492,0.095,0.672,0.284
			c0.158,0.148,0.238,0.337,0.238,0.565c0,0.338-0.203,0.87-0.609,1.595c-0.08,0.149-0.488,0.87-1.225,2.161
			c-1.313,2.326-2.201,3.985-2.668,4.979c-1.283,2.723-2.221,5.044-2.818,6.962c-0.348,1.144-0.52,1.981-0.52,2.521
			c0,0.119,0.01,0.242,0.029,0.371c0.049,0.389,0.072,0.617,0.072,0.688c0,0.287-0.107,0.555-0.326,0.805
			c-0.189,0.228-0.402,0.342-0.643,0.342c-0.277,0-0.506-0.164-0.686-0.492c-0.148-0.247-0.225-0.596-0.225-1.043
			c0-2.813,2.348-8.338,7.037-16.576c-2.455,2.624-5.174,6.381-8.154,11.271c-0.654,1.063-1.197,1.782-1.623,2.161
			c-0.418,0.367-0.816,0.552-1.193,0.552c-0.379,0-0.656-0.164-0.836-0.492c-0.119-0.219-0.178-0.471-0.178-0.76
			c0-2.484,1.475-6.396,4.426-11.732c-1.002,1.023-1.967,2.211-2.893,3.563c-1.678,2.495-3.18,5.053-4.502,7.678
			c-0.625,1.262-1.385,2.947-2.279,5.055c-0.447,1.072-0.963,1.609-1.551,1.609c-0.148,0-0.271-0.066-0.373-0.195
			c-0.078-0.088-0.119-0.197-0.119-0.326c0-0.189,0.186-0.707,0.553-1.551c0.785-1.857,1.387-3.195,1.803-4.01
			c2.139-4.166,4.666-8.081,7.588-11.749c1.225-1.529,2.068-2.523,2.535-2.98c0.486-0.467,0.889-0.701,1.207-0.701
			c0.199,0,0.393,0.089,0.582,0.268c0.229,0.209,0.344,0.448,0.344,0.717c0,0.298-0.211,0.791-0.627,1.476
			c-1.191,1.948-2.291,4.134-3.295,6.559C135.738,22.381,135.182,24.234,134.934,25.756z"/>
		<path fill="#FFFFFF" d="M149.84,20.791c0.814,0,1.223,0.497,1.223,1.491c0,1.321-0.611,2.997-1.834,5.022
			c-1.332,2.197-2.619,3.295-3.859,3.295c-0.578,0-1-0.268-1.27-0.805c-0.139-0.268-0.207-0.592-0.207-0.969
			c0-1.271,0.438-2.654,1.313-4.145c0.813-1.382,1.771-2.455,2.877-3.221C148.727,21.015,149.313,20.791,149.84,20.791z
			 M148.291,26.426c-0.248-0.199-0.373-0.352-0.373-0.461c0-0.08,0.158-0.299,0.477-0.658c0.896-1.004,1.342-1.813,1.342-2.429
			c0-0.08-0.025-0.159-0.074-0.239c-0.08-0.148-0.203-0.224-0.371-0.224c-0.318,0-0.787,0.309-1.402,0.924
			c-0.795,0.795-1.4,1.615-1.818,2.461c-0.486,0.964-0.73,1.765-0.73,2.398c0,0.17,0.045,0.317,0.135,0.446
			c0.129,0.181,0.293,0.271,0.492,0.271c0.477,0,0.988-0.356,1.535-1.074c0.238-0.299,0.432-0.604,0.582-0.924
			C148.229,26.6,148.299,26.436,148.291,26.426z"/>
		<path fill="#FFFFFF" d="M157.174,21.7c0.994-2.077,1.934-3.887,2.818-5.427c0.854-1.49,1.436-2.43,1.742-2.816
			c0.338-0.428,0.656-0.642,0.955-0.642c0.158,0,0.305,0.065,0.434,0.194c0.119,0.129,0.178,0.268,0.178,0.417
			c0,0.229-0.168,0.611-0.506,1.147c-1.441,2.324-2.764,4.686-3.965,7.08c-1.393,2.795-2.088,4.885-2.088,6.277
			c0,0.565,0.107,1.014,0.328,1.342c0.039,0.067,0.219,0.229,0.535,0.477c0.061,0.051,0.09,0.148,0.09,0.299
			c0,0.199-0.076,0.381-0.23,0.545c-0.154,0.162-0.326,0.244-0.514,0.244c-0.23,0-0.482-0.139-0.762-0.418
			c-0.396-0.396-0.637-0.854-0.715-1.371c-0.031-0.217-0.064-0.625-0.104-1.223c-1.045,1.879-2.039,2.818-2.982,2.818
			c-0.545,0-0.982-0.31-1.311-0.924c-0.221-0.408-0.33-0.869-0.33-1.388c0-1.551,0.566-3.11,1.699-4.681
			c1.123-1.551,2.33-2.326,3.623-2.326C156.43,21.328,156.797,21.452,157.174,21.7z M156.668,22.923
			c-0.27-0.179-0.502-0.27-0.699-0.27c-0.836,0-1.627,0.513-2.371,1.536c-0.984,1.332-1.477,2.619-1.477,3.86
			c0,0.148,0.029,0.289,0.09,0.416c0.119,0.25,0.299,0.375,0.537,0.375c0.348,0,0.77-0.34,1.268-1.016
			c0.666-0.894,1.281-1.951,1.848-3.175c0.199-0.418,0.393-0.834,0.582-1.253l0.135-0.282L156.668,22.923z"/>
		<path fill="#FFFFFF" d="M160.305,27.543v0.27c0,0.22,0.055,0.406,0.164,0.566c0.248,0.367,0.656,0.551,1.223,0.551
			c1.242,0,2.678-0.953,4.309-2.861c0.287-0.327,0.531-0.491,0.729-0.491c0.109,0,0.209,0.055,0.299,0.164
			c0.061,0.079,0.092,0.153,0.092,0.225c0,0.388-0.479,1.043-1.434,1.968c-0.746,0.725-1.539,1.315-2.385,1.772
			s-1.629,0.688-2.355,0.688c-0.744,0-1.332-0.261-1.76-0.777c-0.287-0.357-0.432-0.844-0.432-1.459c0-1.68,0.789-3.324,2.371-4.936
			c1.281-1.312,2.398-1.968,3.354-1.968c0.258,0,0.49,0.08,0.699,0.239c0.26,0.208,0.389,0.481,0.389,0.819
			c0,0.527-0.244,1.173-0.73,1.938C163.834,25.84,162.322,26.938,160.305,27.543z M160.633,26.381
			c0.695-0.238,1.242-0.506,1.641-0.805c0.693-0.537,1.246-1.143,1.654-1.819c0.148-0.237,0.223-0.452,0.223-0.641
			c0-0.199-0.094-0.299-0.281-0.299c-0.26,0-0.627,0.194-1.105,0.581C161.91,24.086,161.199,25.08,160.633,26.381z"/>
		<path fill="#FFFFFF" d="M169.965,25.457c-0.297,0.775-0.521,1.4-0.672,1.879c-0.148,0.477-0.223,0.809-0.223,0.998
			c0,0.248,0.119,0.373,0.357,0.373c0.357,0,0.82-0.338,1.385-1.014c0.27-0.328,0.666-0.92,1.193-1.773
			c0.209-0.34,0.428-0.508,0.656-0.508c0.258,0,0.387,0.125,0.387,0.373c0,0.428-0.49,1.293-1.477,2.594
			c-1.021,1.361-1.973,2.041-2.846,2.041c-0.379,0-0.688-0.158-0.926-0.477c-0.168-0.229-0.252-0.506-0.252-0.834
			c0-0.558,0.168-1.328,0.506-2.312s0.84-2.182,1.506-3.593c1.709-3.588,3.453-6.544,5.232-8.87c1.42-1.868,2.6-2.802,3.533-2.802
			c0.299,0,0.541,0.114,0.73,0.343c0.197,0.229,0.297,0.492,0.297,0.791c0,1.391-1.242,3.707-3.727,6.945
			c-1.113,1.441-2.445,2.883-3.996,4.323C171.227,24.314,170.67,24.82,169.965,25.457z M171.023,23.087
			c2.066-1.77,3.914-4.005,5.545-6.708c0.846-1.401,1.27-2.33,1.27-2.788c0-0.218-0.096-0.328-0.283-0.328
			c-0.547,0-1.541,1.088-2.982,3.265C173.379,18.315,172.195,20.503,171.023,23.087z"/>
	</g>
</g>
</svg>
