<?xml version="1.0" encoding="utf-8"?>
<!-- Generator: Adobe Illustrator 16.0.0, SVG Export Plug-In . SVG Version: 6.00 Build 0)  -->
<!DOCTYPE svg PUBLIC "-//W3C//DTD SVG 1.1//EN" "http://www.w3.org/Graphics/SVG/1.1/DTD/svg11.dtd">
<svg version="1.1" id="Layer_1" xmlns="http://www.w3.org/2000/svg" xmlns:xlink="http://www.w3.org/1999/xlink" x="0px" y="0px"
	 width="55px" height="58px" viewBox="0 0 55 58" enable-background="new 0 0 55 58" xml:space="preserve">
<g>
	<path fill="#F9E33F" d="M3.869,15.021c-6.872,12.312-3.98,30.66,9.098,38.577c10.648,6.446,29.438,5.705,36.803-6.931
		c7.911-13.57,6.124-26.439-3.543-37.745C36.026-3.005,14.273-3.616,3.869,15.021z"/>
	<linearGradient id="SVGID_1_" gradientUnits="userSpaceOnUse" x1="13.5713" y1="10.0723" x2="50.603" y2="62.8342">
		<stop  offset="0" style="stop-color:#F9E33F;stop-opacity:0"/>
		<stop  offset="0.9657" style="stop-color:#F9E33F;stop-opacity:0.9657"/>
		<stop  offset="1" style="stop-color:#F9E33F"/>
	</linearGradient>
	<path fill="url(#SVGID_1_)" d="M3.869,15.021c-6.872,12.312-3.98,30.66,9.098,38.577c10.648,6.446,29.438,5.705,36.803-6.931
		c7.911-13.57,6.124-26.439-3.543-37.745C36.026-3.005,14.273-3.616,3.869,15.021z"/>
	<path opacity="0.6" fill="#F9B23D" d="M42.146,13.296c-7.978-9.33-24.992-9.808-33.13,4.771C3.64,27.696,5.902,42.048,16.133,48.24
		c8.328,5.042,23.024,4.462,28.785-5.422C51.105,32.205,49.709,22.139,42.146,13.296z M40.896,39.628
		c-4.431,7.603-15.734,8.049-22.14,4.17c-7.868-4.763-9.608-15.8-5.473-23.208c6.259-11.212,19.345-10.844,25.48-3.668
		C44.58,23.724,45.656,31.465,40.896,39.628z"/>
	<path opacity="0.5" fill="#F9E33F" d="M20.296,4.868c9.673-3.481,21.616-0.392,28.222,6.978c-0.708-0.985-1.47-1.96-2.292-2.922
		C36.026-3.005,14.273-3.616,3.869,15.021c-4.584,8.212-4.817,19.108-0.586,27.805C2.563,40.729-1.918,12.859,20.296,4.868z"/>
	<path opacity="0.5" fill="#F9E33F" d="M13.533,33.299c-0.572-5.941,1.46-13.477,7.133-16.511
		c5.909-3.162,14.748-1.548,19.761,2.308c-1.328-1.663-2.317-3.025-3.725-4.09c-7.811-5.912-16.822-3.201-21.752,3.072
		c-5.054,6.433-5.836,17.573,2.129,24.518C15.247,39.829,13.854,36.63,13.533,33.299C13.33,31.196,13.854,36.634,13.533,33.299z"/>
	<g>
		<path opacity="0.6" fill="#F9B23D" d="M10,20.033c8.138-14.578,25.153-14.1,33.13-4.77c1.436,1.678,2.646,3.4,3.628,5.163
			c-1.108-2.451-2.646-4.833-4.611-7.13c-7.978-9.33-24.992-9.808-33.13,4.771C5.224,24.861,5.252,33.995,9.18,40.966
			C6.263,34.307,6.555,26.205,10,20.033z"/>
		<path opacity="0.6" fill="#F9B23D" d="M19.74,45.765c6.406,3.879,17.709,3.432,22.14-4.17c3.904-6.697,3.875-13.109,0.53-18.954
			c2.312,5.305,1.958,11.033-1.514,16.987c-4.431,7.603-15.734,8.049-22.14,4.17c-2.273-1.376-4.02-3.287-5.276-5.472
			C14.724,41.336,16.805,43.988,19.74,45.765z"/>
	</g>
	<linearGradient id="SVGID_2_" gradientUnits="userSpaceOnUse" x1="13.5713" y1="10.0723" x2="50.603" y2="62.8342">
		<stop  offset="0" style="stop-color:#F9E33F;stop-opacity:0"/>
		<stop  offset="1" style="stop-color:#F9E33F"/>
	</linearGradient>
	<path fill="url(#SVGID_2_)" d="M46.227,8.923C36.026-3.005,14.273-3.616,3.869,15.021c-6.872,12.312-3.98,30.66,9.098,38.577
		c10.648,6.446,29.438,5.705,36.803-6.931C57.681,33.098,55.894,20.229,46.227,8.923z M48.17,44.44
		c-6.796,11.657-24.132,12.343-33.956,6.395C2.147,43.529-0.52,26.602,5.819,15.243c9.6-17.195,29.67-16.631,39.08-5.627
		C53.819,20.047,55.467,31.921,48.17,44.44z"/>
</g>
</svg>
