<?xml version="1.0" encoding="utf-8"?>
<!-- Generator: Adobe Illustrator 16.0.0, SVG Export Plug-In . SVG Version: 6.00 Build 0)  -->
<!DOCTYPE svg PUBLIC "-//W3C//DTD SVG 1.1//EN" "http://www.w3.org/Graphics/SVG/1.1/DTD/svg11.dtd">
<svg version="1.1" id="Layer_1" xmlns="http://www.w3.org/2000/svg" xmlns:xlink="http://www.w3.org/1999/xlink" x="0px" y="0px"
	 width="819.5px" height="139.705px" viewBox="0 0 819.5 139.705" enable-background="new 0 0 819.5 139.705" xml:space="preserve">
<g>
	<path d="M532.395,2.147c1.32,0.896,2.925,1.558,3.896,2.739c1.679,2.041,1.154,4.636-1.021,7.348c0.704,0.79,1.542,1.5,2.091,2.389
		c1.775,2.876,0.608,6.421-2.51,7.722c-0.845,0.354-1.779,0.666-2.679,0.679c-5.57,0.082-11.146,0.074-16.72,0.095
		c-0.761,0.002-1.522,0-2.571,0c0-7.102,0-14.037,0-20.972C519.386,2.147,525.89,2.147,532.395,2.147z M517.079,19.302
		c4.839,0,9.463,0.003,14.085-0.01c0.303,0,0.723-0.024,0.881-0.212c0.646-0.759,1.634-1.569,1.665-2.394
		c0.026-0.644-1.146-1.898-1.82-1.921c-4.902-0.167-9.813-0.09-14.811-0.09C517.079,16.233,517.079,17.606,517.079,19.302z
		 M517.118,10.562c4.654,0,9.125,0.12,13.579-0.103c0.869-0.043,1.672-1.414,2.506-2.171c-0.71-0.773-1.391-2.182-2.135-2.214
		c-4.604-0.207-9.219-0.104-13.95-0.104C517.118,7.552,517.118,8.91,517.118,10.562z"/>
	<path d="M473.856,2.147c3.214,1.278,5.29,3.319,5.142,7.098c-0.13,3.262-2.012,5.023-5.031,6.135
		c1.76,2.504,3.427,4.876,5.137,7.309c-3.729,0.971-4.575,0.949-6.208-2.108c-2.263-4.237-5.429-5.905-10.095-5.099
		c-1.123,0.194-2.31,0.029-3.838,0.029c0,2.53,0,4.946,0,7.479c-1.571,0-2.773,0-4.154,0c0-6.994,0-13.917,0-20.842
		C461.157,2.147,467.506,2.147,473.856,2.147z M459.008,11.567c4.492,0,8.861,0.063,13.229-0.034
		c1.493-0.034,2.401-1.046,2.401-2.598c0-1.601-0.86-2.823-2.438-2.872c-4.367-0.136-8.74-0.047-13.191-0.047
		C459.008,7.994,459.008,9.737,459.008,11.567z"/>
	<path d="M608.123,2.147c0,6.866,0,13.732,0,20.724c-3.625,0.446-6.543,0.749-8.946-2.684c-3.354-4.789-7.314-9.154-11.474-14.26
		c0,6.059,0,11.466,0,17.03c-1.52,0-2.713,0-4.203,0c0-6.948,0-13.879,0-20.811c2.168,0,4.336,0,6.503,0
		c1.32,1.769,2.59,3.579,3.969,5.299c3.063,3.821,6.183,7.597,9.276,11.392c0.484-1.277,0.473-2.401,0.487-3.525
		c0.064-4.389,0.137-8.778,0.206-13.166C605.336,2.147,606.729,2.147,608.123,2.147z"/>
	<path d="M439.941,2.147c1.859,3.615,3.689,7.245,5.588,10.841c1.721,3.26,3.514,6.48,5.299,9.764
		c-3.906,0.899-4.259,0.818-5.908-2.457c-0.629-1.249-1.406-1.601-2.707-1.573c-3.397,0.07-6.799,0.073-10.194,0.002
		c-1.364-0.028-2.464,0.172-2.882,1.645c-0.873,3.081-3.154,3.052-5.942,2.542c3.753-6.975,7.463-13.869,11.173-20.763
		C436.225,2.147,438.082,2.147,439.941,2.147z M432.226,14.807c3.477,0,6.428,0,9.647,0c-1.634-3.023-3.113-5.765-4.824-8.932
		C435.346,9.029,433.848,11.801,432.226,14.807z"/>
	<path d="M568.633,2.147c3.328,6.27,6.661,12.539,9.989,18.81c0.315,0.595,0.601,1.207,0.916,1.849
		c-3.973,0.781-4.15,0.769-5.772-2.362c-0.657-1.268-1.41-1.777-2.857-1.731c-3.398,0.108-6.809,0.107-10.209,0.01
		c-1.434-0.041-2.227,0.446-2.876,1.72c-1.572,3.079-1.879,3.15-5.754,2.343c3.678-6.907,7.333-13.772,10.988-20.638
		C564.916,2.147,566.774,2.147,568.633,2.147z M570.684,14.922c-1.664-3.119-3.153-5.911-4.855-9.104
		c-1.75,3.26-3.243,6.046-4.885,9.104C564.347,14.922,567.264,14.922,570.684,14.922z"/>
	<path d="M498.014,2.147c2.728,5.172,5.449,10.347,8.184,15.516c0.895,1.69,1.816,3.365,2.742,5.078
		c-3.777,0.921-4.165,0.808-5.875-2.433c-0.628-1.189-1.385-1.625-2.717-1.59c-3.475,0.088-6.956-0.06-10.424,0.101
		c-0.875,0.041-2.217,0.698-2.48,1.397c-1.114,2.961-3.18,3.393-6.096,2.652c3.705-6.923,7.398-13.823,11.092-20.722
		C494.297,2.147,496.156,2.147,498.014,2.147z M500.064,14.929c-1.7-3.139-3.206-5.919-4.914-9.073
		c-1.732,3.237-3.223,6.019-4.855,9.073C493.713,14.929,496.623,14.929,500.064,14.929z"/>
	<path d="M548.19,2.147c0,6.852,0,13.703,0,20.761c-1.396,0-2.637,0-4.182,0c0-6.936,0-13.848,0-20.761
		C545.403,2.147,546.797,2.147,548.19,2.147z"/>
	<path d="M291.29,84.584c0,13.685,0,27.065,0,40.729c-3.356,0.688-6.646,1.441-9.964,2.033c-8.44,1.504-15.899,5.434-23.38,9.32
		c-1.056,0.549-2.415,1.682-3.12,0.021c-0.383-0.9,0.024-2.754,0.758-3.396c1.775-1.548,3.839-2.884,5.99-3.856
		c4.784-2.168,9.176-4.843,12.679-8.785c0.696-0.781,1.303-1.984,1.306-2.996c0.072-25.618,0.039-51.237,0.102-76.855
		c0.005-1.715-0.694-2.282-2.155-2.646c-2.922-0.73-5.835-1.515-8.706-2.426c-1.001-0.318-1.865-1.073-3.299-1.931
		c1.356-0.502,2.023-0.748,2.872-1.062c-3.979-1.388-7.814-2.657-11.594-4.074c-1.728-0.648-3.388-1.514-4.993-2.432
		c-0.598-0.341-0.949-1.112-1.413-1.688c0.127-0.225,0.255-0.45,0.383-0.675c2.786,0.321,5.572,0.643,8.358,0.964
		c-0.058,0.125-0.116,0.25-0.174,0.375c-8.773-3.342-17.565-6.634-26.305-10.06c-2.509-0.983-4.917-2.265-7.259-3.606
		c-0.656-0.376-0.91-1.454-1.348-2.21c0.21-0.173,0.42-0.346,0.63-0.52c4.96,1.104,9.915,2.227,14.88,3.307
		c21.449,4.67,42.903,9.321,64.352,13.993c4.906,1.068,9.939,1.767,14.668,3.367c15.321,5.184,22.833,18.877,19.872,34.795
		c-2.353,12.65-12.911,18.614-23.43,19.517c-5.389,0.463-10.82,0.438-16.23,0.637C293.702,84.466,292.634,84.522,291.29,84.584z
		 M291.28,69.084c5.023,0,9.792,0.009,14.563-0.007c1.158-0.004,2.332,0.015,3.47-0.163c3.334-0.523,6.183-1.919,8.083-4.859
		c5.136-7.946,0.171-19.824-9.107-21.582c-3.943-0.747-7.946-1.187-11.923-1.741c-1.634-0.228-3.275-0.393-5.085-0.606
		c0,0.816,0,1.27,0,1.724C291.28,50.656,291.28,59.463,291.28,69.084z"/>
	<path d="M727.038,57.596c1.925-4.268,3.716-8.102,5.393-11.985c2.694-6.249,5.374-12.507,7.929-18.813
		c0.635-1.564,1.552-2.193,3.149-2.544c20.394-4.473,40.769-9.022,61.15-13.542c2.927-0.649,5.868-1.242,8.77-1.854
		c1.027,1.46,0.385,2.227-0.822,2.854c-9.915,5.147-20.245,9.244-31.021,12.216c-0.86,0.238-1.727,0.474-2.55,0.915
		c2.736-0.328,5.477-0.655,8.213-0.982c0.161,0.21,0.321,0.42,0.481,0.63c-0.537,0.63-0.95,1.559-1.633,1.842
		c-4.63,1.917-9.314,3.705-13.989,5.517c-0.69,0.268-1.418,0.442-2.606,0.807c1.064,0.36,1.681,0.568,3.161,1.069
		c-1.523,0.908-2.458,1.743-3.541,2.061c-6.083,1.781-12.188,3.483-18.314,5.107c-1.57,0.416-2.425,1.208-3.073,2.711
		c-4.014,9.302-8.172,18.541-12.182,27.844c-0.361,0.838-0.31,2.118,0.063,2.968c5.237,11.889,10.513,23.761,15.884,35.59
		c3.836,8.445,10.107,14.465,18.533,18.381c2.623,1.219,5.055,2.936,7.352,4.713c0.604,0.467,0.371,2.008,0.524,3.058
		c-0.96,0.051-2.155,0.501-2.846,0.093c-9.59-5.665-19.924-9.146-30.912-10.727c-1.92-0.273-2.871-1.181-3.58-2.973
		c-4.206-10.641-8.54-21.232-12.843-31.834c-0.315-0.773-0.729-1.511-1.274-2.631c-1.242,2.555-2.296,4.811-3.425,7.026
		c-3.789,7.444-7.62,14.866-11.393,22.319c-0.636,1.25-1.271,1.795-2.85,1.481c-4.389-0.863-8.828-1.474-13.521-2.229
		c0.309-0.723,0.486-1.274,0.767-1.774c7.267-13.035,14.564-26.054,21.757-39.128c0.445-0.813,0.438-2.287-0.004-3.106
		c-6.777-12.596-13.666-25.135-20.523-37.688c-0.325-0.595-0.618-1.207-1.057-2.064c5.458-0.919,10.685-1.856,15.938-2.598
		c0.546-0.078,1.5,0.879,1.853,1.567c4.085,7.985,8.09,16.01,12.12,24.023C726.321,56.325,726.556,56.722,727.038,57.596z"/>
	<path d="M349.064,115.146c0-1.189,0-1.955,0-2.72c0-20.905,0.02-41.813-0.055-62.717c-0.002-0.975-0.586-2.234-1.322-2.873
		c-3.859-3.344-7.813-6.583-11.827-9.74c-1.317-1.036-1.674-2.103-1.094-3.593c0.627-1.611,1.934-1.258,3.147-1.063
		c8.319,1.345,16.627,2.773,24.965,4.01c1.739,0.258,2.115,0.906,2.103,2.511c-0.069,8.439-0.035,16.879-0.037,25.318
		c0,0.843,0,1.685,0,2.815c10.83,0.245,21.455,0.485,32.351,0.732c0-9.172,0-18.034,0-27.127c5.336,0.549,10.388,1.069,15.682,1.614
		c0.048,0.891,0.131,1.707,0.131,2.522c0.007,20.054-0.025,40.107,0.053,60.161c0.008,2.03-0.572,2.604-2.574,2.723
		c-4.313,0.251-8.605,0.832-13.194,1.31c0-9.911,0-19.62,0-29.522c-4.416,0-8.564-0.032-12.712,0.011
		c-5.729,0.06-11.455,0.26-17.18,0.223c-2.056-0.014-2.621,0.646-2.6,2.669c0.102,9.368,0.007,18.737,0.085,28.106
		c0.015,1.764-0.321,2.596-2.303,2.789C358.24,113.742,353.826,114.479,349.064,115.146z"/>
	<path d="M596.092,61.141c0,14.662,0,29.262,0,44.196c-4.676-0.299-9.424-0.604-14.35-0.917c0-19.703,0-39.313,0-59.185
		c5.396-0.324,10.772-0.697,16.16-0.899c0.64-0.024,1.442,0.783,1.953,1.388c11.577,13.734,22.781,27.745,31.563,43.509
		c0.107,0.191,0.306,0.339,0.107,0.125c-0.119-14.486-0.241-29.338-0.362-44.189c-0.006-0.774,0.039-1.55,0-2.322
		c-0.058-1.154,0.416-1.573,1.604-1.701c7.999-0.867,15.983-1.844,23.979-2.734c2.181-0.242,3.201,0.69,2.893,2.694
		c-0.109,0.712-0.745,1.486-1.354,1.951c-3.444,2.624-6.932,5.199-10.461,7.71c-1.246,0.886-1.744,1.867-1.737,3.45
		c0.063,17.573,0.04,35.146,0.041,52.72c0,0.914,0,1.83,0,2.973c-4.896-0.493-9.568-0.928-14.225-1.481
		c-0.551-0.063-1.117-0.733-1.509-1.254c-10.031-13.267-20.049-26.54-30.039-39.838C598.842,65.313,597.485,63.172,596.092,61.141z"
		/>
	<path d="M481.617,49.188c8.49,4.063,13.832,10.787,15.452,19.911c2.864,16.126-5.492,28.498-19.854,32.998
		c-9.807,3.072-19.734,3.487-29.772,1.352c-8.147-1.734-13.756-6.58-17.375-14.004c-5.585-11.452-3.572-26.861,4.937-36.252
		c4.633-5.114,10.795-7.33,17.379-7.737c9.096-0.563,18.235-0.406,27.357-0.586c1.434-0.028,1.924,0.802,2.008,2.001
		C481.799,47.622,481.67,48.39,481.617,49.188z M481.358,74.823c0.013-3.777-0.521-8.261-3.044-12.14
		c-4.76-7.315-12.051-8.49-19.991-7.753c-6.836,0.634-11.555,4.123-13.705,10.701c-1.845,5.644-2.083,11.466-0.34,17.125
		c0.858,2.786,2.282,5.679,4.237,7.797c5.552,6.013,19.252,6.19,26.195,0.642C479.701,87.206,481.442,81.771,481.358,74.823z"/>
	<path d="M556.283,78.342c-9.576,0-18.912,0-28.382,0c0,4.987,0,9.817,0,14.82c13.515,0.272,26.942,0.545,40.58,0.819
		c0,3.307,0,6.414,0,9.627c-18.795-0.422-37.541-0.844-56.638-1.275c0-0.846,0-1.738,0-2.632
		c-0.002-13.466-0.032-26.931,0.035-40.396c0.008-1.759-0.41-2.833-2.09-3.627c-2.371-1.12-4.562-2.61-6.885-3.837
		c-1.408-0.744-1.798-1.82-1.497-3.267c0.32-1.536,1.507-1.496,2.714-1.508c16.166-0.161,32.333-0.312,48.5-0.529
		c4.176-0.056,8.344-0.34,12.515-0.503c0.521-0.02,1.045,0.064,1.706,0.109c0,3.101,0,6.08,0,9.625c-12.974,0-25.854,0-38.899,0
		c0,4.774,0,8.987,0,13.398c9.377,0,18.771,0,28.341,0C556.283,72.244,556.283,75.131,556.283,78.342z"/>
	<path d="M666.804,37.262c7.727-1.151,15.282-2.311,22.855-3.344c0.599-0.081,1.786,0.638,1.868,1.125
		c0.14,0.826-0.104,2.075-0.683,2.598c-2.003,1.812-4.164,3.466-6.376,5.023c-1.467,1.032-2.03,2.192-2.024,4.033
		c0.068,21.755,0.044,43.509,0.044,65.265c0,0.834,0,1.669,0,2.711c-5.368-0.727-10.469-1.418-15.687-2.124
		C666.804,87.435,666.804,62.458,666.804,37.262z"/>
</g>
<g>
	<path fill-rule="evenodd" clip-rule="evenodd" d="M26.274,37.135c3.449,3.5,7.743,4.468,12.341,4.507
		c5.339,0.046,10.572,0.713,15.655,2.377c3.971,1.3,7.597,3.212,10.599,6.185c0.067,0.066,0.156,0.11,0.404,0.054
		c-0.421-0.75-0.781-1.542-1.273-2.242c-2.031-2.891-4.874-4.792-7.943-6.409c-3.924-2.067-8.129-3.245-12.443-4.178
		c-4.296-0.929-8.521-2.163-12.482-4.125c-2.85-1.411-5.425-3.204-7.125-5.979c-0.559-0.913-0.913-1.951-1.36-2.933
		c0.069-0.043,0.139-0.086,0.209-0.129c0.809,0.651,1.596,1.331,2.431,1.947c2.124,1.566,4.413,2.831,7.071,3.149
		c1.117,0.134,2.307,0.108,3.402-0.127c3.069-0.661,3.858-3.516,2.397-5.942c-0.878-1.458-2.26-2.386-3.686-3.238
		c-2.947-1.759-6.221-2.617-9.521-3.37c-3.009-0.686-6.057-1.208-9.049-1.959c-4.074-1.022-7.984-2.495-11.41-5.011
		C2.216,8.043,0.443,5.998,0.039,3.07C-0.042,2.479,0.027,1.868,0.027,1.25c1.016,0.663,1.962,1.378,2.994,1.933
		c2.388,1.283,4.993,1.935,7.677,1.946C16.364,5.154,21.68,6.612,26.692,9.07c2.344,1.15,4.437,2.839,6.567,4.389
		c1.827,1.33,3.539,2.817,5.315,4.217c1.34,1.057,2.825,1.808,4.547,2.002c2.569,0.291,4.274-2.211,3.352-4.934
		c-0.615-1.814-1.9-3.115-3.367-4.264c-0.306-0.24-0.619-0.471-0.929-0.706c0.043-0.088,0.087-0.177,0.131-0.265
		c1.017,0.397,2.065,0.729,3.044,1.203c3.557,1.723,6.578,4.211,9.57,6.748c4.416,3.743,7.95,8.301,11.786,12.583
		c1.67,1.863,3.246,3.823,5.398,5.181c1.116,0.705,2.291,1.259,3.642,1.301c2.352,0.072,3.82-1.202,3.951-3.542
		c0.056-1-0.112-2.014-0.184-3.021c-0.017-0.227-0.059-0.452-0.11-0.839c1.561,1.098,2.69,2.384,3.645,3.833
		c2.328,3.533,3.216,7.478,3.418,11.654c0.198,4.101-1.238,7.75-2.989,11.293c-1.239,2.51-2.615,4.934-3.058,7.757
		c-0.562,3.576-0.104,6.949,2.182,9.835c0.907,1.146,2.188,1.998,3.307,2.975c0.21,0.184,0.464,0.316,0.672,0.533
		c-3.023-0.139-5.968-0.633-8.822-1.6c-2.263-0.768-4.42-1.766-6.157-3.445c-1.068-1.033-1.948-2.258-3.003-3.307
		c-2.391-2.38-5.128-4.058-8.582-4.553c-3.317-0.476-6.673-0.977-9.866-1.945c-6.229-1.886-11.981-4.738-16.433-9.708
		c-0.227-0.254-0.418-0.54-0.766-0.992c0.798,0.248,1.39,0.43,1.98,0.615c4.658,1.459,9.421,2.128,14.307,2.255
		c4.463,0.116,8.868,0.82,12.941,2.809c1.23,0.601,2.348,1.434,3.585,2.203c-0.263-0.435-0.485-0.888-0.783-1.285
		c-2.205-2.936-5.286-4.572-8.741-5.372c-3.231-0.749-6.558-1.085-9.834-1.65c-2.749-0.474-5.567-0.742-8.097-2.046
		c-4.656-2.399-8.61-5.594-11.236-10.231C26.779,38.229,26.54,37.674,26.274,37.135z"/>
	<path fill-rule="evenodd" clip-rule="evenodd" d="M136.736,50.473c1.006-0.846,1.843-1.623,2.754-2.301
		c4.294-3.196,9.229-4.855,14.434-5.672c3.12-0.49,6.298-0.668,9.457-0.818c3.18-0.151,6.277-0.554,9.076-2.156
		c1.14-0.653,2.14-1.548,3.237-2.359c-0.252,0.51-0.498,1.065-0.794,1.593c-2.294,4.097-5.746,6.988-9.683,9.414
		c-2.978,1.835-6.325,2.304-9.656,2.854c-2.889,0.478-5.817,0.74-8.68,1.332c-3.435,0.711-6.61,2.082-9.067,4.722
		c-0.619,0.665-1.11,1.448-1.548,2.224c1.156-0.724,2.264-1.546,3.479-2.153c3.437-1.717,7.164-2.355,10.944-2.708
		c3.574-0.334,7.203-0.108,10.727-0.971c2.247-0.55,4.479-1.161,6.718-1.748c0.225-0.059,0.443-0.143,0.665-0.215
		c0.06,0.069,0.119,0.137,0.179,0.205c-1.031,1.04-1.997,2.157-3.106,3.105c-3.611,3.084-7.757,5.326-12.243,6.738
		c-3.511,1.105-7.172,1.87-10.823,2.358c-4.747,0.636-8.287,3.055-11.155,6.637c-1.61,2.012-3.645,3.326-5.953,4.291
		c-3.276,1.367-6.73,1.959-10.406,2.238c0.218-0.197,0.322-0.324,0.455-0.404c5.618-3.344,6.762-8.821,5.641-13.893
		c-0.509-2.3-1.549-4.346-2.646-6.392c-1.328-2.474-2.297-5.091-2.935-7.829c-0.492-2.112-0.334-4.241-0.095-6.357
		c0.474-4.2,1.878-8.025,4.751-11.211c0.497-0.551,1.08-1.026,1.632-1.526c0.109-0.1,0.261-0.154,0.479-0.279
		c-0.095,0.647-0.204,1.192-0.247,1.742c-0.053,0.662-0.087,1.331-0.061,1.994c0.119,2.974,2.442,3.845,4.547,3.531
		c2.121-0.317,3.841-1.492,5.253-3.001c2.818-3.013,5.543-6.116,8.264-9.219c4.382-4.998,9.243-9.429,14.977-12.839
		c1.367-0.813,2.805-1.504,4.502-1.632c-0.273,0.209-0.546,0.418-0.82,0.628c-1.325,1.014-2.515,2.153-3.209,3.704
		c-0.214,0.479-0.384,1.003-0.44,1.521c-0.322,2.955,1.606,4.629,4.485,3.886c1.437-0.371,2.705-1.076,3.827-2.069
		c3.542-3.135,7.365-5.931,11.451-8.267c3.495-1.998,7.42-3.089,11.43-3.653c1.892-0.266,3.825-0.225,5.727-0.439
		c3.548-0.4,6.892-1.372,9.691-4.001c0.229,1.831-0.147,3.395-0.97,4.86c-1.269,2.261-3.231,3.815-5.432,5.058
		c-4.216,2.381-8.778,3.746-13.532,4.624c-4.419,0.816-8.849,1.685-12.962,3.623c-1.694,0.799-3.274,1.774-4.573,3.16
		c-1.053,1.124-1.505,2.454-1.294,3.958c0.193,1.373,1.136,2.223,2.362,2.681c2.123,0.792,4.254,0.508,6.338-0.215
		c2.478-0.86,4.604-2.312,6.567-4.024c0.217-0.189,0.436-0.377,0.787-0.682c-0.432,2.188-1.456,3.859-2.88,5.294
		c-2.588,2.611-5.773,4.236-9.191,5.46c-4.12,1.476-8.392,2.377-12.62,3.458c-5.839,1.492-11.285,3.878-15.538,8.375
		C138.028,47.749,137.218,48.922,136.736,50.473z"/>
	<path fill-rule="evenodd" clip-rule="evenodd" d="M111.251,46.402c-0.338,0.072-0.413,0.103-0.487,0.103
		c-3.298,0.002-4.789,1.894-4.94,4.947c-0.073,1.466,0.115,2.99,0.46,4.421c0.42,1.748,1.027,3.47,1.738,5.124
		c0.868,2.017,2.433,3.391,4.514,4.157c1.048,0.387,2.078,0.822,3.121,1.226c1.039,0.403,2.084,0.793,3.252,1.237
		c-0.548,0.778-1.013,1.516-1.554,2.193c-3.167,3.963-6.547,7.715-10.67,10.729c-0.343,0.25-0.679,0.523-1.052,0.723
		c-2.916,1.557-3.975,4.299-4.664,7.275c-0.138,0.594-0.234,1.197-0.395,2.025c-0.129-0.846-0.216-1.473-0.32-2.1
		c-0.5-3.004-1.873-5.463-4.255-7.439c-3.211-2.666-6.616-5.148-9.204-8.48c-1.137-1.464-2.088-3.073-3.099-4.632
		c-0.179-0.277-0.236-0.633-0.374-1.018c1.64-0.638,3.22-1.25,4.797-1.869c1.016-0.399,2.012-0.852,3.042-1.208
		c2.815-0.974,4.327-3.146,5.352-5.762c0.256-0.652,0.381-1.356,0.623-2.247c-1.147,0.762-2.089,1.387-3.029,2.012
		c-0.051-0.045-0.101-0.092-0.151-0.137c1.261-3.021,2.549-6.026,4.934-8.43c-0.969-0.148-2.152,0.252-4.66,1.557
		c-0.057-0.049-0.112-0.099-0.168-0.148c0.87-0.928,1.694-1.905,2.62-2.773c1.92-1.798,4.179-3.044,6.835-3.099
		c2.003-0.042,4.098-0.566,6.018,0.514C110.057,45.597,110.548,45.95,111.251,46.402z M103.307,47.655
		c0.051,0.059,0.102,0.118,0.151,0.176c0.399-0.184,0.816-0.339,1.191-0.565c0.13-0.078,0.154-0.331,0.227-0.503
		c-0.186-0.03-0.443-0.154-0.545-0.075C103.962,46.973,103.645,47.327,103.307,47.655z"/>
	<path fill-rule="evenodd" clip-rule="evenodd" d="M113.053,138.558c0.56-1.063,1.277-2.215,2.402-3.004
		c4.004-2.803,5.244-9.1,2.343-13.621c-2.252-3.512-4.76-6.791-7.728-9.744c-3.005-2.99-5.448-6.432-7.078-10.365
		c-1.935-4.666-1.464-9.217,1.002-13.586c0.16-0.285,0.407-0.52,0.744-0.943c-0.317,1.332-0.643,2.426-0.833,3.543
		c-0.66,3.865-0.215,7.584,2.386,10.639c1.536,1.803,3.444,3.324,5.334,4.779c2.602,2.006,5.482,3.59,8.536,4.814
		c1.479,0.592,3.039,0.979,4.54,1.521c1.882,0.68,3.723,1.449,5.218,2.855c1.894,1.781,2.917,3.955,3.096,6.549
		c0.218,3.178-0.69,6.096-2.047,8.928c0.068-0.68,0.161-1.359,0.198-2.041c0.037-0.689,0.059-1.387,0.019-2.076
		c-0.165-2.838-0.769-5.537-2.586-7.834c-1.45-1.834-3.415-2.844-5.598-3.498c-0.654-0.195-1.29-0.162-1.684,0.512
		c-0.401,0.686-0.074,1.24,0.412,1.709c0.399,0.387,0.828,0.752,1.284,1.068c1.402,0.973,2.584,2.135,3.341,3.688
		c1.327,2.729,0.992,5.275-1.19,7.379c-1.354,1.307-2.853,2.486-4.393,3.57C118.213,135.204,115.568,136.886,113.053,138.558z"/>
	<path fill-rule="evenodd" clip-rule="evenodd" d="M70.602,130.524c-0.982-1.852-1.628-3.805-1.9-5.867
		c-0.748-5.676,1.584-9.668,6.936-11.775c2.128-0.836,4.357-1.424,6.454-2.326c4.79-2.064,9.111-4.881,12.739-8.656
		c1.973-2.055,2.895-4.625,3.11-7.445c0.188-2.453-0.258-4.818-0.908-7.23c0.298,0.418,0.656,0.805,0.886,1.258
		c2.532,4.99,2.531,9.979-0.123,14.92c-1.824,3.4-4.085,6.477-6.854,9.186c-3.087,3.02-5.738,6.416-7.71,10.24
		c-2.049,3.975-1.086,9.396,2.684,12.287c1.123,0.859,1.958,1.922,2.524,3.244c-0.79-0.584-1.568-1.186-2.374-1.748
		c-2.814-1.967-5.683-3.859-8.439-5.904c-1.247-0.924-2.437-2.033-2.846-3.652c-0.781-3.084,0.37-5.531,2.616-7.57
		c0.549-0.498,1.2-0.883,1.774-1.354c0.367-0.303,0.704-0.65,1.011-1.016c0.365-0.434,0.434-0.998,0.058-1.389
		c-0.288-0.301-0.843-0.592-1.209-0.521c-0.875,0.17-1.741,0.486-2.555,0.863c-3.297,1.527-4.979,4.281-5.707,7.717
		c-0.431,2.027-0.438,4.072-0.208,6.123C70.583,130.112,70.589,130.319,70.602,130.524z"/>
	<path fill-rule="evenodd" clip-rule="evenodd" d="M94.082,138.47c-2.708-3.861-4.977-7.881-4.291-12.881
		c0.432-3.15,2.057-5.652,4.589-7.486c1.699-1.23,2.759-2.854,3.577-4.691c1.453-3.268,2.125-6.738,2.574-10.262
		c0.054-0.418,0.118-0.836,0.043-1.211c0.619,2.875,1.111,5.783,1.902,8.607c0.489,1.746,1.33,3.42,2.215,5.014
		c0.496,0.895,1.311,1.689,2.146,2.305c4.241,3.117,5.917,7.998,4.421,13.166c-0.704,2.428-2.649,6.039-4.121,7.596
		c0.173-1.096,0.374-2.113,0.485-3.139c0.186-1.715,0.127-3.414-0.683-4.992c-0.229-0.443-0.49-0.906-0.847-1.244
		c-2.633-2.49-4.596-5.367-5.328-9.092c-0.301,0.961-0.518,1.838-0.848,2.668c-0.91,2.285-2.29,4.277-4.087,5.941
		c-1.346,1.246-1.992,2.775-2.007,4.531c-0.013,1.453,0.216,2.908,0.347,4.363c0.023,0.258,0.084,0.512,0.128,0.768
		C94.226,138.444,94.153,138.456,94.082,138.47z"/>
	<path fill-rule="evenodd" clip-rule="evenodd" d="M121.026,79.042c-2.778,0.766-5.429,1.764-7.766,3.471
		c-2.823,2.064-4.545,4.77-4.646,8.334c-0.07,2.49,1.061,4.586,2.449,6.537c2.405,3.385,5.632,5.854,9.121,8.014
		c0.431,0.266,0.865,0.523,1.296,0.791c0.04,0.025,0.062,0.082,0.138,0.189c-1.66,0.617-3.363,0.721-5.028,0.377
		c-4.699-0.975-7.818-3.811-9.3-8.371c-1.176-3.621-1.176-7.283-0.065-10.928c1.381-4.531,5.733-8.031,10.469-8.4
		C118.799,78.97,119.915,79.042,121.026,79.042z"/>
	<path fill-rule="evenodd" clip-rule="evenodd" d="M80.674,77.882c4.442-0.367,8.257,0.793,11.27,4.143
		c2.653,2.949,3.287,6.539,3.217,10.332c-0.047,2.455-0.582,4.824-1.704,7.008c-2.038,3.963-7.167,7.736-13.245,5.965
		c-0.071-0.02-0.133-0.078-0.288-0.174c0.673-0.41,1.307-0.777,1.925-1.172c3.529-2.25,6.764-4.82,9.12-8.355
		c2.11-3.168,2.773-6.49,1.038-10.037c-1.338-2.732-3.592-4.533-6.288-5.773C84.107,79.077,82.405,78.538,80.674,77.882z"/>
	<path fill-rule="evenodd" clip-rule="evenodd" d="M132.503,73.118c0.504-1.217,1.344-2.154,2.319-2.973
		c2.66-2.229,5.831-3.24,9.194-3.709c1.717-0.24,3.457-0.316,5.22-0.352c-1.061,1.496-2.36,2.646-3.796,3.644
		c-2.801,1.948-5.885,3.019-9.323,3.063C134.931,72.81,133.747,73.001,132.503,73.118z"/>
	<path fill-rule="evenodd" clip-rule="evenodd" d="M52.22,65.963c1.774,0.153,3.519,0.231,5.241,0.469
		c3.146,0.434,6.135,1.357,8.709,3.312c1.189,0.903,2.203,1.967,2.915,3.547c-2.947-0.443-5.78-0.637-8.482-1.334
		c-3.384-0.873-6.061-3.031-8.334-5.665C52.241,66.262,52.253,66.197,52.22,65.963z"/>
	<path fill-rule="evenodd" clip-rule="evenodd" d="M102.698,129.968c-0.688,1.207-1.319,2.316-1.799,3.156
		c-0.485-0.844-1.133-1.971-1.81-3.146c0.523-0.857,1.144-1.875,1.801-2.949C101.533,128.073,102.161,129.095,102.698,129.968z"/>
</g>
</svg>
