<?xml version="1.0" encoding="utf-8"?>
<!-- Generator: Adobe Illustrator 16.0.0, SVG Export Plug-In . SVG Version: 6.00 Build 0)  -->
<!DOCTYPE svg PUBLIC "-//W3C//DTD SVG 1.1//EN" "http://www.w3.org/Graphics/SVG/1.1/DTD/svg11.dtd">
<svg version="1.1" id="Layer_1" xmlns="http://www.w3.org/2000/svg" xmlns:xlink="http://www.w3.org/1999/xlink" x="0px" y="0px"
	 width="600px" height="139.705px" viewBox="0 0 600 139.705" enable-background="new 0 0 600 139.705" xml:space="preserve">
<g>
	<path fill="#FFFFFF" d="M315.41,2.147c1.32,0.896,2.925,1.558,3.896,2.739c1.678,2.041,1.154,4.636-1.021,7.348
		c0.704,0.79,1.542,1.5,2.091,2.389c1.775,2.876,0.608,6.421-2.51,7.722c-0.845,0.353-1.779,0.666-2.679,0.679
		c-5.57,0.082-11.146,0.074-16.719,0.095c-0.761,0.002-1.523,0-2.571,0c0-7.102,0-14.037,0-20.972
		C302.401,2.147,308.905,2.147,315.41,2.147z M300.095,19.302c4.839,0,9.463,0.003,14.085-0.01c0.302,0,0.722-0.024,0.881-0.212
		c0.646-0.759,1.633-1.569,1.665-2.394c0.026-0.644-1.147-1.898-1.821-1.921c-4.902-0.167-9.813-0.09-14.81-0.09
		C300.095,16.233,300.095,17.606,300.095,19.302z M300.134,10.562c4.654,0,9.125,0.12,13.579-0.103
		c0.869-0.043,1.672-1.414,2.506-2.171c-0.71-0.773-1.391-2.182-2.135-2.214c-4.604-0.207-9.219-0.104-13.95-0.104
		C300.134,7.552,300.134,8.91,300.134,10.562z"/>
	<path fill="#FFFFFF" d="M256.872,2.147c3.214,1.278,5.29,3.319,5.141,7.098c-0.129,3.262-2.011,5.023-5.03,6.135
		c1.759,2.504,3.426,4.876,5.136,7.309c-3.729,0.971-4.575,0.949-6.208-2.108c-2.263-4.237-5.428-5.905-10.094-5.099
		c-1.124,0.194-2.31,0.029-3.839,0.029c0,2.53,0,4.946,0,7.479c-1.571,0-2.773,0-4.154,0c0-6.994,0-13.917,0-20.842
		C244.173,2.147,250.522,2.147,256.872,2.147z M242.024,11.567c4.492,0,8.861,0.063,13.229-0.034
		c1.493-0.034,2.401-1.046,2.401-2.598c0-1.601-0.86-2.823-2.437-2.872c-4.367-0.136-8.74-0.047-13.192-0.047
		C242.024,7.994,242.024,9.737,242.024,11.567z"/>
	<path fill="#FFFFFF" d="M391.139,2.147c0,6.866,0,13.732,0,20.724c-3.625,0.446-6.543,0.749-8.947-2.684
		c-3.354-4.789-7.314-9.154-11.473-14.26c0,6.059,0,11.466,0,17.03c-1.52,0-2.713,0-4.203,0c0-6.948,0-13.879,0-20.811
		c2.168,0,4.336,0,6.503,0c1.32,1.769,2.589,3.579,3.968,5.299c3.063,3.821,6.183,7.597,9.277,11.392
		c0.484-1.277,0.472-2.401,0.487-3.525c0.064-4.389,0.137-8.778,0.206-13.166C388.352,2.147,389.745,2.147,391.139,2.147z"/>
	<path fill="#FFFFFF" d="M222.957,2.147c1.859,3.615,3.69,7.245,5.588,10.841c1.72,3.26,3.513,6.48,5.299,9.764
		c-3.907,0.899-4.259,0.818-5.909-2.457c-0.629-1.249-1.405-1.601-2.707-1.573c-3.397,0.07-6.798,0.073-10.194,0.002
		c-1.364-0.028-2.463,0.172-2.881,1.645c-0.873,3.081-3.155,3.052-5.943,2.542c3.753-6.975,7.463-13.869,11.173-20.763
		C219.24,2.147,221.098,2.147,222.957,2.147z M215.241,14.807c3.477,0,6.428,0,9.647,0c-1.633-3.023-3.113-5.765-4.824-8.932
		C218.361,9.029,216.864,11.801,215.241,14.807z"/>
	<path fill="#FFFFFF" d="M351.648,2.147c3.329,6.27,6.662,12.539,9.99,18.81c0.315,0.595,0.6,1.207,0.916,1.849
		c-3.973,0.781-4.151,0.769-5.773-2.362c-0.657-1.268-1.41-1.777-2.857-1.731c-3.399,0.108-6.809,0.107-10.209,0.01
		c-1.434-0.041-2.227,0.446-2.876,1.72c-1.572,3.079-1.879,3.15-5.754,2.343c3.678-6.907,7.333-13.772,10.988-20.638
		C347.932,2.147,349.79,2.147,351.648,2.147z M353.699,14.922c-1.664-3.119-3.153-5.911-4.855-9.104
		c-1.75,3.26-3.243,6.046-4.885,9.104C347.362,14.922,350.279,14.922,353.699,14.922z"/>
	<path fill="#FFFFFF" d="M281.03,2.147c2.727,5.172,5.449,10.347,8.183,15.516c0.894,1.69,1.816,3.365,2.742,5.078
		c-3.777,0.921-4.165,0.808-5.875-2.433c-0.628-1.189-1.384-1.625-2.717-1.59c-3.474,0.088-6.956-0.06-10.424,0.101
		c-0.875,0.041-2.216,0.698-2.48,1.397c-1.114,2.961-3.18,3.393-6.096,2.652c3.706-6.923,7.399-13.823,11.092-20.722
		C277.313,2.147,279.172,2.147,281.03,2.147z M283.08,14.929c-1.7-3.139-3.206-5.919-4.914-9.073
		c-1.733,3.237-3.222,6.019-4.856,9.073C276.729,14.929,279.638,14.929,283.08,14.929z"/>
	<path fill="#FFFFFF" d="M331.206,2.147c0,6.852,0,13.703,0,20.761c-1.395,0-2.637,0-4.182,0c0-6.936,0-13.848,0-20.761
		C328.419,2.147,329.813,2.147,331.206,2.147z"/>
	<path fill="#FFFFFF" d="M74.305,84.584c0,13.685,0,27.065,0,40.729c-3.356,0.689-6.646,1.442-9.964,2.033
		c-8.44,1.504-15.899,5.434-23.38,9.321c-1.056,0.549-2.415,1.681-3.12,0.021c-0.383-0.9,0.024-2.754,0.758-3.395
		c1.775-1.548,3.839-2.884,5.99-3.857c4.784-2.168,9.176-4.842,12.679-8.785c0.696-0.781,1.303-1.984,1.306-2.996
		c0.072-25.618,0.039-51.237,0.102-76.855c0.005-1.715-0.694-2.282-2.155-2.646c-2.922-0.73-5.835-1.515-8.706-2.426
		c-1.001-0.318-1.865-1.073-3.299-1.931c1.356-0.502,2.023-0.748,2.872-1.062c-3.979-1.388-7.814-2.657-11.594-4.074
		c-1.728-0.648-3.388-1.514-4.993-2.432c-0.598-0.341-0.949-1.112-1.413-1.688c0.127-0.225,0.255-0.45,0.383-0.675
		c2.786,0.321,5.572,0.643,8.358,0.964c-0.058,0.125-0.116,0.25-0.174,0.375c-8.773-3.342-17.565-6.634-26.305-10.06
		c-2.509-0.983-4.917-2.265-7.259-3.606c-0.656-0.376-0.91-1.454-1.348-2.21c0.21-0.173,0.42-0.346,0.63-0.52
		c4.96,1.104,9.915,2.227,14.88,3.307c21.449,4.67,42.903,9.321,64.352,13.993c4.905,1.068,9.939,1.767,14.668,3.367
		c15.322,5.184,22.833,18.877,19.873,34.795c-2.353,12.65-12.912,18.614-23.43,19.517c-5.389,0.463-10.82,0.438-16.231,0.637
		C76.718,84.466,75.65,84.522,74.305,84.584z M74.296,69.084c5.023,0,9.792,0.009,14.563-0.007c1.158-0.004,2.333,0.015,3.47-0.163
		c3.334-0.523,6.183-1.919,8.083-4.859c5.136-7.946,0.171-19.824-9.108-21.582c-3.943-0.747-7.945-1.187-11.922-1.741
		c-1.634-0.228-3.275-0.393-5.085-0.606c0,0.816,0,1.27,0,1.724C74.296,50.656,74.296,59.463,74.296,69.084z"/>
	<path fill="#FFFFFF" d="M510.054,57.596c1.925-4.268,3.716-8.102,5.392-11.985c2.695-6.249,5.374-12.507,7.929-18.813
		c0.635-1.564,1.552-2.193,3.149-2.544c20.394-4.473,40.769-9.022,61.151-13.542c2.927-0.649,5.868-1.242,8.769-1.854
		c1.028,1.46,0.385,2.227-0.822,2.854c-9.915,5.147-20.245,9.244-31.02,12.216c-0.861,0.238-1.727,0.474-2.55,0.915
		c2.736-0.328,5.476-0.655,8.213-0.982c0.161,0.21,0.321,0.42,0.481,0.63c-0.537,0.63-0.95,1.559-1.633,1.842
		c-4.63,1.917-9.314,3.705-13.989,5.517c-0.69,0.268-1.418,0.442-2.606,0.807c1.064,0.36,1.68,0.568,3.161,1.069
		c-1.524,0.908-2.458,1.743-3.541,2.061c-6.083,1.781-12.189,3.483-18.315,5.107c-1.57,0.416-2.424,1.208-3.073,2.711
		c-4.014,9.302-8.172,18.541-12.182,27.844c-0.361,0.838-0.309,2.118,0.064,2.968c5.237,11.889,10.513,23.761,15.884,35.59
		c3.836,8.445,10.107,14.465,18.533,18.381c2.623,1.219,5.055,2.935,7.351,4.713c0.604,0.467,0.372,2.008,0.525,3.057
		c-0.96,0.051-2.155,0.501-2.846,0.093c-9.59-5.665-19.924-9.147-30.912-10.726c-1.92-0.274-2.871-1.181-3.58-2.973
		c-4.206-10.641-8.54-21.232-12.843-31.834c-0.315-0.773-0.729-1.511-1.274-2.631c-1.242,2.555-2.296,4.811-3.425,7.026
		c-3.789,7.444-7.62,14.866-11.393,22.319c-0.635,1.25-1.27,1.795-2.849,1.482c-4.389-0.863-8.828-1.473-13.521-2.229
		c0.309-0.723,0.487-1.275,0.767-1.775c7.266-13.035,14.564-26.053,21.757-39.128c0.445-0.812,0.438-2.287-0.004-3.106
		c-6.778-12.596-13.666-25.135-20.524-37.688c-0.325-0.595-0.618-1.207-1.056-2.064c5.458-0.919,10.684-1.856,15.937-2.598
		c0.546-0.078,1.5,0.879,1.853,1.567c4.085,7.985,8.09,16.01,12.12,24.023C509.337,56.325,509.571,56.722,510.054,57.596z"/>
	<path fill="#FFFFFF" d="M132.08,115.146c0-1.19,0-1.955,0-2.72c0-20.905,0.02-41.813-0.054-62.717
		c-0.003-0.975-0.586-2.234-1.323-2.873c-3.859-3.344-7.813-6.583-11.827-9.74c-1.317-1.036-1.674-2.103-1.094-3.593
		c0.627-1.611,1.934-1.258,3.147-1.063c8.32,1.345,16.628,2.773,24.965,4.01c1.74,0.258,2.116,0.906,2.103,2.511
		c-0.069,8.439-0.035,16.879-0.037,25.318c0,0.843,0,1.685,0,2.815c10.83,0.245,21.455,0.485,32.351,0.732
		c0-9.172,0-18.034,0-27.127c5.335,0.549,10.387,1.069,15.681,1.614c0.048,0.891,0.131,1.707,0.131,2.522
		c0.007,20.054-0.025,40.107,0.053,60.161c0.007,2.03-0.572,2.604-2.574,2.723c-4.313,0.251-8.606,0.832-13.195,1.31
		c0-9.912,0-19.621,0-29.523c-4.416,0-8.564-0.033-12.712,0.01c-5.728,0.06-11.455,0.26-17.18,0.223
		c-2.055-0.014-2.621,0.646-2.599,2.669c0.102,9.368,0.007,18.737,0.085,28.106c0.014,1.764-0.322,2.596-2.303,2.79
		C141.256,113.742,136.842,114.479,132.08,115.146z"/>
	<path fill="#FFFFFF" d="M379.107,61.141c0,14.662,0,29.262,0,44.196c-4.675-0.299-9.423-0.604-14.349-0.917
		c0-19.703,0-39.313,0-59.185c5.396-0.324,10.772-0.697,16.16-0.899c0.64-0.024,1.442,0.783,1.953,1.388
		c11.577,13.734,22.781,27.745,31.563,43.509c0.107,0.192,0.305,0.339,0.107,0.125c-0.119-14.486-0.241-29.338-0.362-44.189
		c-0.006-0.774,0.039-1.55,0-2.322c-0.058-1.154,0.416-1.573,1.604-1.701c7.999-0.867,15.984-1.844,23.979-2.734
		c2.18-0.242,3.201,0.69,2.892,2.694c-0.109,0.712-0.745,1.486-1.354,1.951c-3.445,2.624-6.932,5.199-10.461,7.71
		c-1.246,0.886-1.744,1.867-1.737,3.45c0.063,17.573,0.04,35.146,0.041,52.72c0,0.914,0,1.83,0,2.972
		c-4.897-0.493-9.569-0.927-14.225-1.481c-0.551-0.064-1.117-0.734-1.509-1.254c-10.031-13.267-20.049-26.54-30.039-39.838
		C381.857,65.313,380.501,63.172,379.107,61.141z"/>
	<path fill="#FFFFFF" d="M264.633,49.188c8.49,4.063,13.832,10.787,15.452,19.911c2.864,16.126-5.492,28.498-19.855,32.998
		c-9.806,3.072-19.734,3.487-29.772,1.351c-8.147-1.734-13.756-6.58-17.375-14.003c-5.585-11.453-3.572-26.862,4.937-36.253
		c4.633-5.114,10.794-7.33,17.378-7.737c9.096-0.563,18.236-0.406,27.358-0.586c1.433-0.028,1.924,0.802,2.007,2.001
		C264.814,47.622,264.685,48.39,264.633,49.188z M264.374,74.823c0.013-3.777-0.521-8.261-3.044-12.14
		c-4.76-7.315-12.051-8.49-19.991-7.753c-6.836,0.634-11.555,4.123-13.705,10.701c-1.845,5.644-2.083,11.466-0.34,17.125
		c0.859,2.786,2.282,5.679,4.237,7.797c5.552,6.013,19.252,6.19,26.195,0.642C262.717,87.206,264.458,81.771,264.374,74.823z"/>
	<path fill="#FFFFFF" d="M339.299,78.342c-9.576,0-18.912,0-28.382,0c0,4.987,0,9.817,0,14.82
		c13.515,0.272,26.942,0.545,40.58,0.819c0,3.307,0,6.414,0,9.627c-18.795-0.422-37.541-0.844-56.638-1.275c0-0.846,0-1.738,0-2.632
		c-0.001-13.466-0.032-26.931,0.035-40.396c0.009-1.759-0.41-2.833-2.09-3.627c-2.37-1.12-4.561-2.61-6.884-3.837
		c-1.408-0.744-1.798-1.82-1.497-3.267c0.32-1.536,1.507-1.496,2.713-1.508c16.167-0.161,32.334-0.312,48.501-0.529
		c4.175-0.056,8.343-0.34,12.514-0.503c0.521-0.02,1.045,0.064,1.706,0.109c0,3.101,0,6.08,0,9.625c-12.973,0-25.853,0-38.899,0
		c0,4.774,0,8.987,0,13.398c9.377,0,18.771,0,28.341,0C339.299,72.244,339.299,75.131,339.299,78.342z"/>
	<path fill="#FFFFFF" d="M449.819,37.262c7.727-1.151,15.283-2.311,22.856-3.344c0.598-0.081,1.786,0.638,1.868,1.125
		c0.14,0.826-0.104,2.075-0.683,2.598c-2.003,1.812-4.164,3.466-6.376,5.023c-1.466,1.032-2.03,2.192-2.024,4.033
		c0.068,21.755,0.044,43.509,0.044,65.265c0,0.834,0,1.669,0,2.711c-5.368-0.727-10.469-1.418-15.687-2.124
		C449.819,87.435,449.819,62.458,449.819,37.262z"/>
</g>
</svg>
