<?xml version="1.0" encoding="utf-8"?>
<!-- Generator: Adobe Illustrator 21.0.0, SVG Export Plug-In . SVG Version: 6.00 Build 0)  -->
<svg version="1.1" id="Layer_1" xmlns="http://www.w3.org/2000/svg" xmlns:xlink="http://www.w3.org/1999/xlink" x="0px" y="0px"
	 viewBox="0 0 500 500" style="enable-background:new 0 0 500 500;" xml:space="preserve">
<style type="text/css">
	.st0{fill:#EA2E49;}
</style>
<g>
	<path class="st0" d="M140.8,184L140.8,184c-0.3-1.6-0.8-3.6-1.4-5.7c-0.7-2.2-1.6-4.4-2.7-6.8c-1.4-2.7-3.2-5.6-5.6-8.6
		c-2.4-3.1-5.5-5.9-9.2-8.5c-3.8-2.6-8.4-4.7-13.7-6.4c-5.4-1.7-11.7-2.5-18.9-2.5c-7.5,0-14.9,1.1-22.1,3.3
		c-7.2,2.2-14,5.3-20.5,9.1c-6.4,3.9-12.4,8.5-17.8,13.8c-5.4,5.3-10.2,11.1-14.1,17.4c-4,6.3-7.1,13-9.3,19.9
		c-2.2,7-3.4,14.1-3.4,21.3c0,6.8,1,12.9,2.9,18.2c1.9,5.3,4.7,9.8,8.4,13.4c3.6,3.6,8,6.4,13,8.2c5,1.8,10.6,2.8,16.7,2.8
		c6.7,0,13.5-1,20.2-3.1c6.7-2,13.4-5.1,19.7-9.1c6.3-4,12.5-9,18.3-14.9c4.8-4.8,9.3-10.4,13.4-16.5c0.1,3.5,0.4,7.2,0.7,10.8
		c0.4,5,1,10.1,1.6,15.3c-2.4,1.3-5,2.9-7.8,4.8c-3.1,2.2-6.4,4.7-9.6,7.5c-3.2,2.8-6.4,6-9.4,9.3c-3.1,3.4-5.8,7-8.2,10.8
		c-2.4,3.8-4.3,7.8-5.8,11.9c-1.5,4.2-2.2,8.4-2.2,12.7c0,3.1,0.5,6,1.6,8.6c1.1,2.6,2.6,4.9,4.5,6.8c1.9,1.9,4.2,3.4,6.8,4.5
		c2.6,1.1,5.4,1.6,8.5,1.6c6.1,0,11.3-1.6,15.5-4.7c4.1-3.1,7.5-7.3,10-12.5c2.4-5.1,4.2-11.1,5.3-17.8c1.1-6.7,1.6-13.7,1.6-21
		c0-3.1-0.1-6.2-0.3-9.2c-0.1-2.7-0.3-5.4-0.6-8c2.5-1.2,4.5-2.2,6.1-2.8c2.1-0.8,2.7-1,2.9-1.1c0.9-0.3,1.7-0.9,2.2-1.6
		c0.6-0.8,0.9-1.7,0.9-2.7c0-1.3-0.5-2.5-1.4-3.4c-0.9-0.8-2-1.3-3.2-1.3c0,0-0.1,0-0.2,0c-0.4-0.1-0.9,0-1.8,0.3
		c-0.6,0.2-1.6,0.6-3,1.1c-1,0.4-2.2,0.9-3.6,1.6c-0.6-5-1.1-9.8-1.4-14.4c-0.4-5.1-0.5-9.9-0.5-14.2c0-2.8,0.1-5.5,0.2-7.9
		c1.9-3.6,3.3-6.9,4.2-9.7c1-3,1.5-5.4,1.5-7.4c0-2-0.5-3.7-1.6-5c-1.1-1.4-2.6-2.1-4.3-2.1c-3,0-5.2,2.1-6.5,6.4
		c-1.1,3.6-1.9,8.8-2.4,15.4c-3.9,6.9-8.3,13.5-13.2,19.8c-4.9,6.3-10.4,11.9-16.4,16.6c-5.9,4.7-12.5,8.5-19.4,11.3
		c-6.9,2.7-14.5,4.1-22.4,4.1c-4.6,0-8.9-0.6-12.8-1.9c-3.9-1.2-7.3-3.2-10.1-5.8c-2.8-2.6-5.1-6.1-6.7-10.3
		c-1.6-4.2-2.5-9.4-2.5-15.4c0-6.7,1.1-13.3,3.2-19.6c2.1-6.3,5.1-12.4,8.7-18c3.7-5.6,8.1-10.8,13.1-15.4c5-4.7,10.5-8.7,16.2-12.1
		c5.8-3.4,11.9-6,18.1-7.9c6.2-1.8,12.5-2.8,18.7-2.8c6.9,0,12.9,0.9,17.7,2.6c4.8,1.7,8.9,3.8,12,6.4c3.1,2.5,5.6,5.3,7.4,8.2
		c1.8,3,3.2,5.8,4,8.5c0.9,2.6,1.4,4.8,1.6,6.6c0.2,2.4,0.3,3,0.4,3.2c0.2,1.3,0.7,2.3,1.5,3.1c0.9,0.8,1.9,1.2,3.1,1.2
		c1.3,0,2.5-0.5,3.3-1.5c0.8-0.9,1.2-2,1.2-3.2c0-0.1,0-0.1-0.1-1.7C141.3,187,141.2,185.7,140.8,184z M103.1,276.7
		c2.7-2.5,5.6-4.8,8.4-6.9c2.2-1.6,4.3-3,6.4-4.2c0.1,1.7,0.2,3.5,0.3,5.1c0.1,2.4,0.2,4.8,0.2,7.2c0,15.5-2.1,27.4-6.3,35.3
		c-4.1,7.8-9.6,11.5-16.8,11.5c-1.8,0-3.4-0.3-4.9-0.9c-1.5-0.6-2.7-1.4-3.8-2.4c-1.1-1-1.9-2.3-2.5-3.8c-0.6-1.5-0.9-3.2-0.9-5.1
		c0-3.2,0.5-6.4,1.5-9.6c1-3.2,2.5-6.4,4.3-9.4c1.8-3,4-6,6.4-8.9C97.8,281.9,100.4,279.2,103.1,276.7z"/>
	<path class="st0" d="M265.5,213.2c2.5,0,4.6-0.9,6.4-2.6c1.7-1.7,2.6-3.9,2.6-6.4c0-1.2-0.2-2.4-0.7-3.5c-0.5-1.1-1.1-2-1.9-2.9
		c-0.8-0.8-1.8-1.5-2.9-1.9c-2.2-0.9-4.8-0.9-7,0c-1.1,0.5-2,1.1-2.9,1.9c-0.8,0.8-1.5,1.8-1.9,2.9c-0.5,1.1-0.7,2.3-0.7,3.5
		c0,2.5,0.9,4.6,2.6,6.4C260.9,212.4,263,213.2,265.5,213.2z M264.2,204.2c0-0.4,0.1-0.7,0.4-1l0,0c0.3-0.3,0.5-0.4,0.9-0.4
		c0.4,0,0.7,0.1,1,0.4c0.3,0.3,0.4,0.6,0.4,1c0,0.4-0.1,0.6-0.4,0.9c-0.3,0.3-0.6,0.4-1,0.4c-0.4,0-0.7-0.1-0.9-0.4
		C264.3,204.9,264.2,204.6,264.2,204.2z"/>
	<path class="st0" d="M411.1,213.2c2.5,0,4.6-0.9,6.4-2.6c1.7-1.7,2.6-3.9,2.6-6.4c0-1.2-0.2-2.4-0.7-3.5c-0.5-1.1-1.1-2-1.9-2.9
		c-0.8-0.8-1.8-1.5-2.9-1.9c-2.2-0.9-4.8-0.9-7,0c-1.1,0.5-2,1.1-2.9,1.9c-0.8,0.8-1.5,1.8-1.9,2.9c-0.5,1.1-0.7,2.3-0.7,3.5
		c0,2.5,0.9,4.6,2.6,6.4C406.5,212.4,408.6,213.2,411.1,213.2z M409.7,204.2c0-0.4,0.1-0.7,0.4-1c0.3-0.3,0.6-0.4,1-0.4
		c0.4,0,0.6,0.1,0.9,0.4c0.3,0.3,0.4,0.6,0.4,1c0,0.4-0.1,0.7-0.4,0.9c-0.3,0.3-0.5,0.4-0.9,0.4c-0.4,0-0.7-0.1-1-0.4
		C409.8,204.9,409.7,204.6,409.7,204.2z"/>
	<path class="st0" d="M496.8,241.7L496.8,241.7c-0.9-1-2-1.6-3.4-1.6c-0.9,0-1.7,0.2-2.5,0.7c-0.8,0.5-1.4,1.2-1.8,2
		c-0.5,1-1.1,2.3-1.8,3.7c-0.7,1.4-1.5,2.8-2.4,4.3c-0.9,1.5-1.9,3-3,4.5c-1.1,1.4-2.2,2.7-3.4,3.9c-1.1,1.1-2.3,2-3.5,2.6
		c-1.1,0.6-2.1,0.9-3.2,0.9c-1.6,0-2.8-0.5-3.6-1.5c-1-1.2-1.8-2.7-2.3-4.4c-0.5-1.8-0.9-3.6-1.1-5.3c-0.2-1.9-0.3-3.4-0.3-4.4
		c-0.1-1.1-0.5-2.1-1.4-3c-0.9-0.9-1.9-1.4-3.1-1.4c-1.2,0-2.2,0.4-3.1,1.1c-0.9,0.8-1.4,1.7-1.6,2.9c-0.4,2.7-1,5.1-1.9,7
		c-0.9,2-1.9,3.6-3,4.9c-1,1.2-2.1,2.1-3.3,2.7c-1.1,0.5-2,0.8-2.7,0.8c-1.1,0-2-0.2-2.7-0.6c-0.7-0.4-1.3-1-1.7-1.7
		c-0.5-0.7-0.8-1.5-1-2.4c-0.2-1-0.3-1.9-0.3-2.9c0-3.1,0.5-5.9,1.5-8.1c1-2.3,2.2-4.2,3.7-5.7c1.4-1.5,3-2.6,4.8-3.3
		c1.7-0.7,3.4-1,4.9-1c1,0,1.9,0.1,2.7,0.3c0.8,0.2,1.5,0.5,2.1,0.8c0.6,0.3,1,0.5,1.3,0.8c0.3,0.3,0.5,0.4,0.6,0.5
		c0.9,0.9,2,1.3,3.3,1.3c1.2,0,2.3-0.5,3.2-1.4c0.9-0.9,1.3-2,1.3-3.2c0-1.1-0.4-2.2-1.3-3.2l-0.1-0.1c-0.1-0.1-0.4-0.3-1-0.9
		c-0.6-0.5-1.5-1.1-2.6-1.7c-1.1-0.6-2.4-1.1-3.9-1.6c-1.6-0.5-3.3-0.8-5.2-0.8c-2.7,0-5.5,0.6-8.4,1.8c-2.9,1.2-5.6,2.9-8,5.3
		c-1.8,1.8-3.4,3.9-4.8,6.5c-0.8,0.5-1.4,1.2-1.8,2.1c-0.9,2.1-2.2,4.3-3.7,6.6c-1.6,2.4-3.4,4.8-5.4,7.2c-2,2.4-4,4.9-6.2,7.3
		c-1.2,1.4-2.4,2.8-3.7,4.1c0-5.5,0.1-10.3,0.3-14.5c0.2-5.2,0.4-9.6,0.6-13c0.2-3.5,0.4-6.1,0.6-7.9c0.3-2.5,0.3-3.1,0.3-3.4
		c0-1.3-0.5-2.4-1.3-3.3c-0.9-0.9-2-1.3-3.2-1.3c-1.2,0-2.2,0.4-3.1,1.1c-0.9,0.7-1.4,1.7-1.5,2.9c-0.3,2.9-0.6,6.3-0.9,10.1
		c-0.1,1-0.1,2-0.2,3c-0.3,0.4-0.6,0.8-0.8,1.2c-0.5,1-1.1,2.3-1.8,3.7c-0.7,1.4-1.5,2.8-2.4,4.4c-0.9,1.5-1.9,3-3,4.5
		c-1.1,1.4-2.2,2.7-3.4,3.9c-1.1,1.1-2.3,2-3.5,2.6c-1.1,0.6-2.1,0.9-3.2,0.9c-1.6,0-2.8-0.5-3.6-1.5c-1-1.2-1.8-2.7-2.3-4.4
		c-0.5-1.8-0.9-3.6-1.1-5.3c-0.2-1.9-0.3-3.4-0.3-4.4c-0.1-1.1-0.5-2.1-1.4-3c-0.9-0.9-1.9-1.4-3.1-1.4c-1.2,0-2.2,0.4-3.1,1.1
		c-0.9,0.8-1.4,1.7-1.6,2.9c-0.4,2.7-1,5.1-1.9,7c-0.9,2-1.9,3.6-3,4.8c-1.1,1.2-2.1,2.1-3.3,2.7c-1.1,0.5-2,0.8-2.7,0.8
		c-1.1,0-2-0.2-2.7-0.6c-0.7-0.4-1.3-1-1.7-1.7c-0.5-0.7-0.8-1.5-1-2.4c-0.2-1-0.3-1.9-0.3-2.9c0-3.1,0.5-5.9,1.5-8.1
		c1-2.3,2.2-4.2,3.7-5.7c1.4-1.5,3-2.6,4.8-3.3c1.7-0.7,3.4-1,4.9-1c1,0,1.9,0.1,2.7,0.3c0.8,0.2,1.5,0.5,2.1,0.8
		c0.6,0.3,1,0.5,1.3,0.8c0.3,0.3,0.5,0.4,0.6,0.5c0.9,0.9,2,1.3,3.3,1.3c1.2,0,2.3-0.5,3.2-1.4c0.9-0.9,1.3-2,1.3-3.2
		c0-1.1-0.4-2.2-1.3-3.2l-0.1-0.1c-0.1-0.1-0.4-0.3-1-0.9c-0.6-0.5-1.5-1.1-2.6-1.7c-1.1-0.6-2.4-1.1-3.9-1.6
		c-1.6-0.5-3.3-0.8-5.2-0.8c-2.7,0-5.5,0.6-8.4,1.8c-2.9,1.2-5.6,2.9-8,5.3c-1.8,1.8-3.4,4-4.8,6.5c-0.7,0.4-1.3,1-1.7,1.7
		c-0.9,1.8-2.1,3.9-3.5,6.3c-1.4,2.3-2.9,4.6-4.6,6.7c-1.7,2.1-3.5,3.9-5.5,5.3c-1.8,1.4-3.7,2-5.8,2c-0.6,0-1.3-0.1-2.1-0.4
		c-0.7-0.2-1.4-0.7-2.1-1.3c-0.7-0.6-1.2-1.5-1.7-2.6c-0.5-1.1-0.7-2.6-0.7-4.3c0-1.3,0.1-2.7,0.2-4c0.2-1.4,0.4-2.9,0.6-4.3
		c0.2-1.5,0.4-2.9,0.6-4.3c0.2-1.4,0.3-2.8,0.3-4.1c0-3.6-1-6.2-3-7.9c-1.9-1.6-4.7-2.4-8.1-2.4c-0.8,0-1.7,0-2.6,0
		c-0.4,0-0.8,0-1.3,0c0-0.8-0.1-1.6-0.3-2.6c-0.2-1.6-0.5-3.1-1-4.5c-0.5-1.5-1.2-2.8-2.1-3.9c-1.1-1.3-2.5-1.9-4.2-1.9
		c-1.5,0-3,0.7-4.4,2.1c-1.2,1.2-2.3,2.7-3.2,4.3c-0.9,1.6-1.7,3.3-2.2,5c-0.6,1.8-0.9,3.2-0.9,4.3c0,1.6,0.4,2.9,1.1,3.9
		c0.7,0.9,1.6,1.6,2.7,2c1,0.4,2.1,0.6,3.2,0.7c0.4,0,0.8,0,1.1,0.1c-0.3,1.5-0.6,2.7-0.8,3.5c-0.2,0.8-0.4,1.4-0.6,1.9
		c-0.1,0.2-0.3,0.4-0.4,0.6c-1.7,3.3-3.4,6.4-5.1,9.2c-1.7,2.7-3.4,5-5.1,7c-1.6,1.9-3.3,3.3-4.8,4.4c-1.4,0.9-2.7,1.4-4,1.4
		c-0.8,0-1.6-0.1-2.5-0.4c-0.8-0.2-1.5-0.8-2.2-1.6c-0.8-0.8-1.4-2-1.9-3.6c-0.5-1.6-0.8-3.9-0.8-6.6c0-2.1,0.1-4.5,0.2-7
		c0.1-2.5,0.3-5,0.5-7.2l0.5-5.9c0.2-2.3,0.2-2.9,0.2-3.1c0-1.2-0.4-2.3-1.2-3.2c-0.8-1-1.9-1.5-3.2-1.5c-1.3,0-2.5,0.4-3.3,1.3
		c-0.8,0.8-1.3,1.8-1.5,2.9c-0.5,4.4-1,9-1.2,13.7c-0.1,0.1-0.2,0.3-0.2,0.4c-1.3,2.6-2.8,5.3-4.5,8.1c-1.6,2.7-3.5,5.2-5.6,7.4
		c-2,2.2-4.3,4-6.9,5.3c-1.3,0.7-2.7,1.2-4.2,1.6c1.4-1.6,2.6-3.4,3.7-5.6c1.9-3.8,2.9-8.4,2.9-13.6c0-2.5-0.3-5-0.9-7.2
		c-0.6-2.3-1.5-4.3-2.7-6c-1.2-1.7-2.7-3.1-4.4-4.1c-1.8-1-3.7-1.5-5.9-1.5c-2.3,0-4.3,0.6-6.2,1.8c-1.7,1.1-3.4,2.5-4.9,4.3
		c-1.5,1.7-2.8,3.7-4.1,5.8c-0.3,0.6-0.7,1.1-1,1.7v-19.9c0-1.3-0.5-2.4-1.4-3.3c-0.9-0.8-2-1.3-3.2-1.3c-1.3,0-2.4,0.5-3.3,1.3
		c-0.9,0.9-1.3,2-1.3,3.2c0,0.1,0,0.7-0.1,1.9c-0.1,1.1-0.3,2.7-0.6,4.7c-0.3,2-0.9,4.4-1.6,7.1c-0.5,2.1-1.3,4.3-2.3,6.7
		c-0.5,0.3-0.8,0.7-1,1.2c-0.8,1.7-1.7,3.3-2.6,4.6c-0.9,1.2-1.8,2.3-2.9,3c-1.1,0.8-2.3,1.4-3.6,1.8c-1.3,0.4-2.9,0.6-4.6,0.6h-0.3
		c0.2-1.4,0.4-2.8,0.4-4.1c0-3.5-0.3-6.5-1-9c-0.6-2.6-1.5-4.7-2.6-6.4c-1.2-1.7-2.5-3-4-3.9c-1.5-0.8-3.2-1.3-4.9-1.3
		c-3,0-5.4,1.2-7.2,3.6c-0.5,0.7-0.9,1.4-1.3,2.1c-0.2-0.7-0.5-1.3-1-1.8c-0.8-0.8-1.8-1.2-3.2-1.2c-1.1,0-2.5,0.5-4.4,1.4
		c-1.8,0.9-3.6,2.3-5.3,4.2c-1.7,1.8-3.3,4.2-4.6,6.9c-1.4,2.8-2,6.1-2,9.9c0,2.9,0.5,5.6,1.4,8.1c0.9,2.5,2.3,4.6,4,6.4
		c1.7,1.8,3.8,3.1,6.1,4.1c2.3,1,4.9,1.5,7.7,1.5c2.3,0,4.6-0.3,6.6-1c2-0.6,3.8-1.5,5.5-2.7c1.6-1.1,3.1-2.4,4.3-4
		c1-1.2,1.9-2.5,2.6-3.9c0.9,0.1,1.8,0.2,2.8,0.2c0,0,0,0,0,0c2.7,0,5.3-0.3,7.5-1c2.2-0.7,4.3-1.7,6-2.9c1.8-1.2,3.4-2.6,4.7-4.3
		c0.5-0.7,1.1-1.4,1.6-2.1c0,0.3,0,0.5,0,0.8c0,1.8,0,3.5,0,5.4c-3.5,6.8-6.7,13.9-9.5,21c-2.9,7.3-5.5,14.5-7.6,21.4
		c-2.1,6.9-3.8,13.6-5,19.8c-1.2,6.2-1.8,11.8-1.8,16.5c0,3.8,0.4,6.9,1.1,9.3c0.8,2.4,1.8,4.3,2.9,5.6c1.2,1.4,2.6,2.3,4.1,2.8
		c1.4,0.4,2.6,0.6,3.7,0.6c3.4,0,6.4-1.2,8.7-3.7c2.2-2.3,4.1-5.6,5.6-9.7c1.5-4.1,2.6-9,3.5-14.7c0.8-5.6,1.5-12,2-18.9
		c0.5-6.9,0.8-14.5,1-22.6c0.1-6.3,0.3-12.9,0.4-19.8c0.3,0.5,0.7,1,1.1,1.5c0.6,0.8,1.3,1.5,2.2,2.1c2.2,2,4.8,3.6,7.8,4.5
		c2.9,1,5.9,1.4,9,1.4c4.2,0,8.1-0.9,11.6-2.6c3.4-1.7,6.6-3.9,9.3-6.6c1.7-1.7,3.3-3.5,4.7-5.4c0.1,0.2,0.1,0.5,0.2,0.7
		c0.7,2.6,1.7,4.8,3.1,6.7c1.4,1.9,3.2,3.5,5.2,4.6c2.1,1.2,4.5,1.8,7.2,1.8c2.2,0,4.3-0.5,6.4-1.6c2-1,3.9-2.3,5.7-3.9
		c1.8-1.6,3.4-3.4,5-5.3c1.5-1.9,3-3.9,4.2-5.8c1.3-1.9,2.4-3.9,3.4-5.7c0.9-1.7,1.7-3.1,2.3-4.2c0.1-0.2,0.2-0.3,0.3-0.5
		c0.1-0.2,0.3-0.6,0.5-1.2c0.2-0.6,0.5-1.4,0.8-2.4c0.3-1,0.6-2.2,1-3.5c0.2-1,0.5-2,0.7-3.1c0.6,0,1.1,0,1.7,0h2.5
		c1.6,0,2,0.3,2,0.3c0,0,0,0,0,0c0.2,0.2,0.3,0.7,0.3,1.4c0,2.4-0.3,4.9-0.8,7.5c-0.6,2.8-0.9,5.7-0.9,8.5c0,2.8,0.4,5.3,1.2,7.5
		c0.8,2.2,2,4.1,3.4,5.7c1.4,1.6,3.1,2.8,5.1,3.6c1.9,0.8,4,1.2,6.2,1.2c3.5,0,6.7-0.9,9.6-2.8c2.8-1.8,5.3-4,7.5-6.6
		c0.5-0.5,0.9-1.1,1.4-1.7c0,0.1,0.1,0.2,0.1,0.3c0.7,2,1.7,3.7,3,5.2c1.3,1.5,2.9,2.7,4.7,3.5c1.8,0.8,3.9,1.2,6.1,1.2
		c2.9,0,5.8-1,8.6-3c2-1.5,3.9-3.3,5.5-5.5c1,2.1,2.4,4,4.1,5.6c2.4,2.3,5.5,3.5,9.1,3.5c2.5,0,4.9-0.6,7.1-1.8
		c2.1-1.1,4.2-2.6,6-4.3c1.6-1.5,3.2-3.3,4.6-5.1c0,1.2,0,2.5-0.1,3.7c-0.1,4.5-0.1,9.1-0.1,13.6c-4.4,4.8-8.2,9.7-11.3,14.4
		c-3.2,4.9-5.9,9.6-7.9,14.2c-2,4.6-3.5,9-4.5,13.1c-0.9,4.1-1.4,8-1.4,11.5c0,3.2,0.4,6.1,1.1,8.7c0.7,2.6,1.8,4.8,3.1,6.6
		c1.3,1.8,3,3.3,4.9,4.2c1.9,1,4,1.5,6.3,1.5c6.5,0,11.5-4,14.7-11.9c3-7.5,4.6-19,4.6-34.2c0-3.7,0-7.8-0.1-12.1
		c-0.1-4-0.1-8.2-0.2-12.4c2.1-2.4,4.4-4.9,6.9-7.6c2.7-2.9,5.3-5.9,7.9-9c1.2-1.4,2.3-2.8,3.4-4.2c0.1,0.2,0.1,0.4,0.2,0.5
		c0.7,2,1.7,3.7,3,5.2c1.3,1.5,2.9,2.7,4.7,3.5c1.8,0.8,3.9,1.2,6.1,1.2c2.9,0,5.8-1,8.6-3c2-1.5,3.9-3.3,5.5-5.5
		c1,2.1,2.4,4,4.1,5.6c2.5,2.3,5.5,3.5,9.1,3.5c2.5,0,4.9-0.6,7.1-1.8c2.1-1.1,4.2-2.6,6-4.3c1.8-1.7,3.5-3.6,5-5.7
		c1.4-2,2.7-4,3.8-5.8c1.1-1.8,2-3.5,2.7-4.9c0.7-1.4,1.1-2.3,1.4-2.8c0.2-0.6,0.4-1.2,0.4-1.7C498,243.7,497.6,242.7,496.8,241.7z
		 M403.3,305.6c0,5.9-0.2,10.9-0.6,15.1c-0.4,4.2-0.9,7.7-1.5,10.5c-0.6,2.8-1.3,5-2.1,6.6c-0.8,1.6-1.5,2.8-2.3,3.6
		c-0.7,0.7-1.3,1.2-1.9,1.4c-0.7,0.2-1.2,0.3-1.7,0.3c-1.2,0-2.1-0.3-2.9-0.9c-0.8-0.6-1.4-1.5-1.9-2.6c-0.5-1.2-0.9-2.5-1.1-3.9
		c-0.2-1.5-0.3-3-0.3-4.5c0-2.6,0.3-5.5,1-8.7c0.7-3.2,1.8-6.6,3.3-10.2c1.5-3.6,3.5-7.4,5.8-11.4c1.7-2.9,3.7-5.8,6-8.8
		c0,1.8,0.1,3.4,0.1,5C403.3,300.2,403.3,302.9,403.3,305.6z M296.7,227.5L296.7,227.5c-0.1-0.1,0-0.1,0-0.2
		C296.7,227.4,296.7,227.4,296.7,227.5z M218.3,257.4C218.3,257.4,218.3,257.5,218.3,257.4C218.3,257.5,218.3,257.5,218.3,257.4
		c0.1,0.1,0.2,0.1,0.2,0.2C218.4,257.5,218.4,257.5,218.3,257.4L218.3,257.4C218.3,257.5,218.3,257.4,218.3,257.4z M222,243.9
		c1.4-2.3,2.9-4.2,4.3-5.6c1.2-1.2,2.4-1.9,3.4-1.9c0.4,0,0.8,0.1,1.3,0.4c0.5,0.3,1.1,0.8,1.6,1.5c0.5,0.7,1,1.7,1.3,3
		c0.4,1.3,0.6,2.8,0.6,4.7c0,2.5-0.3,4.9-1,6.9c-0.6,2-1.5,3.8-2.5,5.2c-1,1.4-2.1,2.4-3.3,3.1c-1.1,0.7-2.3,1-3.4,1
		c-0.5,0-0.9-0.1-1.3-0.3c-0.5-0.3-0.9-0.6-1.2-0.9c-0.4-0.5-0.8-1-1.2-1.6c-0.4-0.7-1-1.2-1.7-1.7l-0.4-0.3h-0.1
		c-0.2-0.1-0.5-0.2-0.7-0.2c-0.1,0-0.2-0.1-0.2-0.1c-0.3-0.1-0.6-0.1-1-0.1l-0.4,0c-0.6,0.1-1.2,0.2-1.8,0.6c1.1-2,2.1-4,3.1-6
		C219.1,248.8,220.6,246.2,222,243.9z M203.7,288.2c-0.2,5.5-0.4,11.1-0.8,16.6c-0.4,5.5-0.8,10.8-1.4,15.7c-0.6,5-1.4,9.4-2.2,13.2
		c-0.9,3.7-1.9,6.7-3.2,8.8c-1.5,2.7-3,2.7-3.4,2.7c-0.8,0-1.1-0.3-1.3-0.5c-0.5-0.5-0.8-1.1-1.1-1.8c-0.3-0.8-0.5-1.7-0.6-2.7
		c-0.1-1.1-0.2-2-0.2-2.9c0-3.6,0.4-7.9,1.2-12.8c0.8-4.9,2-10.2,3.5-15.8c1.5-5.6,3.3-11.5,5.5-17.5c1.3-3.7,2.7-7.3,4.2-11
		C203.9,282.8,203.8,285.5,203.7,288.2z M173.5,245.2c-0.5-1-0.9-2.1-1.2-3.1c-0.2-1-0.4-2-0.4-3c0-1.7,0.3-2.1,0.3-2.1
		c0.2-0.2,0.4-0.3,0.5-0.4c0.2,0,0.5,0.1,0.8,0.6c0.5,0.7,0.9,1.6,1.3,2.7c0.4,1.2,0.7,2.6,0.9,4c0.2,1.5,0.3,2.9,0.3,4.3
		c0,0.2,0,0.3,0,0.5c-0.2-0.2-0.4-0.4-0.6-0.7C174.6,247.2,174,246.2,173.5,245.2z M163,237.7c-0.1,0.7-0.1,1.4-0.1,2.1
		c0,4.2,1.1,8,3.4,11.4c1.9,2.9,4.4,5.2,7.2,7c-0.9,1.5-2.1,2.8-3.6,3.8c-1.8,1.3-4.1,1.9-6.9,1.9c-1.5,0-3-0.3-4.2-0.8
		c-1.2-0.5-2.3-1.3-3.2-2.3c-0.9-1-1.6-2.2-2.1-3.5c-0.5-1.4-0.7-2.9-0.7-4.6c0-1.9,0.3-3.6,0.7-5.1c0.5-1.5,1.1-2.8,1.9-3.9
		c0.8-1.1,1.6-2,2.5-2.7c0.9-0.7,1.8-1.3,2.5-1.7c1-0.5,1.8-1,2.5-1.5C162.9,237.8,162.9,237.7,163,237.7z"/>
</g>
</svg>
