<?xml version="1.0" encoding="utf-8"?>
<!-- Generator: Adobe Illustrator 21.0.0, SVG Export Plug-In . SVG Version: 6.00 Build 0)  -->
<svg version="1.1" id="Layer_1" xmlns="http://www.w3.org/2000/svg" xmlns:xlink="http://www.w3.org/1999/xlink" x="0px" y="0px"
	 viewBox="0 0 500 500" style="enable-background:new 0 0 500 500;" xml:space="preserve">
<style type="text/css">
	.st0{fill:#EA2E49;}
</style>
<g>
	<path class="st0" d="M138.7,183.9c-0.3-1.6-0.8-3.5-1.4-5.6c-0.6-2.1-1.5-4.3-2.6-6.6c-1.3-2.7-3.1-5.5-5.4-8.4
		c-2.3-3-5.3-5.7-9-8.2c-3.7-2.5-8.2-4.6-13.4-6.2c-5.3-1.6-11.5-2.4-18.6-2.4c-7.4,0-14.7,1.1-21.8,3.3c-7.1,2.2-13.9,5.2-20.3,9
		c-6.4,3.8-12.3,8.4-17.7,13.7c-5.4,5.3-10.1,11-14,17.2c-3.9,6.2-7,12.8-9.2,19.7c-2.2,6.9-3.3,13.9-3.3,21
		c0,6.7,0.9,12.6,2.8,17.8c1.9,5.1,4.6,9.5,8.1,13c3.5,3.5,7.7,6.1,12.5,7.9c4.9,1.8,10.3,2.7,16.3,2.7c6.6,0,13.2-1,19.9-3
		c6.7-2,13.2-5,19.5-9c6.3-4,12.4-8.9,18.1-14.8c5.8-5.9,11.1-12.6,15.9-20.3c0.1,5,0.4,10.2,0.8,15.6c0.4,5.3,1,10.8,1.7,16.3
		c-2.6,1.3-5.5,3.1-8.6,5.2c-3.1,2.2-6.3,4.6-9.5,7.5c-3.2,2.8-6.3,5.9-9.4,9.3c-3,3.3-5.7,6.9-8.1,10.7c-2.4,3.8-4.2,7.7-5.6,11.7
		c-1.4,4-2.1,8.1-2.1,12.3c0,2.9,0.5,5.6,1.5,8.1c1,2.5,2.4,4.6,4.2,6.4c1.8,1.8,3.9,3.2,6.3,4.2c2.4,1,5.1,1.5,8,1.5
		c5.8,0,10.7-1.5,14.7-4.4c4-3,7.2-7,9.6-12c2.4-5,4.1-10.9,5.2-17.5c1.1-6.6,1.6-13.6,1.6-20.9c0-3.1-0.1-6.2-0.2-9.2
		c-0.2-3-0.4-6.1-0.7-9.1c3-1.5,5.4-2.6,7.2-3.3c1.8-0.7,2.8-1.1,2.9-1.1c0.7-0.2,1.2-0.6,1.6-1.1c0.4-0.5,0.6-1.1,0.6-1.8
		c0-0.9-0.3-1.7-1-2.3c-0.6-0.6-1.4-0.9-2.2-0.9c-0.1,0-0.2,0-0.4,0c-0.2,0-0.6,0.1-1.2,0.2c-0.6,0.2-1.6,0.6-2.9,1.1
		c-1.3,0.5-3.1,1.4-5.4,2.5c-0.8-5.9-1.3-11.4-1.7-16.6c-0.4-5.2-0.5-10-0.5-14.4c0-3,0.1-5.8,0.2-8.4c1.9-3.7,3.4-7,4.3-9.8
		c0.9-2.8,1.4-5.1,1.4-7c0-1.7-0.4-3-1.3-4.1c-0.9-1.1-1.9-1.6-3.2-1.6c-2.3,0-4,1.8-5.1,5.4c-1.1,3.6-1.9,8.7-2.4,15.5
		c-4,7.1-8.5,13.9-13.5,20.4c-5,6.4-10.6,12.1-16.7,16.9c-6.1,4.8-12.8,8.7-19.9,11.5c-7.2,2.9-14.9,4.3-23.1,4.3
		c-4.8,0-9.2-0.7-13.3-2c-4.1-1.3-7.7-3.4-10.8-6.2c-3-2.8-5.4-6.5-7.1-10.9c-1.7-4.5-2.6-9.8-2.6-16.1c0-6.9,1.1-13.6,3.3-20.2
		c2.2-6.5,5.2-12.7,9-18.4c3.8-5.8,8.3-11,13.4-15.8c5.1-4.8,10.7-8.9,16.6-12.4c5.9-3.5,12.1-6.1,18.6-8.1
		c6.4-1.9,12.9-2.9,19.2-2.9c7.2,0,13.3,0.9,18.3,2.7c5,1.8,9.2,4,12.5,6.6c3.3,2.7,5.9,5.5,7.8,8.7c1.9,3.1,3.3,6.1,4.2,8.8
		c0.9,2.7,1.5,5.1,1.7,6.9c0.2,1.9,0.3,2.9,0.4,3.2c0.1,0.9,0.5,1.7,1.1,2.2c0.6,0.6,1.3,0.8,2.2,0.8c0.9,0,1.6-0.3,2.2-1
		c0.6-0.7,0.9-1.4,0.9-2.2c0-0.1,0-0.6-0.1-1.6C139.2,186.8,139,185.5,138.7,183.9z M118.4,263.2c0.2,2.6,0.4,5.1,0.5,7.6
		c0.1,2.5,0.2,4.9,0.2,7.3c0,15.9-2.2,28-6.6,36.2c-4.4,8.3-10.5,12.4-18.3,12.4c-2,0-3.8-0.3-5.5-1c-1.7-0.7-3.1-1.6-4.3-2.8
		c-1.2-1.2-2.2-2.6-2.8-4.3c-0.7-1.7-1-3.6-1-5.7c0-3.4,0.5-6.7,1.6-10.1c1.1-3.3,2.6-6.6,4.4-9.8c1.9-3.2,4.1-6.2,6.6-9.1
		c2.5-2.9,5.1-5.7,7.9-8.2c2.8-2.5,5.7-4.9,8.6-7C112.8,266.6,115.6,264.8,118.4,263.2z"/>
	<path class="st0" d="M265.6,211.5c2.1,0,3.9-0.7,5.4-2.2c1.5-1.5,2.2-3.3,2.2-5.4c0-1.1-0.2-2-0.6-2.9c-0.4-0.9-0.9-1.7-1.6-2.4
		c-0.7-0.7-1.5-1.2-2.4-1.6c-0.9-0.4-1.9-0.6-2.9-0.6c-1.1,0-2,0.2-2.9,0.6c-0.9,0.4-1.7,0.9-2.4,1.6c-0.7,0.7-1.2,1.5-1.6,2.4
		c-0.4,0.9-0.6,1.9-0.6,2.9c0,2.1,0.7,3.9,2.2,5.4C261.7,210.8,263.5,211.5,265.6,211.5z M263.6,201.9c0.6-0.6,1.2-0.9,2-0.9
		c0.8,0,1.5,0.3,2,0.9c0.6,0.6,0.9,1.3,0.9,2c0,0.8-0.3,1.4-0.9,2c-0.6,0.6-1.3,0.8-2,0.8c-0.8,0-1.4-0.3-2-0.8
		c-0.6-0.6-0.8-1.2-0.8-2C262.8,203.2,263.1,202.5,263.6,201.9z"/>
	<path class="st0" d="M412.1,211.5c2.1,0,3.9-0.7,5.4-2.2c1.5-1.5,2.2-3.3,2.2-5.4c0-1.1-0.2-2-0.6-2.9c-0.4-0.9-0.9-1.7-1.6-2.4
		c-0.7-0.7-1.5-1.2-2.4-1.6c-0.9-0.4-1.9-0.6-2.9-0.6c-1.1,0-2,0.2-2.9,0.6c-0.9,0.4-1.7,0.9-2.4,1.6c-0.7,0.7-1.2,1.5-1.6,2.4
		c-0.4,0.9-0.6,1.9-0.6,2.9c0,2.1,0.7,3.9,2.2,5.4C408.2,210.8,410,211.5,412.1,211.5z M410,201.9c0.6-0.6,1.3-0.9,2-0.9
		c0.8,0,1.4,0.3,2,0.9c0.6,0.6,0.8,1.3,0.8,2c0,0.8-0.3,1.4-0.8,2c-0.6,0.6-1.2,0.8-2,0.8c-0.8,0-1.5-0.3-2-0.8
		c-0.6-0.6-0.9-1.2-0.9-2C409.2,203.2,409.5,202.5,410,201.9z"/>
	<path class="st0" d="M497.1,242.6c-0.6-0.7-1.3-1-2.3-1c-0.6,0-1.2,0.2-1.7,0.5s-0.9,0.8-1.2,1.4c-0.5,1.1-1.1,2.3-1.8,3.7
		c-0.7,1.4-1.6,2.9-2.5,4.5c-0.9,1.6-2,3.1-3.1,4.6c-1.1,1.5-2.3,2.9-3.6,4.1c-1.2,1.2-2.5,2.1-3.8,2.9c-1.3,0.7-2.6,1.1-3.9,1.1
		c-2,0-3.7-0.7-4.8-2.1c-1.2-1.4-2-3-2.6-4.9c-0.6-1.9-1-3.8-1.1-5.7c-0.2-1.9-0.3-3.4-0.3-4.4c-0.1-0.8-0.4-1.5-1-2.1
		c-0.6-0.6-1.3-0.9-2-0.9c-0.8,0-1.5,0.3-2.2,0.8c-0.6,0.5-1,1.2-1.1,2c-0.4,2.9-1.1,5.4-2,7.5c-1,2.1-2,3.8-3.2,5.2
		c-1.2,1.4-2.4,2.4-3.7,3.1c-1.3,0.7-2.4,1-3.4,1c-1.4,0-2.5-0.3-3.5-0.8c-0.9-0.6-1.7-1.3-2.2-2.2c-0.6-0.9-0.9-1.9-1.2-2.9
		c-0.2-1.1-0.3-2.1-0.3-3.2c0-3.4,0.5-6.3,1.6-8.8c1.1-2.5,2.4-4.5,4-6.1c1.6-1.6,3.4-2.8,5.3-3.6c1.9-0.8,3.8-1.2,5.5-1.2
		c1.2,0,2.2,0.1,3.1,0.4c0.9,0.2,1.7,0.5,2.4,0.9c0.7,0.3,1.2,0.7,1.6,1c0.4,0.3,0.6,0.5,0.7,0.6c0.6,0.6,1.4,0.9,2.2,0.9
		c0.8,0,1.5-0.3,2.2-1c0.6-0.6,0.9-1.4,0.9-2.2c0-0.8-0.3-1.5-0.9-2.2c-0.1-0.1-0.4-0.3-0.9-0.8c-0.6-0.5-1.3-1-2.4-1.5
		c-1-0.6-2.3-1.1-3.7-1.5c-1.4-0.5-3-0.7-4.7-0.7c-2.5,0-5.2,0.6-7.9,1.7c-2.7,1.1-5.2,2.8-7.5,5c-1.9,1.8-3.4,4-4.8,6.6
		c-0.7,0.3-1.2,0.8-1.5,1.6c-0.9,2.2-2.2,4.4-3.9,6.8c-1.7,2.4-3.5,4.8-5.5,7.3c-2,2.5-4.1,4.9-6.2,7.4c-2.2,2.5-4.3,4.8-6.3,7
		c0-7.1,0.1-13.3,0.3-18.6c0.2-5.2,0.4-9.6,0.6-13.2c0.2-3.5,0.4-6.2,0.6-8.1c0.2-1.8,0.3-2.9,0.3-3.2c0-0.9-0.3-1.6-0.9-2.2
		c-0.6-0.6-1.3-0.9-2.2-0.9s-1.5,0.2-2.1,0.7c-0.6,0.5-0.9,1.2-1,2c-0.3,2.9-0.6,6.3-0.9,10.1c-0.1,1.2-0.1,2.4-0.2,3.6
		c-0.4,0.3-0.7,0.7-0.9,1.2c-0.5,1.1-1.1,2.3-1.8,3.7c-0.7,1.4-1.6,2.9-2.5,4.5c-0.9,1.6-2,3.1-3.1,4.6c-1.1,1.5-2.3,2.9-3.6,4.1
		c-1.2,1.2-2.5,2.1-3.8,2.9c-1.3,0.7-2.6,1.1-3.9,1.1c-2,0-3.7-0.7-4.8-2.1c-1.2-1.4-2-3-2.6-4.9c-0.6-1.9-1-3.8-1.1-5.7
		c-0.2-1.9-0.3-3.4-0.3-4.4c-0.1-0.8-0.4-1.5-1-2.1c-0.6-0.6-1.3-0.9-2-0.9c-0.8,0-1.5,0.3-2.2,0.8c-0.6,0.5-1,1.2-1.1,2
		c-0.4,2.9-1.1,5.4-2,7.5c-1,2.1-2,3.8-3.2,5.2c-1.2,1.4-2.4,2.4-3.7,3.1c-1.3,0.7-2.4,1-3.4,1c-1.4,0-2.5-0.3-3.5-0.8
		c-0.9-0.6-1.7-1.3-2.2-2.2c-0.6-0.9-0.9-1.9-1.2-2.9c-0.2-1.1-0.3-2.1-0.3-3.2c0-3.4,0.5-6.3,1.6-8.8c1.1-2.5,2.4-4.5,4-6.1
		c1.6-1.6,3.4-2.8,5.3-3.6c1.9-0.8,3.8-1.2,5.5-1.2c1.2,0,2.2,0.1,3.1,0.4c0.9,0.2,1.7,0.5,2.4,0.9c0.7,0.3,1.2,0.7,1.6,1
		c0.4,0.3,0.6,0.5,0.7,0.6c0.6,0.6,1.4,0.9,2.2,0.9c0.8,0,1.5-0.3,2.2-1c0.6-0.6,0.9-1.4,0.9-2.2c0-0.8-0.3-1.5-0.9-2.2
		c-0.1-0.1-0.4-0.3-0.9-0.8c-0.6-0.5-1.3-1-2.4-1.5c-1-0.6-2.3-1.1-3.7-1.5c-1.4-0.5-3-0.7-4.7-0.7c-2.5,0-5.2,0.6-7.9,1.7
		c-2.7,1.1-5.2,2.8-7.5,5c-1.9,1.8-3.5,4-4.8,6.6c-0.1,0-0.2,0.1-0.3,0.1c-0.5,0.3-0.9,0.7-1.2,1.2c-0.9,1.8-2.1,4-3.5,6.4
		c-1.4,2.4-3,4.7-4.8,6.9c-1.8,2.2-3.7,4.1-5.8,5.6c-2.1,1.6-4.3,2.3-6.7,2.3c-0.8,0-1.6-0.2-2.6-0.5c-0.9-0.3-1.8-0.8-2.7-1.6
		c-0.8-0.8-1.5-1.8-2.1-3.1c-0.6-1.3-0.8-2.9-0.8-4.9c0-1.4,0.1-2.8,0.2-4.2c0.2-1.4,0.4-2.9,0.6-4.4c0.2-1.5,0.4-2.9,0.6-4.3
		c0.2-1.4,0.2-2.7,0.2-4c0-3.2-0.8-5.4-2.5-6.8c-1.7-1.4-4.1-2.1-7.2-2.1c-0.8,0-1.7,0-2.6,0c-0.9,0-1.8,0-2.8,0
		c0-1.1-0.1-2.4-0.3-3.9c-0.2-1.5-0.5-2.9-1-4.3c-0.4-1.4-1.1-2.5-1.9-3.4c-0.8-0.9-1.8-1.4-3.1-1.4c-1.1,0-2.2,0.6-3.3,1.7
		c-1.1,1.1-2.1,2.5-3,4c-0.9,1.6-1.6,3.1-2.1,4.7c-0.5,1.6-0.8,2.9-0.8,3.8c0,1.3,0.3,2.3,0.8,3c0.6,0.7,1.3,1.2,2.1,1.6
		c0.9,0.3,1.8,0.5,2.8,0.6c1,0.1,2,0.1,2.9,0.1c-0.5,2.4-0.9,4.2-1.2,5.4c-0.3,1-0.5,1.7-0.7,2.2c-0.1,0.2-0.3,0.3-0.4,0.5
		c-1.7,3.4-3.5,6.5-5.2,9.3c-1.8,2.8-3.5,5.2-5.3,7.2c-1.7,2-3.4,3.5-5.1,4.6c-1.7,1.1-3.3,1.7-4.8,1.7c-0.9,0-1.9-0.2-2.9-0.5
		c-1-0.3-2-1-2.9-2c-0.9-1-1.7-2.4-2.2-4.2c-0.6-1.8-0.9-4.2-0.9-7.1c0-2.2,0.1-4.5,0.2-7.1c0.1-2.6,0.3-5,0.5-7.3
		c0.2-2.3,0.4-4.3,0.5-5.9c0.1-1.7,0.2-2.7,0.2-3c0-0.8-0.3-1.6-0.8-2.2c-0.6-0.6-1.2-1-2.1-1c-0.9,0-1.7,0.3-2.3,0.9
		c-0.6,0.6-0.9,1.3-1,2c-0.6,4.7-1,9.4-1.2,14.1c-0.1,0.2-0.3,0.3-0.4,0.6c-1.3,2.7-2.9,5.4-4.6,8.2c-1.7,2.8-3.7,5.4-5.8,7.7
		c-2.2,2.3-4.6,4.2-7.3,5.6c-2.7,1.5-5.7,2.2-8.9,2.2h-0.3c2.7-1.9,4.9-4.6,6.7-8.2c1.8-3.6,2.7-7.9,2.7-13c0-2.4-0.3-4.7-0.9-6.8
		c-0.6-2.1-1.4-4-2.5-5.5c-1.1-1.5-2.4-2.8-4-3.7c-1.6-0.9-3.3-1.3-5.1-1.3c-2,0-3.8,0.5-5.4,1.5c-1.6,1-3.2,2.4-4.6,4
		c-1.4,1.7-2.8,3.5-4,5.6c-1.3,2.1-2.5,4.2-3.8,6.4v-25.5c0-0.9-0.3-1.6-0.9-2.2c-0.6-0.6-1.3-0.9-2.2-0.9c-0.9,0-1.6,0.3-2.2,0.9
		c-0.6,0.6-0.9,1.3-0.9,2.2c0,0.1,0,0.7-0.1,1.9c-0.1,1.2-0.3,2.9-0.6,4.9c-0.4,2.1-0.9,4.5-1.6,7.2c-0.6,2.3-1.5,4.8-2.5,7.3
		c-0.4,0.3-0.7,0.5-0.9,0.8c-0.9,1.8-1.8,3.4-2.8,4.8c-1,1.4-2.1,2.5-3.3,3.4c-1.2,0.9-2.6,1.5-4.1,2c-1.5,0.4-3.2,0.7-5.1,0.7
		c-0.4,0-0.7,0-1.1,0s-0.7,0-1-0.1c0.4-1.9,0.7-3.8,0.7-5.6c0-3.4-0.3-6.3-0.9-8.7c-0.6-2.4-1.4-4.4-2.4-6c-1-1.5-2.2-2.7-3.5-3.4
		c-1.3-0.7-2.7-1.1-4.2-1.1c-2.5,0-4.5,1-6,3c-1.5,2-2.3,4.6-2.3,7.7c0,3.9,1.1,7.5,3.2,10.6c2.1,3.2,4.8,5.6,8.1,7.3
		c-1.1,2.3-2.7,4.1-4.8,5.6c-2.1,1.5-4.7,2.2-7.8,2.2c-1.8,0-3.4-0.3-4.8-1c-1.4-0.6-2.7-1.5-3.7-2.7c-1.1-1.1-1.9-2.5-2.4-4.1
		c-0.6-1.6-0.8-3.3-0.8-5.1c0-2,0.3-3.9,0.8-5.6c0.6-1.7,1.3-3.1,2.1-4.3c0.9-1.2,1.8-2.2,2.8-3c1-0.8,1.9-1.4,2.8-1.9
		c0.9-0.4,1.6-0.9,2.2-1.4c0.6-0.5,0.9-1.2,0.9-2.1c0-0.8-0.2-1.5-0.7-2c-0.5-0.5-1.2-0.7-2.1-0.7c-0.8,0-2.1,0.4-3.7,1.3
		c-1.7,0.9-3.3,2.2-5,3.9c-1.7,1.7-3.1,3.9-4.4,6.6c-1.3,2.6-1.9,5.7-1.9,9.3c0,2.8,0.4,5.3,1.3,7.6c0.9,2.3,2.1,4.3,3.7,5.9
		c1.6,1.6,3.5,2.9,5.6,3.8c2.2,0.9,4.5,1.4,7.1,1.4c2.2,0,4.3-0.3,6.1-0.9c1.9-0.6,3.6-1.4,5.1-2.5c1.5-1.1,2.9-2.3,4-3.7
		c1.2-1.4,2.2-2.9,3-4.6c1.1,0.2,2.3,0.3,3.7,0.3c2.6,0.1,5-0.2,7.1-0.9c2.1-0.7,4-1.6,5.7-2.7c1.7-1.1,3.2-2.5,4.4-4
		c1.2-1.5,2.3-3.1,3.3-4.8c0-0.1,0.1-0.2,0.1-0.3c0.3-0.2,0.6-0.4,0.9-0.7c0,1.8,0,3.6,0,5.5c0,1.9,0,3.8,0,5.7
		c-3.5,6.9-6.8,14-9.7,21.3c-2.9,7.3-5.5,14.4-7.6,21.4c-2.1,6.9-3.8,13.5-4.9,19.7c-1.2,6.2-1.7,11.7-1.7,16.4
		c0,3.7,0.4,6.7,1.1,8.9c0.7,2.2,1.6,3.9,2.7,5.1c1.1,1.2,2.2,2,3.4,2.4c1.2,0.4,2.3,0.6,3.2,0.6c3,0,5.6-1.1,7.7-3.2
		c2.1-2.2,3.9-5.2,5.3-9.3c1.4-4,2.6-8.8,3.4-14.5s1.5-12,2-18.9c0.5-7,0.8-14.5,1-22.7c0.2-8.1,0.3-16.7,0.5-25.7
		c1.5-2.7,3-5.5,4.4-8.4c1.5-2.9,2.9-5.5,4.4-7.9c1.5-2.4,3-4.3,4.5-5.9c1.5-1.5,3-2.3,4.5-2.3c0.7,0,1.4,0.2,2.1,0.6
		c0.7,0.4,1.4,1.1,2,2c0.6,0.9,1.2,2,1.6,3.4c0.4,1.4,0.6,3.1,0.6,5.1c0,2.7-0.3,5.2-1,7.4c-0.7,2.2-1.6,4.1-2.7,5.6
		c-1.1,1.6-2.4,2.7-3.7,3.6c-1.4,0.8-2.8,1.2-4.2,1.2c-0.8,0-1.5-0.2-2.1-0.5c-0.6-0.4-1.1-0.8-1.6-1.2c-0.5-0.6-0.9-1.2-1.3-1.8
		c-0.3-0.5-0.7-0.9-1.2-1.2c-0.1,0-0.1,0-0.2-0.1c-0.2-0.1-0.4-0.2-0.6-0.2c-0.1,0-0.1,0-0.1,0c0,0-0.1,0-0.1,0
		c-0.1-0.1-0.3-0.1-0.6-0.1h-0.2c-0.7,0.1-1.3,0.3-1.8,0.8c-0.1,0.1-0.1,0.1-0.2,0.1c-0.1,0-0.1,0.1-0.2,0.2c-0.5,0.6-0.7,1.3-0.7,2
		c0,0.6,0.2,1.1,0.5,1.6c0,0.1,0.1,0.2,0.2,0.3c0.3,0.6,0.8,1.3,1.3,2c0.6,0.7,1.2,1.3,2,2c2.1,1.9,4.5,3.4,7.3,4.3
		c2.8,0.9,5.6,1.4,8.6,1.4c4,0,7.7-0.8,11-2.4c3.3-1.6,6.3-3.7,9-6.4c2.5-2.5,4.7-5.2,6.7-8.3c0.2,1.5,0.4,2.9,0.8,4.3
		c0.6,2.4,1.6,4.5,2.9,6.3c1.3,1.8,2.9,3.2,4.8,4.2c1.9,1.1,4.1,1.6,6.6,1.6c1.9,0,3.8-0.5,5.7-1.4c1.9-0.9,3.7-2.2,5.4-3.7
		c1.7-1.5,3.3-3.2,4.9-5.1c1.5-1.9,2.9-3.8,4.2-5.8c1.3-1.9,2.4-3.8,3.4-5.6c0.9-1.7,1.7-3.1,2.3-4.3c0.1-0.2,0.2-0.3,0.3-0.5
		c0.1-0.1,0.2-0.4,0.4-1c0.2-0.6,0.5-1.4,0.8-2.4c0.3-1,0.6-2.1,1-3.4c0.3-1.3,0.6-2.7,0.8-4.2c1.1-0.1,2-0.1,2.9-0.1s1.8,0,2.5,0
		c1.6,0,2.6,0.3,3.1,0.8c0.5,0.5,0.7,1.3,0.7,2.4c0,2.5-0.3,5.1-0.8,7.8c-0.6,2.7-0.8,5.5-0.8,8.3c0,2.6,0.4,4.9,1.2,7
		c0.8,2.1,1.8,3.8,3.1,5.2c1.3,1.4,2.8,2.5,4.6,3.2c1.8,0.7,3.7,1.1,5.6,1.1c3.2,0,6.2-0.9,8.8-2.6c2.7-1.7,5.1-3.8,7.3-6.3
		c1.2-1.3,2.2-2.7,3.3-4.2c0.2,1.1,0.4,2.2,0.8,3.3c0.6,1.8,1.5,3.4,2.7,4.8c1.2,1.4,2.6,2.4,4.2,3.2c1.7,0.7,3.5,1.1,5.6,1.1
		c2.6,0,5.2-0.9,7.8-2.8c2.6-1.9,4.8-4.4,6.7-7.5c1,3.1,2.6,5.7,4.8,7.7c2.2,2,4.9,3.1,8.1,3.1c2.3,0,4.4-0.5,6.5-1.6
		c2-1.1,4-2.4,5.7-4.1c1.8-1.7,3.4-3.5,4.8-5.5c0.9-1.2,1.7-2.4,2.4-3.5c-0.1,2.8-0.1,5.7-0.2,8.7c-0.1,4.7-0.1,9.5-0.1,14.2
		c-4.5,5-8.4,9.9-11.6,14.7c-3.2,4.8-5.8,9.5-7.8,14.1c-2,4.5-3.5,8.8-4.4,12.9c-0.9,4.1-1.4,7.8-1.4,11.2c0,3.1,0.3,5.9,1,8.3
		c0.7,2.4,1.6,4.5,2.9,6.1c1.2,1.7,2.7,2.9,4.4,3.8c1.7,0.9,3.6,1.3,5.6,1.3c5.9,0,10.4-3.7,13.4-11c3-7.4,4.5-18.7,4.5-33.9
		c0-3.8,0-7.9-0.1-12.1c-0.1-4.3-0.2-8.6-0.2-13c2.2-2.5,4.7-5.2,7.3-8.1c2.7-2.9,5.3-5.9,7.9-9c1.9-2.2,3.7-4.5,5.3-6.8
		c0.2,1.2,0.4,2.4,0.8,3.6c0.6,1.8,1.5,3.4,2.7,4.8c1.2,1.4,2.6,2.4,4.2,3.2c1.7,0.7,3.5,1.1,5.6,1.1c2.6,0,5.2-0.9,7.8-2.8
		c2.6-1.9,4.8-4.4,6.7-7.5c1,3.1,2.6,5.7,4.8,7.7c2.2,2,4.9,3.1,8.1,3.1c2.3,0,4.4-0.5,6.5-1.6c2-1.1,4-2.4,5.7-4.1
		c1.8-1.7,3.4-3.5,4.8-5.5c1.4-2,2.7-3.9,3.8-5.7c1.1-1.8,2-3.4,2.7-4.9c0.7-1.4,1.1-2.3,1.4-2.8c0.2-0.4,0.2-0.8,0.2-1.2
		C498,244,497.7,243.3,497.1,242.6z M176.9,251.7c-1.2-0.7-2.2-1.6-3-2.6c-0.9-1-1.6-2.1-2.2-3.2c-0.6-1.1-1-2.3-1.3-3.4
		c-0.3-1.2-0.4-2.3-0.4-3.3c0-1.7,0.3-2.7,0.8-3.2c0.6-0.5,1-0.7,1.3-0.7c0.8,0,1.5,0.4,2.2,1.2c0.6,0.8,1.1,1.9,1.5,3.2
		c0.4,1.3,0.7,2.7,1,4.3c0.2,1.6,0.3,3.1,0.3,4.6C177.1,249.4,177,250.5,176.9,251.7z M204.9,288.5c-0.2,5.6-0.4,11.2-0.8,16.7
		c-0.4,5.5-0.8,10.8-1.5,15.9c-0.6,5.1-1.4,9.5-2.3,13.5c-0.9,3.9-2,7-3.4,9.3c-1.3,2.3-2.9,3.4-4.7,3.4c-1,0-1.8-0.3-2.4-1
		c-0.6-0.6-1.1-1.4-1.4-2.4c-0.3-0.9-0.6-2-0.7-3.1c-0.1-1.1-0.2-2.1-0.2-3.1c0-3.8,0.4-8.1,1.2-13.1c0.8-5,2-10.3,3.5-16
		c1.5-5.7,3.4-11.6,5.6-17.8c2.2-6.1,4.6-12.3,7.3-18.3C205.2,277.6,205.1,282.9,204.9,288.5z M294.8,228.9c0.1-0.4,0.3-1,0.5-1.7
		c0.2-0.7,0.5-1.3,0.7-1.9c0.3-0.6,0.5-1.1,0.8-1.5c0.2-0.4,0.5-0.6,0.6-0.6c0.2,0,0.3,0.2,0.5,0.7c0.1,0.4,0.3,1,0.3,1.6
		c0.1,0.6,0.1,1.2,0.2,1.9c0,0.6,0,1.1,0,1.5H294.8z M405.2,321.3c-0.4,4.3-0.9,7.8-1.6,10.8s-1.4,5.2-2.2,6.9
		c-0.8,1.7-1.7,3-2.5,3.9c-0.9,0.9-1.7,1.5-2.5,1.8c-0.8,0.3-1.5,0.4-2.2,0.4c-1.5,0-2.8-0.4-3.8-1.2c-1-0.8-1.8-1.9-2.4-3.2
		c-0.6-1.3-1-2.7-1.2-4.3c-0.2-1.6-0.3-3.1-0.3-4.7c0-2.7,0.3-5.7,1-9c0.7-3.3,1.8-6.8,3.4-10.5c1.5-3.7,3.5-7.6,5.9-11.6
		c2.4-4,5.3-8.1,8.8-12.3c0.1,3.3,0.1,6.4,0.2,9.2c0.1,2.8,0.1,5.6,0.1,8.5C405.8,311.9,405.6,317,405.2,321.3z"/>
</g>
</svg>
