<svg xmlns="http://www.w3.org/2000/svg" viewBox="0 0 1333.73 742.79"><defs><style>.cls-1{fill:#f8f8f8;}.cls-2,.cls-3{opacity:0.5;fill:#333745;}.cls-2{font-size:23.4px;}.cls-2,.cls-3,.cls-9{font-family:SourceSansPro-Regular, Source Sans Pro;}.cls-3,.cls-9{font-size:19.4px;}.cls-4{letter-spacing:-0.01em;}.cls-5{letter-spacing:0em;}.cls-6{letter-spacing:-0.02em;}.cls-7{fill:none;stroke:#333745;stroke-miterlimit:10;opacity:0.2;}.cls-8{fill:#c6355b;}.cls-9{fill:#fff;}.cls-10{letter-spacing:-0.01em;}.cls-11{fill:#1e539e;}.cls-12{letter-spacing:-0.02em;}.cls-13{letter-spacing:0em;}.cls-14{fill:#48a198;}.cls-15{letter-spacing:-0.01em;}.cls-16{fill:#2f6d74;}.cls-17{letter-spacing:-0.06em;}</style></defs><g id="Layer_2" data-name="Layer 2"><g id="Layer_1-2" data-name="Layer 1"><rect class="cls-1" width="1253.66" height="704.84"/><text class="cls-2" transform="translate(1262.92 358.42)">Quality</text><text class="cls-3" transform="translate(1264.14 694.84)"><tspan class="cls-4">L</tspan><tspan class="cls-5" x="9.2" y="0">o</tspan><tspan x="19.63" y="0">w</tspan></text><text class="cls-3" transform="translate(1215.91 735.23)">High</text><text class="cls-3" transform="translate(0 735.23)"><tspan class="cls-4">L</tspan><tspan class="cls-5" x="9.2" y="0">o</tspan><tspan x="19.63" y="0">w</tspan></text><text class="cls-3" transform="translate(1262.92 16.48)">High</text><text class="cls-2" transform="translate(602.26 735.23)">Pri<tspan class="cls-6" x="27.35" y="0">c</tspan><tspan x="37.53" y="0">e</tspan></text><line class="cls-7" x1="626.83" y1="704.84" x2="626.83"/><line class="cls-7" y1="352.42" x2="1253.66" y2="352.42"/><circle class="cls-8" cx="1096.66" cy="121.39" r="80.93"/><text class="cls-9" transform="translate(1060.01 126.31)"><tspan class="cls-10">A</tspan><tspan x="10.28" y="0">tlassian</tspan></text><circle class="cls-11" cx="903.54" cy="288.17" r="80.93"/><text class="cls-9" transform="translate(863.68 293.08)">Des<tspan class="cls-12" x="29.68" y="0">k</tspan><tspan class="cls-13" x="38.86" y="0">Time</tspan></text><circle class="cls-14" cx="508.58" cy="293.32" r="80.93"/><text class="cls-9" transform="translate(458.74 298.23)">Time Doc<tspan class="cls-15" x="76.08" y="0">t</tspan><tspan x="82.45" y="0">or</tspan></text><circle class="cls-16" cx="172.38" cy="544.46" r="80.93"/><text class="cls-9" transform="translate(141.59 549.37)"><tspan class="cls-17">T</tspan><tspan x="9.25" y="0">she</tspan><tspan class="cls-10" x="37.56" y="0">e</tspan><tspan x="46.91" y="0">ts</tspan></text></g></g></svg>