<?xml version="1.0" encoding="UTF-8"?>
<svg width="341px" height="717px" viewBox="0 0 341 717" version="1.1" xmlns="http://www.w3.org/2000/svg" xmlns:xlink="http://www.w3.org/1999/xlink">
    <!-- Generator: Sketch 54.1 (76490) - https://sketchapp.com -->
    <title>Combined Shape</title>
    <desc>Created with Sketch.</desc>
    <g id="Page-1" stroke="none" stroke-width="1" fill="none" fill-rule="evenodd">
        <g id="Desktop-HD" transform="translate(-863.000000, -137.000000)" fill="#292929">
            <g id="Group-6" transform="translate(863.000000, 137.000000)">
                <path d="M285.295591,717.000809 L55.0587621,717.000809 C24.6511172,717.000809 0.000809467456,692.362285 0.000809467456,661.973694 L0.000809467456,55.4821273 C0.000809467456,25.0894907 24.6511172,0.455011831 55.0587621,0.455011831 L285.295591,0.455011831 C315.703236,0.455011831 340.353543,25.0894907 340.353543,55.4821273 L340.353543,661.973694 C340.353543,692.23891 315.575744,717.000809 285.295591,717.000809 Z M283.526516,9 L252.98674,9 L252.266253,15.9548438 C251.331238,24.9777267 242.705623,31.8880531 232.375933,31.8880531 L108.624067,31.8880531 C98.2923532,31.8880531 89.6667386,24.9777267 88.7317236,15.9548438 L88.0112358,9 L57.4734839,9 C31.8071196,9 11,29.8038258 11,55.4661271 L11,659.533873 C11,685.198198 31.8071196,706 57.4734839,706 L283.526516,706 C309.085617,706 330,685.090951 330,659.533873 L330,55.4661271 C330,29.8038258 309.19288,9 283.526516,9 Z" id="Combined-Shape"></path>
            </g>
        </g>
    </g>
</svg>