<?xml version="1.0" encoding="UTF-8"?>
<svg width="466px" height="83px" viewBox="0 0 466 83" version="1.1" xmlns="http://www.w3.org/2000/svg" xmlns:xlink="http://www.w3.org/1999/xlink">
    <!-- Generator: Sketch 52.5 (67469) - http://www.bohemiancoding.com/sketch -->
    <title>Group 26</title>
    <desc>Created with Sketch.</desc>
    <g id="Brand-Document" stroke="none" stroke-width="1" fill="none" fill-rule="evenodd">
        <g id="Doc" transform="translate(-185.000000, -1958.000000)">
            <g id="Group-5" transform="translate(135.000000, 1674.000000)">
                <g id="Group-26" transform="translate(50.000000, 283.000000)">
                    <path d="M47.5210473,36.7524176 L18.5791888,7.97592332 C25.2065079,3.57171518 33.1694646,1 41.7389364,1 C64.7904243,1 83.4776119,19.5804152 83.4776119,42.5001945 C83.4776119,51.0207032 80.8911184,58.9381622 76.4616014,65.527615 L47.5210473,36.7524176 Z M7.01601049,19.4718663 L30.1770624,42.5005836 L7.01601049,65.5293009 C2.58649355,58.9398482 -1.59872116e-14,51.0210923 -1.59872116e-14,42.5005836 C-1.59872116e-14,33.9800749 2.58649355,26.061319 7.01601049,19.4718663 Z M64.8989449,77.0253736 C58.2716258,81.4295817 50.3086691,84 41.7391973,84 L41.7391973,76.1746196 L19.4337882,76.1746196 L41.7391973,53.9966562 L64.8989449,77.0253736 Z" id="Combined-Shape" fill="#E54525"></path>
                    <text id="Tarka-Labs" font-family="Mont" font-size="67" font-weight="500" fill="#E74525">
                        <tspan x="102" y="67">Tarka Labs</tspan>
                    </text>
                </g>
            </g>
        </g>
    </g>
</svg>