<?xml version="1.0" encoding="UTF-8"?>
<svg width="368px" height="452px" viewBox="0 0 368 452" version="1.1" xmlns="http://www.w3.org/2000/svg" xmlns:xlink="http://www.w3.org/1999/xlink">
    <!-- Generator: Sketch 52.5 (67469) - http://www.bohemiancoding.com/sketch -->
    <title>Group 29</title>
    <desc>Created with Sketch.</desc>
    <g id="Brand-Document" stroke="none" stroke-width="1" fill="none" fill-rule="evenodd">
        <g id="Doc" transform="translate(-536.000000, -50.000000)" fill="#E74525">
            <g id="Group-29" transform="translate(536.000000, 50.000000)">
                <path d="M209.255953,157.92175 L82.147567,30.8111894 C111.251976,11.3604167 146.22684,-2.84217094e-14 183.862976,-2.84217094e-14 C285.102226,-2.84217094e-14 367.173355,82.0711288 367.173355,183.312553 C367.173355,220.946515 355.815112,255.921379 336.362165,285.027962 L209.255953,157.92175 Z M30.8974262,82.1513873 L132.901885,184.089082 L30.8974262,286.026777 C11.3922131,256.859387 0,221.806661 0,184.089082 C0,146.371503 11.3900328,111.320956 30.8974262,82.1513873 Z M183.121258,234.079208 L285.000654,336.158465 C255.849322,355.68058 220.818072,367.079208 183.121258,367.079208 L183.121258,332.388015 L85.0006541,332.388015 L183.121258,234.079208 Z" id="Combined-Shape"></path>
                <path d="M43.96875,406.1875 L44,413.0625 L30.84375,413.0625 L30.84375,451 L23.5,451 L23.5,413.0625 L10.375,413.0625 L10.375,406.1875 L43.96875,406.1875 Z M74.65625,416.40625 L80.125,416.4375 L80.125,450.96875 L74.40625,450.96875 L73.71875,446.78125 C72.1354088,448.385425 70.2708441,449.630204 68.125,450.515625 C65.9791559,451.401046 63.6666791,451.84375 61.1875,451.84375 C57.8124831,451.84375 54.7500138,451.0573 52,449.484375 C49.2499862,447.91145 47.0937578,445.734389 45.53125,442.953125 C43.9687422,440.171861 43.1875,437.08335 43.1875,433.6875 C43.1875,430.270816 43.9687422,427.182305 45.53125,424.421875 C47.0937578,421.661445 49.2499862,419.500008 52,417.9375 C54.7500138,416.374992 57.8124831,415.59375 61.1875,415.59375 C63.6875125,415.59375 66.0208225,416.041662 68.1875,416.9375 C70.3541775,417.833338 72.2291587,419.104158 73.8125,420.75 L74.65625,416.40625 Z M53.625,441.8125 C55.7708441,443.958344 58.4687337,445.03125 61.71875,445.03125 C64.9687663,445.03125 67.6614477,443.953136 69.796875,441.796875 C71.9323023,439.640614 73,436.937516 73,433.6875 C73,430.437484 71.9323023,427.739594 69.796875,425.59375 C67.6614477,423.447906 64.9687663,422.375 61.71875,422.375 C58.4687337,422.375 55.7708441,423.453114 53.625,425.609375 C51.4791559,427.765636 50.40625,430.458317 50.40625,433.6875 C50.40625,436.937516 51.4791559,439.645823 53.625,441.8125 Z M106.84375,416.25 L109.90625,416.25 L109.90625,422.96875 L106.15625,422.96875 C103.239569,422.96875 101.041674,423.781242 99.5625,425.40625 C98.0833259,427.031258 97.34375,429.416651 97.34375,432.5625 L97.34375,451 L90.25,451 L90.25,416.4375 L95.0625,416.4375 L96.25,421.15625 C98.7083456,417.8854 102.23956,416.25 106.84375,416.25 Z M137.90625,451 L127.5625,436.25 L123.25,436.25 L123.25,451 L116.15625,451 L116.15625,404.0625 L123.25,404.0625 L123.25,429.8125 L127.625,429.8125 L136.9375,416.4375 L145.375,416.4375 L133.65625,433.03125 L146.59375,451 L137.90625,451 Z M179.5625,416.40625 L185.03125,416.4375 L185.03125,450.96875 L179.3125,450.96875 L178.625,446.78125 C177.041659,448.385425 175.177094,449.630204 173.03125,450.515625 C170.885406,451.401046 168.572929,451.84375 166.09375,451.84375 C162.718733,451.84375 159.656264,451.0573 156.90625,449.484375 C154.156236,447.91145 152.000008,445.734389 150.4375,442.953125 C148.874992,440.171861 148.09375,437.08335 148.09375,433.6875 C148.09375,430.270816 148.874992,427.182305 150.4375,424.421875 C152.000008,421.661445 154.156236,419.500008 156.90625,417.9375 C159.656264,416.374992 162.718733,415.59375 166.09375,415.59375 C168.593762,415.59375 170.927073,416.041662 173.09375,416.9375 C175.260427,417.833338 177.135409,419.104158 178.71875,420.75 L179.5625,416.40625 Z M158.53125,441.8125 C160.677094,443.958344 163.374984,445.03125 166.625,445.03125 C169.875016,445.03125 172.567698,443.953136 174.703125,441.796875 C176.838552,439.640614 177.90625,436.937516 177.90625,433.6875 C177.90625,430.437484 176.838552,427.739594 174.703125,425.59375 C172.567698,423.447906 169.875016,422.375 166.625,422.375 C163.374984,422.375 160.677094,423.453114 158.53125,425.609375 C156.385406,427.765636 155.3125,430.458317 155.3125,433.6875 C155.3125,436.937516 156.385406,439.645823 158.53125,441.8125 Z M219.28125,444.15625 L237.90625,444.15625 L237.90625,451 L211.90625,451 L211.90625,406.1875 L219.28125,406.1875 L219.28125,444.15625 Z M272.125,416.40625 L277.59375,416.4375 L277.59375,450.96875 L271.875,450.96875 L271.1875,446.78125 C269.604159,448.385425 267.739594,449.630204 265.59375,450.515625 C263.447906,451.401046 261.135429,451.84375 258.65625,451.84375 C255.281233,451.84375 252.218764,451.0573 249.46875,449.484375 C246.718736,447.91145 244.562508,445.734389 243,442.953125 C241.437492,440.171861 240.65625,437.08335 240.65625,433.6875 C240.65625,430.270816 241.437492,427.182305 243,424.421875 C244.562508,421.661445 246.718736,419.500008 249.46875,417.9375 C252.218764,416.374992 255.281233,415.59375 258.65625,415.59375 C261.156263,415.59375 263.489573,416.041662 265.65625,416.9375 C267.822927,417.833338 269.697909,419.104158 271.28125,420.75 L272.125,416.40625 Z M251.09375,441.8125 C253.239594,443.958344 255.937484,445.03125 259.1875,445.03125 C262.437516,445.03125 265.130198,443.953136 267.265625,441.796875 C269.401052,439.640614 270.46875,436.937516 270.46875,433.6875 C270.46875,430.437484 269.401052,427.739594 267.265625,425.59375 C265.130198,423.447906 262.437516,422.375 259.1875,422.375 C255.937484,422.375 253.239594,423.453114 251.09375,425.609375 C248.947906,427.765636 247.875,430.458317 247.875,433.6875 C247.875,436.937516 248.947906,439.645823 251.09375,441.8125 Z M306.21875,415.59375 C311.427109,415.59375 315.723941,417.307275 319.109375,420.734375 C322.494809,424.161475 324.1875,428.489557 324.1875,433.71875 C324.1875,438.906276 322.494809,443.223941 319.109375,446.671875 C315.723941,450.119809 311.427109,451.84375 306.21875,451.84375 C301.364559,451.84375 297.291683,450.250016 294,447.0625 L293.09375,451 L287.71875,451 L287.71875,404.0625 L294.8125,404.0625 L294.8125,419.625 C298.020849,416.937487 301.822895,415.59375 306.21875,415.59375 Z M297.53125,441.78125 C299.697927,443.947927 302.406234,445.03125 305.65625,445.03125 C308.906266,445.03125 311.598948,443.958344 313.734375,441.8125 C315.869802,439.666656 316.9375,436.968766 316.9375,433.71875 C316.9375,430.468734 315.869802,427.765636 313.734375,425.609375 C311.598948,423.453114 308.906266,422.375 305.65625,422.375 C302.406234,422.375 299.703136,423.458323 297.546875,425.625 C295.390614,427.791677 294.3125,430.489567 294.3125,433.71875 C294.3125,436.927099 295.385406,439.614573 297.53125,441.78125 Z M353.40625,448.84375 C350.843737,450.84376 347.458354,451.84375 343.25,451.84375 C339.041646,451.84375 335.661471,450.770844 333.109375,448.625 C330.557279,446.479156 329.229167,443.614601 329.125,440.03125 L336.0625,440.03125 C336.145834,441.802092 336.869785,443.17187 338.234375,444.140625 C339.598965,445.10938 341.354156,445.59375 343.5,445.59375 C345.458343,445.59375 347.07291,445.192712 348.34375,444.390625 C349.61459,443.588538 350.25,442.48959 350.25,441.09375 C350.25,440.468747 350.09896,439.906252 349.796875,439.40625 C349.49479,438.906248 349.13021,438.50521 348.703125,438.203125 C348.27604,437.90104 347.671879,437.625001 346.890625,437.375 C346.109371,437.124999 345.411461,436.937501 344.796875,436.8125 C344.182289,436.687499 343.354172,436.531251 342.3125,436.34375 C341.249995,436.156249 340.406253,436.000001 339.78125,435.875 C339.156247,435.749999 338.343755,435.546876 337.34375,435.265625 C336.343745,434.984374 335.536461,434.687502 334.921875,434.375 C334.307289,434.062498 333.63542,433.645836 332.90625,433.125 C332.17708,432.604164 331.609377,432.026045 331.203125,431.390625 C330.796873,430.755205 330.453126,429.979171 330.171875,429.0625 C329.890624,428.145829 329.75,427.135422 329.75,426.03125 C329.75,422.927068 330.984363,420.411468 333.453125,418.484375 C335.921887,416.557282 339.15623,415.59375 343.15625,415.59375 C347.15627,415.59375 350.36978,416.598948 352.796875,418.609375 C355.22397,420.619802 356.46875,423.302067 356.53125,426.65625 L349.8125,426.65625 C349.75,425.031242 349.125006,423.786463 347.9375,422.921875 C346.749994,422.057287 345.104177,421.625 343,421.625 C341.041657,421.625 339.489589,422.005205 338.34375,422.765625 C337.197911,423.526045 336.625,424.54166 336.625,425.8125 C336.625,426.312502 336.708332,426.755206 336.875,427.140625 C337.041668,427.526044 337.328123,427.864582 337.734375,428.15625 C338.140627,428.447918 338.52604,428.687499 338.890625,428.875 C339.25521,429.062501 339.796871,429.239582 340.515625,429.40625 C341.234379,429.572918 341.822914,429.703125 342.28125,429.796875 C342.739586,429.890625 343.416662,430.010416 344.3125,430.15625 C347.687517,430.718753 350.114576,431.312497 351.59375,431.9375 C355.135434,433.458341 357.010416,436.135398 357.21875,439.96875 C357.239583,440.218751 357.25,440.489582 357.25,440.78125 C357.25,444.135433 355.968763,446.822907 353.40625,448.84375 Z" id="Tarka-Labs"></path>
            </g>
        </g>
    </g>
</svg>