<?xml version="1.0" encoding="UTF-8"?>
<svg width="368px" height="452px" viewBox="0 0 368 452" version="1.1" xmlns="http://www.w3.org/2000/svg" xmlns:xlink="http://www.w3.org/1999/xlink">
    <!-- Generator: Sketch 52.5 (67469) - http://www.bohemiancoding.com/sketch -->
    <title>Group 29</title>
    <desc>Created with Sketch.</desc>
    <g id="Brand-Document" stroke="none" stroke-width="1" fill="none" fill-rule="evenodd">
        <g id="Doc" transform="translate(-536.000000, -50.000000)" fill="#E74525">
            <g id="Group-29" transform="translate(536.000000, 50.000000)">
                <path d="M209.255953,157.92175 L82.147567,30.8111894 C111.251976,11.3604167 146.22684,-2.84217094e-14 183.862976,-2.84217094e-14 C285.102226,-2.84217094e-14 367.173355,82.0711288 367.173355,183.312553 C367.173355,220.946515 355.815112,255.921379 336.362165,285.027962 L209.255953,157.92175 Z M30.8974262,82.1513873 L132.901885,184.089082 L30.8974262,286.026777 C11.3922131,256.859387 0,221.806661 0,184.089082 C0,146.371503 11.3900328,111.320956 30.8974262,82.1513873 Z M183.121258,234.079208 L285.000654,336.158465 C255.849322,355.68058 220.818072,367.079208 183.121258,367.079208 L183.121258,332.388015 L85.0006541,332.388015 L183.121258,234.079208 Z" id="Combined-Shape"></path>
                <text id="Tarka-Labs" font-family="Mont" font-size="64" font-weight="500">
                    <tspan x="9" y="451">Tarka Labs</tspan>
                </text>
            </g>
        </g>
    </g>
</svg>