<?xml version="1.0" encoding="UTF-8"?>
<svg width="180px" height="45px" viewBox="0 0 180 45" version="1.1" xmlns="http://www.w3.org/2000/svg" xmlns:xlink="http://www.w3.org/1999/xlink">
    <!-- Generator: Sketch 52.5 (67469) - http://www.bohemiancoding.com/sketch -->
    <title>analogy_structure</title>
    <desc>Created with Sketch.</desc>
    <g id="Brand-Document" stroke="none" stroke-width="1" fill="none" fill-rule="evenodd" opacity="0.295968192">
        <g id="Doc" transform="translate(-1025.000000, -551.000000)" fill="#0D0A1A">
            <g id="Group-18" transform="translate(219.000000, 551.000000)">
                <path d="M807.217411,1.12755396 L807.217411,43.7825886 L828.544929,22.4550713 L807.217411,1.12755396 Z M806.602371,0.512513343 L806.524691,0.434833714 L806.602371,0.357154084 L806.602371,0.102035238 L806.85749,0.102035238 L806.959525,-3.55271368e-14 L807.06156,0.102035238 L851.500336,0.102035238 L851.500336,45 L828.743587,45 L806,45 L806.602371,44.3976292 L806.602371,0.512513343 Z M807.676601,0.717075851 L829.099142,22.139617 L829.00135,22.2374084 L850.885295,44.121353 L850.885295,0.717075851 L807.676601,0.717075851 Z M850.278634,44.3849594 L828.881971,22.9876965 L807.484708,44.3849594 L828.743587,44.3849594 L850.278634,44.3849594 Z M874.256838,38.3501304 L874.256838,6.25268739 L890.305711,22.3015606 L874.256838,38.3501304 Z M874.256838,0.271294414 L874.256838,0.102035238 L874.426097,0.102035238 L874.256838,0.271294414 Z M880.28399,0.102035238 L918.539762,0.102035238 L918.539762,38.2459456 L896.450333,16.1570554 L896.394671,16.2127161 L880.28399,0.102035238 Z M912.501146,44.3849594 L896.398054,44.3849594 L896.398054,40.0796751 L884.704287,40.0796751 L896.450333,28.3336295 L912.501146,44.3849594 Z M966.902497,19.6541763 L951.662406,4.41408498 C955.152146,2.08123593 959.345493,0.719536013 963.858046,0.719536013 C975.996487,0.719536013 985.837137,10.5601858 985.837137,22.6986274 C985.837137,27.2111803 984.474822,31.4039122 982.142588,34.8942677 L966.902497,19.6541763 Z M945.573073,10.502495 L957.769328,22.6987504 L945.573688,34.8943907 C943.240839,31.4046503 941.879139,27.2113034 941.879139,22.6987504 C941.879139,18.1855824 943.240839,13.9922355 945.573073,10.502495 Z M976.248224,41.1451715 C972.758483,43.4774055 968.565136,44.8391054 964.052583,44.8391054 L964.052583,40.6949617 L952.306538,40.6949617 L964.052583,28.9489161 L976.248224,41.1451715 Z" id="analogy_structure"></path>
            </g>
        </g>
    </g>
</svg>