<?xml version="1.0" encoding="UTF-8"?>
<svg width="162px" height="30px" viewBox="0 0 162 30" version="1.1" xmlns="http://www.w3.org/2000/svg" xmlns:xlink="http://www.w3.org/1999/xlink">
    <!-- Generator: Sketch 52.5 (67469) - http://www.bohemiancoding.com/sketch -->
    <title>analogy_base</title>
    <desc>Created with Sketch.</desc>
    <g id="Brand-Document" stroke="none" stroke-width="1" fill="none" fill-rule="evenodd" opacity="0.295968192">
        <g id="Doc" transform="translate(-219.000000, -559.000000)" fill="#0D0A1A">
            <g id="Group-18" transform="translate(219.000000, 551.000000)">
                <path d="M0,17.1836737 C0.253670236,15.9561573 0.823704605,14.8655374 1.53155258,13.8491267 C3.5224015,10.9903032 6.21996878,9.16161848 9.64843533,8.38440034 C10.8448086,8.11319873 12.0503599,8.09645876 13.2601827,8.08710819 C16.7073939,8.06042228 20.1546757,8.04935569 23.6019575,8.03089969 C25.3784257,8.02137402 27.154894,8.00575471 28.9313976,8.00004631 C29.568609,7.9980151 30.1996075,8.06248852 30.8110848,8.25622396 C31.1775405,8.37228312 31.4845853,8.58058725 31.744186,8.8409674 C30.4304736,11.1761239 28.5441851,12.7523432 25.8334507,13.1942715 C25.2056645,13.2966375 24.5552506,13.2766756 23.9148621,13.285676 C21.962032,13.3131673 20.0090253,13.3291018 18.056054,13.3435304 C17.8919414,13.3447211 17.8126915,13.3839445 17.7648592,13.5549514 C17.1757978,15.6607913 16.5972207,17.7690476 16.1889337,19.9186635 C15.7838238,22.0515394 15.5366842,24.1981786 15.6652844,26.3735349 C15.7460522,27.7400141 15.9917445,29.0716827 16.5898428,30.3182505 C17.1402854,31.4653941 17.9397737,32.3773375 19.1387592,32.8955063 C19.8463601,33.2013085 20.5756708,33.2645211 21.3296214,33.0915181 C21.8895245,32.9630265 22.3009532,32.6134482 22.6942374,32.2300747 C23.2567174,31.681753 23.595215,30.9935929 23.8927992,30.2879925 C24.0917888,29.8162263 24.2417811,29.3235177 24.3986571,28.8354669 C24.4405589,28.7050842 24.4941806,28.6651254 24.6291348,28.666106 C25.3982647,28.6716743 25.8346509,28.9643437 26.0929102,29.6861588 C26.384811,30.50204 26.378704,31.3379181 26.192458,32.1703641 C25.755048,34.1256843 24.7461564,35.7141609 23.0542331,36.8381206 C22.0571318,37.5005053 20.9417735,37.8443052 19.7505189,37.954726 C18.5312003,38.0677734 17.3293908,37.9735672 16.1560335,37.6218176 C14.0239469,36.9826517 12.6505763,35.571801 11.9324559,33.5005968 C11.6492037,32.683665 11.4908452,31.8410629 11.4509555,30.9830867 C11.413678,30.179883 11.4088418,29.3730022 11.4376824,28.5694484 C11.476619,27.4835913 11.6735258,26.4145793 11.88127,25.3494546 C12.4113088,22.6316601 12.958433,19.9170875 13.4712804,17.1961061 C13.703276,15.9650526 13.870248,14.7218818 14.0657075,13.4840692 C14.0717792,13.4455112 14.0664841,13.4052022 14.0664841,13.3359309 C13.9797505,13.3359309 13.8994416,13.336141 13.8191327,13.3358959 C12.1837257,13.3306428 10.5482834,13.3250044 8.91287637,13.321012 C8.84922936,13.3208369 8.78007545,13.3223428 8.72264134,13.3454216 C7.21728182,13.9513176 5.81002271,14.7252088 4.64979732,15.8675545 C4.19028918,16.3199891 3.82376287,16.8660695 3.42041802,17.3738371 C3.11870364,17.7536384 2.84109959,18.1534016 2.52431185,18.5200701 C2.25242649,18.8347326 1.89917321,19.0481848 1.48601479,19.147504 C1.05714759,19.2505704 0.678018957,19.1489048 0.411252192,18.8028986 C0.240079499,18.5808663 0.134813058,18.3088242 0,18.0591954 L0,17.1836737 Z M62.8382321,20.8352285 L62.8382321,24.0620039 L55.1424587,24.0620039 L55.1424587,32.118215 L51.7354645,32.118215 L51.7354645,24.0620039 L44,24.0620039 L44,20.8352285 L51.7354645,20.8352285 L51.7354645,13 L55.1424587,13 L55.1424587,20.8352285 L62.8382321,20.8352285 Z M94.5983209,35.7562967 C94.5983209,36.3316645 94.3718709,36.828468 93.9178156,37.2455519 C93.466071,37.6614804 92.9496264,37.8706 92.3742586,37.8706 C91.611723,37.8706 90.9785874,37.4107679 90.4760071,36.4899484 C89.7989679,35.2386968 89.0803358,33.576138 88.3166448,31.5034276 C87.5841485,29.2874528 86.3317415,25.9854425 84.5617346,21.5973966 L82.0580759,29.281676 C81.0067011,32.4323346 80.0142494,34.9001772 79.0795656,36.6840484 C78.6185781,37.5609643 78.0004621,38 77.2229069,38 C76.6475391,38 76.1334052,37.7885697 75.6805053,37.3645536 C75.22645,36.9393823 75,36.4391127 75,35.8637449 C75,35.4605253 77.3673265,28.9639529 82.1019795,16.3740276 L82.1019795,13.6219672 L82.1019795,11.4961103 C82.1019795,9.16459986 82.922283,8 84.5617346,8 C85.511438,8 86.1226219,8.38819995 86.3964415,9.16459986 C86.5397058,9.55279982 86.6124933,10.3303551 86.6124933,11.4961103 L86.6124933,16.3312794 C87.7204806,18.7621505 89.1947162,22.1438805 91.0363552,26.4753139 C93.4117692,32.0730186 94.5983209,35.1659093 94.5983209,35.7562967 Z M122.838232,20.8352285 L122.838232,24.0620039 L115.142459,24.0620039 L115.142459,32.118215 L111.735464,32.118215 L111.735464,24.0620039 L104,24.0620039 L104,20.8352285 L111.735464,20.8352285 L111.735464,13 L115.142459,13 L115.142459,20.8352285 L122.838232,20.8352285 Z M159.678784,38 L133.834339,38 C133.834339,38 132.657673,35.9522222 132.05545,34.78 C131.961006,34.5955556 131.991006,34.4966667 132.116562,34.35 C135.771006,30.0955556 139.422117,25.8366667 143.064339,21.5722222 C143.166562,21.4522222 143.233228,21.2622222 143.233228,21.1044444 C143.243228,17.54 143.241006,13.9766667 143.753228,10.4122222 L143.753228,10.2222222 L141.531006,10.2222222 L141.531006,8 L152.642117,8 L152.642117,10.2222222 L150.419895,10.2222222 L150.419895,10.5555556 C150.419895,14.0466667 150.421006,17.54 150.41545,21.0322222 C150.414339,21.2411111 150.47545,21.3933333 150.608784,21.5488889 C153.82545,25.2944444 157.036562,29.0455556 160.251006,32.7933333 C160.669895,33.2822222 161.103228,33.7566667 161.531006,34.2366667 L161.531006,34.3533333 C161.473228,34.4522222 161.411006,34.5488889 161.359895,34.6488889 C160.798784,35.7655556 160.238784,36.8833333 159.678784,38 Z" id="analogy_base"></path>
            </g>
        </g>
    </g>
</svg>