<?xml version="1.0" encoding="UTF-8"?>
<svg width="467px" height="83px" viewBox="0 0 467 83" version="1.1" xmlns="http://www.w3.org/2000/svg" xmlns:xlink="http://www.w3.org/1999/xlink">
    <!-- Generator: Sketch 52.5 (67469) - http://www.bohemiancoding.com/sketch -->
    <title>Group 26</title>
    <desc>Created with Sketch.</desc>
    <g id="Brand-Document" stroke="none" stroke-width="1" fill="none" fill-rule="evenodd">
        <g id="Doc" transform="translate(-185.000000, -1958.000000)">
            <g id="Group-5" transform="translate(135.000000, 1674.000000)">
                <g id="Group-26" transform="translate(50.000000, 283.000000)">
                    <path d="M47.5210473,36.7524176 L18.5791888,7.97592332 C25.2065079,3.57171518 33.1694646,1 41.7389364,1 C64.7904243,1 83.4776119,19.5804152 83.4776119,42.5001945 C83.4776119,51.0207032 80.8911184,58.9381622 76.4616014,65.527615 L47.5210473,36.7524176 Z M7.01601049,19.4718663 L30.1770624,42.5005836 L7.01601049,65.5293009 C2.58649355,58.9398482 -1.59872116e-14,51.0210923 -1.59872116e-14,42.5005836 C-1.59872116e-14,33.9800749 2.58649355,26.061319 7.01601049,19.4718663 Z M64.8989449,77.0253736 C58.2716258,81.4295817 50.3086691,84 41.7391973,84 L41.7391973,76.1746196 L19.4337882,76.1746196 L41.7391973,53.9966562 L64.8989449,77.0253736 Z" id="Combined-Shape" fill="#E54525"></path>
                    <path d="M138.60791,20.0869141 L138.640625,27.2841797 L124.867676,27.2841797 L124.867676,67 L117.179688,67 L117.179688,27.2841797 L103.439453,27.2841797 L103.439453,20.0869141 L138.60791,20.0869141 Z M170.733887,30.784668 L176.458984,30.8173828 L176.458984,66.9672852 L170.472168,66.9672852 L169.752441,62.5834961 C168.094881,64.2628665 166.142915,65.5659947 163.896484,66.4929199 C161.650054,67.4198451 159.22918,67.8833008 156.633789,67.8833008 C153.100568,67.8833008 149.894546,67.0599854 147.015625,65.4133301 C144.136704,63.7666747 141.879403,61.4875634 140.243652,58.5759277 C138.607902,55.6642921 137.790039,52.4310074 137.790039,48.8759766 C137.790039,45.2991358 138.607902,42.065851 140.243652,39.1760254 C141.879403,36.2861997 144.136704,34.0234457 147.015625,32.3876953 C149.894546,30.7519449 153.100568,29.934082 156.633789,29.934082 C159.25099,29.934082 161.693674,30.4029901 163.961914,31.3408203 C166.230155,32.2786505 168.193026,33.6090409 169.850586,35.3320312 L170.733887,30.784668 Z M148.716797,57.3818359 C150.963227,59.6282664 153.787581,60.7514648 157.189941,60.7514648 C160.592302,60.7514648 163.411203,59.622814 165.646729,57.3654785 C167.882254,55.108143 169,52.2783373 169,48.8759766 C169,45.4736158 167.882254,42.6492625 165.646729,40.402832 C163.411203,38.1564015 160.592302,37.0332031 157.189941,37.0332031 C153.787581,37.0332031 150.963227,38.1618539 148.716797,40.4191895 C146.470366,42.676525 145.347168,45.4954258 145.347168,48.8759766 C145.347168,52.2783373 146.470366,55.1135954 148.716797,57.3818359 Z M204.430176,30.6210938 L207.63623,30.6210938 L207.63623,37.6547852 L203.710449,37.6547852 C200.657049,37.6547852 198.356128,38.5053626 196.807617,40.206543 C195.259107,41.9077233 194.484863,44.4049315 194.484863,47.6982422 L194.484863,67 L187.058594,67 L187.058594,30.8173828 L192.09668,30.8173828 L193.339844,35.7573242 C195.913424,32.3331535 199.610165,30.6210938 204.430176,30.6210938 Z M236.94873,67 L226.120117,51.5585938 L221.605469,51.5585938 L221.605469,67 L214.179199,67 L214.179199,17.8623047 L221.605469,17.8623047 L221.605469,44.8193359 L226.185547,44.8193359 L235.93457,30.8173828 L244.767578,30.8173828 L232.499512,48.1889648 L246.043457,67 L236.94873,67 Z M280.557617,30.784668 L286.282715,30.8173828 L286.282715,66.9672852 L280.295898,66.9672852 L279.576172,62.5834961 C277.918612,64.2628665 275.966645,65.5659947 273.720215,66.4929199 C271.473784,67.4198451 269.05291,67.8833008 266.45752,67.8833008 C262.924299,67.8833008 259.718276,67.0599854 256.839355,65.4133301 C253.960435,63.7666747 251.703133,61.4875634 250.067383,58.5759277 C248.431632,55.6642921 247.61377,52.4310074 247.61377,48.8759766 C247.61377,45.2991358 248.431632,42.065851 250.067383,39.1760254 C251.703133,36.2861997 253.960435,34.0234457 256.839355,32.3876953 C259.718276,30.7519449 262.924299,29.934082 266.45752,29.934082 C269.07472,29.934082 271.517404,30.4029901 273.785645,31.3408203 C276.053885,32.2786505 278.016756,33.6090409 279.674316,35.3320312 L280.557617,30.784668 Z M258.540527,57.3818359 C260.786958,59.6282664 263.611311,60.7514648 267.013672,60.7514648 C270.416033,60.7514648 273.234933,59.622814 275.470459,57.3654785 C277.705984,55.108143 278.82373,52.2783373 278.82373,48.8759766 C278.82373,45.4736158 277.705984,42.6492625 275.470459,40.402832 C273.234933,38.1564015 270.416033,37.0332031 267.013672,37.0332031 C263.611311,37.0332031 260.786958,38.1618539 258.540527,40.4191895 C256.294097,42.676525 255.170898,45.4954258 255.170898,48.8759766 C255.170898,52.2783373 256.294097,55.1135954 258.540527,57.3818359 Z M322.138184,59.8354492 L341.63623,59.8354492 L341.63623,67 L314.41748,67 L314.41748,20.0869141 L322.138184,20.0869141 L322.138184,59.8354492 Z M377.458984,30.784668 L383.184082,30.8173828 L383.184082,66.9672852 L377.197266,66.9672852 L376.477539,62.5834961 C374.819979,64.2628665 372.868013,65.5659947 370.621582,66.4929199 C368.375152,67.4198451 365.954277,67.8833008 363.358887,67.8833008 C359.825666,67.8833008 356.619643,67.0599854 353.740723,65.4133301 C350.861802,63.7666747 348.6045,61.4875634 346.96875,58.5759277 C345.333,55.6642921 344.515137,52.4310074 344.515137,48.8759766 C344.515137,45.2991358 345.333,42.065851 346.96875,39.1760254 C348.6045,36.2861997 350.861802,34.0234457 353.740723,32.3876953 C356.619643,30.7519449 359.825666,29.934082 363.358887,29.934082 C365.976087,29.934082 368.418771,30.4029901 370.687012,31.3408203 C372.955252,32.2786505 374.918123,33.6090409 376.575684,35.3320312 L377.458984,30.784668 Z M355.441895,57.3818359 C357.688325,59.6282664 360.512678,60.7514648 363.915039,60.7514648 C367.3174,60.7514648 370.136301,59.622814 372.371826,57.3654785 C374.607352,55.108143 375.725098,52.2783373 375.725098,48.8759766 C375.725098,45.4736158 374.607352,42.6492625 372.371826,40.402832 C370.136301,38.1564015 367.3174,37.0332031 363.915039,37.0332031 C360.512678,37.0332031 357.688325,38.1618539 355.441895,40.4191895 C353.195464,42.676525 352.072266,45.4954258 352.072266,48.8759766 C352.072266,52.2783373 353.195464,55.1135954 355.441895,57.3818359 Z M413.150879,29.934082 C418.60338,29.934082 423.101626,31.727928 426.645752,35.3156738 C430.189878,38.9034196 431.961914,43.4343802 431.961914,48.9086914 C431.961914,54.3393826 430.189878,58.8594383 426.645752,62.4689941 C423.101626,66.0785499 418.60338,67.8833008 413.150879,67.8833008 C408.069148,67.8833008 403.805356,66.2148604 400.359375,62.8779297 L399.410645,67 L393.783691,67 L393.783691,17.8623047 L401.209961,17.8623047 L401.209961,34.1542969 C404.568702,31.3408062 408.548968,29.934082 413.150879,29.934082 Z M404.056152,57.3491211 C406.324393,59.6173616 409.159651,60.7514648 412.562012,60.7514648 C415.964372,60.7514648 418.783273,59.6282664 421.018799,57.3818359 C423.254324,55.1354054 424.37207,52.3110522 424.37207,48.9086914 C424.37207,45.5063306 423.254324,42.676525 421.018799,40.4191895 C418.783273,38.1618539 415.964372,37.0332031 412.562012,37.0332031 C409.159651,37.0332031 406.329845,38.1673064 404.07251,40.4355469 C401.815174,42.7037874 400.686523,45.5281406 400.686523,48.9086914 C400.686523,52.2674322 401.809722,55.0808806 404.056152,57.3491211 Z M462.550293,64.7426758 C459.867662,66.8364362 456.32359,67.8833008 451.917969,67.8833008 C447.512348,67.8833008 443.973728,66.7601024 441.302002,64.5136719 C438.630276,62.2672414 437.239909,59.2684107 437.130859,55.5170898 L444.393555,55.5170898 C444.480795,57.3709403 445.238681,58.8049266 446.667236,59.8190918 C448.095792,60.833257 449.933257,61.340332 452.179688,61.340332 C454.229828,61.340332 455.920078,60.9204957 457.250488,60.0808105 C458.580899,59.2411254 459.246094,58.0906649 459.246094,56.6293945 C459.246094,55.9750944 459.087974,55.3862331 458.771729,54.862793 C458.455483,54.3393529 458.073814,53.9195166 457.626709,53.6032715 C457.179604,53.2870264 456.547123,52.9980482 455.729248,52.7363281 C454.911373,52.4746081 454.180749,52.278321 453.537354,52.1474609 C452.893958,52.0166009 452.027024,51.8530283 450.936523,51.6567383 C449.824213,51.4604482 448.940921,51.2968757 448.286621,51.1660156 C447.632321,51.0351556 446.781744,50.8225112 445.734863,50.5280762 C444.687983,50.2336411 443.842858,49.9228532 443.199463,49.5957031 C442.556068,49.2685531 441.852706,48.8323595 441.089355,48.2871094 C440.326005,47.7418593 439.731692,47.1366407 439.306396,46.4714355 C438.881101,45.8062304 438.521242,44.9938199 438.226807,44.0341797 C437.932372,43.0745395 437.785156,42.0167701 437.785156,40.8608398 C437.785156,37.6111491 439.07738,34.9776305 441.661865,32.9602051 C444.246351,30.9427796 447.632303,29.934082 451.819824,29.934082 C456.007345,29.934082 459.371488,30.986399 461.912354,33.0910645 C464.453219,35.1957299 465.756347,38.0037259 465.821777,41.5151367 L458.788086,41.5151367 C458.722656,39.8139563 458.068366,38.5108281 456.825195,37.6057129 C455.582025,36.7005977 453.85906,36.2480469 451.65625,36.2480469 C449.60611,36.2480469 447.981289,36.6460735 446.781738,37.4421387 C445.582188,38.2382039 444.982422,39.3014256 444.982422,40.6318359 C444.982422,41.1552761 445.069661,41.6187317 445.244141,42.0222168 C445.418621,42.4257019 445.718504,42.7801092 446.143799,43.0854492 C446.569094,43.3907893 446.972573,43.6416006 447.354248,43.8378906 C447.735923,44.0341807 448.302975,44.2195629 449.05542,44.394043 C449.807865,44.568523 450.423988,44.7048335 450.903809,44.8029785 C451.383629,44.9011235 452.092443,45.0265292 453.030273,45.1791992 C456.563494,45.7680694 459.104322,46.3896452 460.652832,47.0439453 C464.360533,48.6360757 466.323404,51.4386193 466.541504,55.4516602 C466.563314,55.7133802 466.574219,55.996906 466.574219,56.3022461 C466.574219,59.8136569 465.232924,62.6271053 462.550293,64.7426758 Z" id="Tarka-Labs" fill="#E74525"></path>
                </g>
            </g>
        </g>
    </g>
</svg>