<?xml version="1.0" encoding="utf-8"?>
<!-- Generator: Adobe Illustrator 16.0.0, SVG Export Plug-In . SVG Version: 6.00 Build 0)  -->
<!DOCTYPE svg PUBLIC "-//W3C//DTD SVG 1.1//EN" "http://www.w3.org/Graphics/SVG/1.1/DTD/svg11.dtd">
<svg version="1.1" id="Layer_1" xmlns="http://www.w3.org/2000/svg" xmlns:xlink="http://www.w3.org/1999/xlink" x="0px" y="0px"
	 width="250px" height="250px" viewBox="0 0 250 250" enable-background="new 0 0 250 250" xml:space="preserve">
<g>
	<g>
		<path fill="#E97125" d="M61.734,119.076L38.934,96.635l-3.179,49.97c6.002,1.733,10.107,3.997,11.685,4.951L61.734,119.076z"/>
		<path fill="#E97125" d="M34.258,70.92L8.23,106.087l11.924,38.289c4.829,0.011,9.188,0.638,12.948,1.525L34.258,70.92z"/>
		<path fill="#E97125" d="M9.567,120.963L0,147.688l0.153,0.181c6.277-2.225,12.182-3.23,17.554-3.443L9.567,120.963z"/>
		<path fill="#707277" d="M35.368,178.979l12.071-27.424c-1.577-0.954-5.683-3.218-11.685-4.951l-2.047,32.375H35.368z"/>
		<path fill="#707277" d="M32.594,178.979l0.509-33.078c-3.761-0.888-8.119-1.515-12.948-1.525l10.771,34.604H32.594z"/>
		<path fill="#707277" d="M29.701,178.979l-11.994-34.555c-5.372,0.213-11.276,1.219-17.554,3.443l26.877,31.111H29.701z"/>
	</g>
	<path fill-rule="evenodd" clip-rule="evenodd" fill="#E97125" d="M81.86,165.815c-1.473-0.024-2.941-0.307-4.345-0.996
		c-1.668-0.814-2.883-2.147-3.541-4.076c-0.438-1.313-0.483-2.678-0.313-4.057c0.352-2.813,1.56-5.093,3.436-6.948
		c1.212-1.194,2.587-2.041,4.119-2.577c2.26-0.79,4.554-0.995,6.872-0.41c1.316,0.33,2.549,0.915,3.568,1.949
		c1.191,1.201,1.922,2.685,2.072,4.498c0.201,2.427-0.296,4.673-1.47,6.713c-1.184,2.078-2.82,3.575-4.808,4.581
		C85.697,165.388,83.842,165.791,81.86,165.815z M88.44,153.832c0.015-1.253-0.09-2.249-0.456-3.189
		c-0.477-1.225-1.302-1.956-2.479-2.089c-0.463-0.048-0.947-0.021-1.399,0.066c-1.149,0.227-2.026,0.972-2.775,1.95
		c-0.612,0.814-1.075,1.74-1.402,2.739c-0.536,1.637-0.854,3.329-0.996,5.063c-0.094,1.097,0.031,2.18,0.414,3.203
		c0.474,1.222,1.288,1.956,2.469,2.131c0.825,0.121,1.622-0.024,2.378-0.425c1.041-0.558,1.817-1.435,2.427-2.518
		C87.839,158.577,88.318,156.141,88.44,153.832z"/>
	<path fill-rule="evenodd" clip-rule="evenodd" fill="#E97125" d="M226.9,151.997c-0.146-0.31-0.271-0.585-0.394-0.853
		c-0.818-1.751-2.109-2.607-3.84-2.649c-2.409-0.06-4.182,1.184-5.396,3.46c-1.118,2.106-1.668,4.415-1.501,6.9
		c0.018,0.248,0.053,0.502,0.091,0.745c0.463,2.594,2.18,3.906,4.262,3.973c1.361,0.042,2.572-0.449,3.68-1.313
		c0.734-0.574,1.361-1.292,1.956-2.04c0.153-0.188,0.293-0.376,0.471-0.589c0.65,0.296,1.184,0.78,1.786,1.243
		c-0.084,0.167-0.144,0.313-0.23,0.436c-1.146,1.595-2.583,2.771-4.275,3.509c-2.607,1.143-5.291,1.288-8.004,0.522
		c-0.943-0.268-1.817-0.734-2.597-1.396c-1.759-1.494-2.674-3.468-2.604-5.995c0.091-3.234,1.288-5.874,3.384-8.019
		c1.881-1.907,4.105-2.977,6.591-3.37c1.455-0.229,2.903-0.243,4.352,0.042c1.961,0.394,3.472,1.542,4.554,3.426
		c0.06,0.115,0.108,0.24,0.153,0.352C228.912,150.813,227.715,151.604,226.9,151.997z"/>
	<polygon fill-rule="evenodd" clip-rule="evenodd" fill="#E97125" points="73.738,146.88 58.587,146.88 58.054,149.163 
		63.12,149.163 60.317,165.353 65.379,165.353 68.346,149.163 73.331,149.118 	"/>
	<polygon fill-rule="evenodd" clip-rule="evenodd" fill="#E97125" points="194.282,146.88 179.127,146.88 178.595,149.163 
		183.66,149.163 180.854,165.353 185.919,165.353 188.889,149.163 193.871,149.118 	"/>
	<path fill-rule="evenodd" clip-rule="evenodd" fill="#E97125" d="M119.969,146.88l-11.359,18.936l-2.106-9.47h-0.278l-5.686,9.47
		l-4.32-18.936h5.34l2.009,9.853c0,0,0.122,0.561,0.397,0l1.762-3.147l-1.448-6.705h5.372l2.005,9.644c0,0,0.153,0.418,0.429-0.178
		l5.41-9.466H119.969z"/>
	<polygon fill-rule="evenodd" clip-rule="evenodd" fill="#E97125" points="133.578,146.88 121.866,146.88 118.611,165.331 
		130.675,165.331 131.064,163.093 124.237,163.041 125.32,157.118 131.455,157.143 131.807,154.762 125.654,154.717 
		126.682,149.139 133.168,149.163 	"/>
	<polygon fill-rule="evenodd" clip-rule="evenodd" fill="#E97125" points="208.887,146.88 197.168,146.88 193.913,165.331 
		205.983,165.331 206.37,163.093 199.543,163.041 200.629,157.118 206.763,157.143 207.111,154.762 200.963,154.717 201.99,149.139 
		208.473,149.163 	"/>
	<path fill-rule="evenodd" clip-rule="evenodd" fill="#E97125" d="M137.962,146.88l-3.259,18.451h4.94l2.921-16.206
		c0,0,0.027-0.178,0.278-0.178c0,0,1.604,0,2.36,0.07c0,0,1.838,0.229,2.27,1.695c0,0,0.836,2.225-1.249,4.358
		c0,0-1.592,1.348-4.297,0.943c0,0-0.136-0.034,0.031,0.296l2.82,9.021h5.752l-2.998-7.739c0,0-0.153-0.265,0.16-0.243
		c0,0,3.791-0.718,4.798-3.973c0,0,1.497-3.59-1.748-5.599c0,0-1.309-0.891-4.474-0.897
		C143.104,146.865,137.962,146.88,137.962,146.88z"/>
	<path fill="#E97125" d="M166.2,151.301l2.148-1.344c0,0,0.136-0.014,0-0.341c0,0-1.17-2.785-4.186-3.123
		c-3.015-0.341-7.15,0.999-8.463,5.479c0,0-0.989,3.099,1.65,4.847c0,0,2.489,1.524,3.182,1.876c0,0,2.733,1.557,0.943,3.674
		c0,0-1.591,2.099-3.725,0.717c0,0-0.892-0.456-1.435-2.238c0,0-0.015-0.244-0.338,0.031l-2.374,1.295c0,0-0.265-0.087,0.368,1.052
		c0,0,1.449,2.973,6.177,2.517c0,0,4.829-0.191,6.563-4.564c0,0,1.521-2.903-0.47-5.177c0,0-1.17-1.003-2.963-1.911
		c0,0-2.782-1.292-2.872-2.378c0,0-0.369-2.1,1.778-2.852c0,0,1.358-0.574,2.81,0.418c0,0,0.662,0.334,1.049,1.82
		C166.044,151.099,166.058,151.388,166.2,151.301z"/>
	<polygon fill-rule="evenodd" clip-rule="evenodd" fill="#E97125" points="250,146.782 244.813,146.782 243.413,154.622 
		237.609,154.622 238.946,146.782 233.821,146.782 230.531,165.353 235.632,165.353 237.136,157.143 242.88,157.143 
		241.474,165.353 246.706,165.353 	"/>
	<g>
		<path fill="#707277" d="M49.685,173.12h-1.688l0.118-0.704h4.104l-0.118,0.704h-1.702l-0.979,5.859h-0.717L49.685,173.12z"/>
		<path fill="#707277" d="M54.476,179.08c-1.497,0-2.201-1.274-2.201-2.663c0-1.139,0.391-2.354,1.048-3.154
			c0.509-0.582,1.247-0.951,2.006-0.951c1.553,0,2.189,1.281,2.189,2.685c0,1.11-0.365,2.326-1.009,3.103
			c-0.513,0.623-1.205,0.981-2.026,0.981H54.476z M54.569,178.401c1.235,0,2.183-1.783,2.183-3.367c0-0.933-0.265-2.043-1.521-2.043
			c-1.309,0-2.207,1.849-2.207,3.355c0,1.072,0.414,2.055,1.542,2.055H54.569z"/>
		<path fill="#707277" d="M59.228,178.979l-0.289-6.563h0.71l0.14,3.931c0.014,0.85,0,1.299,0,1.703h0.014
			c0.133-0.425,0.271-0.843,0.585-1.654l1.605-3.979h0.766l0.118,3.774c0.028,0.85,0.028,1.424,0.014,1.849h0.015
			c0.174-0.561,0.341-1.086,0.57-1.682l1.553-3.941h0.756l-2.688,6.563H62.34l-0.143-3.732c-0.038-0.767-0.028-1.135,0.014-1.888
			h-0.027c-0.191,0.624-0.338,1.132-0.582,1.724l-1.615,3.896H59.228z"/>
		<path fill="#707277" d="M69.334,175.895h-2.106l-0.39,2.388h2.367l-0.121,0.697h-3.078l1.101-6.563h2.948l-0.122,0.689h-2.228
			l-0.352,2.104h2.096L69.334,175.895z"/>
		<path fill="#707277" d="M71.646,172.518c0.353-0.091,0.832-0.14,1.261-0.14c0.574,0,1.068,0.157,1.379,0.48
			c0.265,0.247,0.432,0.627,0.432,1.079c0,0.951-0.641,1.661-1.372,1.897l-0.014,0.018c0.418,0.153,0.603,0.641,0.644,1.316
			c0.063,0.912,0.102,1.546,0.185,1.811h-0.741c-0.027-0.14-0.094-0.833-0.132-1.588c-0.042-0.909-0.338-1.274-0.912-1.274h-0.641
			l-0.467,2.862h-0.714L71.646,172.518z M71.852,175.49h0.634c0.905,0,1.486-0.672,1.486-1.448c0-0.71-0.467-1.023-1.121-1.023
			c-0.282,0-0.456,0.028-0.596,0.073L71.852,175.49z"/>
		<path fill="#707277" d="M75.653,177.963c0.307,0.243,0.748,0.421,1.229,0.421c0.651,0,1.25-0.442,1.25-1.226
			c0-0.498-0.24-0.86-0.85-1.226c-0.738-0.46-1.146-0.985-1.146-1.685c0-1.177,0.892-1.926,1.95-1.926
			c0.567,0,0.988,0.185,1.187,0.341l-0.257,0.658c-0.178-0.129-0.536-0.316-0.996-0.31c-0.724,0-1.148,0.532-1.148,1.068
			c0,0.533,0.296,0.836,0.897,1.216c0.714,0.441,1.104,0.954,1.104,1.754c0,1.136-0.786,2.03-2.089,2.03
			c-0.584-0.007-1.152-0.209-1.389-0.456L75.653,177.963z"/>
		<path fill="#707277" d="M83.831,173.12H82.14l0.121-0.704h4.104l-0.121,0.704h-1.699l-0.981,5.859h-0.707L83.831,173.12z"/>
		<path fill="#707277" d="M89.76,175.895h-2.103l-0.394,2.388h2.371l-0.122,0.697h-3.077l1.097-6.563h2.952l-0.118,0.689h-2.235
			l-0.352,2.104h2.103L89.76,175.895z"/>
		<path fill="#707277" d="M94.979,178.773c-0.327,0.16-0.849,0.307-1.496,0.307c-1.459,0-2.347-1.048-2.347-2.723
			c0-1.236,0.438-2.413,1.229-3.165c0.599-0.57,1.341-0.87,2.19-0.87c0.633,0,1.1,0.185,1.249,0.31l-0.229,0.648
			c-0.212-0.146-0.623-0.269-1.142-0.269c-0.606,0-1.208,0.261-1.657,0.738c-0.543,0.578-0.885,1.497-0.885,2.5
			c0,1.169,0.474,2.141,1.762,2.141c0.438,0,0.923-0.098,1.232-0.282L94.979,178.773z"/>
		<path fill="#707277" d="M98.074,172.416l-0.463,2.765h2.659l0.464-2.765h0.713l-1.104,6.563h-0.706l0.504-3.085h-2.652
			l-0.519,3.085h-0.714l1.1-6.563H98.074z"/>
		<path fill="#707277" d="M102.158,178.979l1.1-6.563h0.783l1.316,3.722c0.258,0.745,0.39,1.257,0.505,1.825l0.014-0.011
			c0.038-0.589,0.104-1.135,0.261-2.051l0.575-3.485h0.675l-1.1,6.563h-0.703l-1.327-3.712c-0.268-0.804-0.4-1.264-0.525-1.887
			l-0.031,0.007c-0.06,0.616-0.149,1.271-0.296,2.162l-0.578,3.43H102.158z"/>
		<path fill="#707277" d="M110.44,179.08c-1.49,0-2.197-1.274-2.197-2.663c0-1.139,0.387-2.354,1.045-3.154
			c0.508-0.582,1.246-0.951,2.002-0.951c1.556,0,2.187,1.281,2.187,2.685c0,1.11-0.359,2.326-1,3.103
			c-0.519,0.623-1.211,0.981-2.033,0.981H110.44z M110.534,178.401c1.236,0,2.18-1.783,2.18-3.367c0-0.933-0.269-2.043-1.525-2.043
			c-1.306,0-2.196,1.849-2.196,3.355c0,1.072,0.414,2.055,1.535,2.055H110.534z"/>
		<path fill="#707277" d="M115.446,172.416h0.711l-0.985,5.859h2.329l-0.115,0.704h-3.043L115.446,172.416z"/>
		<path fill="#707277" d="M120.609,179.08c-1.493,0-2.193-1.274-2.193-2.663c0-1.139,0.384-2.354,1.049-3.154
			c0.504-0.582,1.242-0.951,1.994-0.951c1.557,0,2.193,1.281,2.193,2.685c0,1.11-0.361,2.326-1.01,3.103
			c-0.508,0.623-1.208,0.981-2.022,0.981H120.609z M120.707,178.401c1.236,0,2.176-1.783,2.176-3.367
			c0-0.933-0.261-2.043-1.531-2.043c-1.303,0-2.19,1.849-2.19,3.355c0,1.072,0.411,2.055,1.532,2.055H120.707z"/>
		<path fill="#707277" d="M128.777,178.693c-0.338,0.153-0.954,0.352-1.629,0.352c-0.818,0-1.452-0.265-1.891-0.818
			c-0.442-0.546-0.585-1.264-0.585-1.911c0-1.086,0.383-2.235,1.128-2.994c0.62-0.609,1.452-0.971,2.381-0.971
			c0.707,0,1.185,0.185,1.365,0.303l-0.24,0.679c-0.292-0.167-0.686-0.285-1.208-0.285c-0.689,0-1.313,0.285-1.797,0.801
			c-0.543,0.574-0.87,1.518-0.87,2.402c0,1.264,0.564,2.103,1.853,2.103c0.334,0,0.668-0.077,0.874-0.185l0.334-1.957h-1.177
			l0.114-0.661h1.87L128.777,178.693z"/>
		<path fill="#707277" d="M131.5,178.979l0.452-2.729l-1.117-3.834h0.766l0.558,2.124c0.146,0.581,0.194,0.846,0.243,1.097h0.015
			c0.146-0.271,0.337-0.641,0.616-1.124l1.253-2.097h0.832l-2.465,3.823l-0.456,2.74H131.5z"/>
		<path fill="#707277" d="M141.412,178.773c-0.327,0.16-0.85,0.307-1.504,0.307c-1.459,0-2.347-1.048-2.347-2.723
			c0-1.236,0.438-2.413,1.229-3.165c0.603-0.57,1.344-0.87,2.19-0.87c0.637,0,1.1,0.185,1.25,0.31L142,173.28
			c-0.212-0.146-0.623-0.269-1.135-0.269c-0.605,0-1.215,0.261-1.664,0.738c-0.543,0.578-0.877,1.497-0.877,2.5
			c0,1.169,0.466,2.141,1.754,2.141c0.438,0,0.923-0.098,1.236-0.282L141.412,178.773z"/>
		<path fill="#707277" d="M144.8,179.08c-1.494,0-2.197-1.274-2.197-2.663c0-1.139,0.387-2.354,1.048-3.154
			c0.509-0.582,1.246-0.951,1.998-0.951c1.557,0,2.19,1.281,2.19,2.685c0,1.11-0.362,2.326-1.007,3.103
			c-0.512,0.623-1.204,0.981-2.022,0.981H144.8z M144.896,178.401c1.232,0,2.176-1.783,2.176-3.367c0-0.933-0.264-2.043-1.521-2.043
			c-1.306,0-2.197,1.849-2.197,3.355c0,1.072,0.411,2.055,1.532,2.055H144.896z"/>
		<path fill="#707277" d="M148.702,178.979l1.101-6.563h0.783l1.322,3.722c0.255,0.745,0.38,1.257,0.509,1.825l0.014-0.011
			c0.035-0.589,0.094-1.135,0.251-2.051l0.578-3.485h0.675l-1.104,6.563h-0.703l-1.316-3.712c-0.278-0.804-0.407-1.264-0.532-1.887
			l-0.028,0.007c-0.059,0.616-0.156,1.271-0.299,2.162l-0.574,3.43H148.702z"/>
		<path fill="#707277" d="M156.63,173.12h-1.696l0.122-0.704h4.102l-0.118,0.704h-1.699l-0.979,5.859h-0.71L156.63,173.12z"/>
		<path fill="#707277" d="M160.316,172.518c0.358-0.091,0.836-0.14,1.264-0.14c0.578,0,1.076,0.157,1.382,0.48
			c0.265,0.247,0.425,0.627,0.425,1.079c0,0.951-0.641,1.661-1.364,1.897l-0.011,0.018c0.411,0.153,0.599,0.641,0.645,1.316
			c0.059,0.912,0.101,1.546,0.174,1.811h-0.734c-0.035-0.14-0.095-0.833-0.14-1.588c-0.038-0.909-0.331-1.274-0.905-1.274h-0.637
			l-0.47,2.862h-0.714L160.316,172.518z M160.528,175.49h0.634c0.898,0,1.483-0.672,1.483-1.448c0-0.71-0.463-1.023-1.117-1.023
			c-0.282,0-0.464,0.028-0.6,0.073L160.528,175.49z"/>
		<path fill="#707277" d="M165.462,176.904l-0.923,2.075h-0.741l2.98-6.563h0.846l0.797,6.563h-0.728l-0.236-2.075H165.462z
			 M167.408,176.26l-0.229-1.894c-0.028-0.342-0.073-0.829-0.095-1.208h-0.027c-0.156,0.386-0.303,0.797-0.474,1.197l-0.853,1.904
			H167.408z"/>
		<path fill="#707277" d="M173.47,178.773c-0.331,0.16-0.85,0.307-1.508,0.307c-1.459,0-2.336-1.048-2.336-2.723
			c0-1.236,0.436-2.413,1.226-3.165c0.603-0.57,1.337-0.87,2.187-0.87c0.637,0,1.1,0.185,1.257,0.31l-0.233,0.648
			c-0.216-0.146-0.63-0.269-1.142-0.269c-0.603,0-1.205,0.261-1.654,0.738c-0.543,0.578-0.892,1.497-0.892,2.5
			c0,1.169,0.478,2.141,1.766,2.141c0.438,0,0.923-0.098,1.232-0.282L173.47,178.773z"/>
		<path fill="#707277" d="M176.725,173.12h-1.688l0.122-0.704h4.104l-0.122,0.704h-1.698l-0.979,5.859h-0.707L176.725,173.12z"/>
		<path fill="#707277" d="M181.133,172.416l-1.097,6.563h-0.707l1.093-6.563H181.133z"/>
		<path fill="#707277" d="M181.846,178.979l1.097-6.563h0.783l1.316,3.722c0.265,0.745,0.396,1.257,0.512,1.825l0.014-0.011
			c0.042-0.589,0.102-1.135,0.251-2.051l0.585-3.485h0.668l-1.096,6.563h-0.704l-1.322-3.712c-0.275-0.804-0.407-1.264-0.533-1.887
			l-0.027,0.007c-0.06,0.616-0.153,1.271-0.3,2.162l-0.574,3.43H181.846z"/>
		<path fill="#707277" d="M192.04,178.693c-0.331,0.153-0.95,0.352-1.626,0.352c-0.818,0-1.452-0.265-1.887-0.818
			c-0.439-0.546-0.585-1.264-0.585-1.911c0-1.086,0.383-2.235,1.121-2.994c0.623-0.609,1.458-0.971,2.392-0.971
			c0.696,0,1.18,0.185,1.361,0.303l-0.244,0.679c-0.289-0.167-0.686-0.285-1.204-0.285c-0.689,0-1.319,0.285-1.804,0.801
			c-0.532,0.574-0.856,1.518-0.856,2.402c0,1.264,0.554,2.103,1.838,2.103c0.349,0,0.676-0.077,0.881-0.185l0.335-1.957h-1.174
			l0.104-0.661h1.877L192.04,178.693z"/>
		<path fill="#707277" d="M199.727,178.773c-0.327,0.16-0.849,0.307-1.507,0.307c-1.455,0-2.34-1.048-2.34-2.723
			c0-1.236,0.438-2.413,1.226-3.165c0.603-0.57,1.344-0.87,2.187-0.87c0.641,0,1.104,0.185,1.26,0.31l-0.236,0.648
			c-0.212-0.146-0.623-0.269-1.146-0.269c-0.596,0-1.204,0.261-1.653,0.738c-0.543,0.578-0.878,1.497-0.878,2.5
			c0,1.169,0.467,2.141,1.755,2.141c0.438,0,0.919-0.098,1.232-0.282L199.727,178.773z"/>
		<path fill="#707277" d="M203.114,179.08c-1.493,0-2.189-1.274-2.189-2.663c0-1.139,0.379-2.354,1.041-3.154
			c0.505-0.582,1.246-0.951,2.002-0.951c1.553,0,2.187,1.281,2.187,2.685c0,1.11-0.359,2.326-1.007,3.103
			c-0.512,0.623-1.211,0.981-2.022,0.981H203.114z M203.212,178.401c1.236,0,2.176-1.783,2.176-3.367
			c0-0.933-0.261-2.043-1.524-2.043c-1.306,0-2.2,1.849-2.2,3.355c0,1.072,0.41,2.055,1.538,2.055H203.212z"/>
		<path fill="#707277" d="M211.87,178.979l0.415-3.545c0.073-0.626,0.201-1.587,0.313-2.218h-0.032
			c-0.264,0.658-0.588,1.441-0.897,2.11l-1.728,3.606h-0.539l-0.432-3.53c-0.084-0.759-0.146-1.518-0.182-2.187h-0.027
			c-0.118,0.603-0.3,1.592-0.436,2.218l-0.79,3.545h-0.669l1.501-6.563h0.908l0.456,3.764c0.063,0.558,0.119,1.152,0.14,1.646h0.021
			c0.185-0.494,0.436-1.079,0.683-1.625l1.783-3.785h0.937l-0.738,6.563H211.87z"/>
		<path fill="#707277" d="M215.32,172.518c0.331-0.08,0.78-0.14,1.257-0.14c0.558,0,1.09,0.157,1.417,0.509
			c0.271,0.278,0.418,0.657,0.418,1.177c0,0.728-0.313,1.351-0.696,1.702c-0.449,0.425-1.097,0.63-1.751,0.63
			c-0.227,0-0.411-0.021-0.592-0.049l-0.438,2.633h-0.703L215.32,172.518z M215.48,175.668c0.213,0.049,0.376,0.06,0.582,0.06
			c0.975,0,1.629-0.683,1.629-1.605c0-0.783-0.487-1.09-1.146-1.09c-0.289,0-0.501,0.031-0.63,0.07L215.48,175.668z"/>
		<path fill="#707277" d="M219.718,176.904l-0.919,2.075h-0.749l2.987-6.563h0.843l0.801,6.563h-0.731l-0.229-2.075H219.718z
			 M221.664,176.26l-0.229-1.894c-0.028-0.342-0.066-0.829-0.098-1.208h-0.024c-0.157,0.386-0.303,0.797-0.474,1.197l-0.86,1.904
			H221.664z"/>
		<path fill="#707277" d="M223.934,178.979l1.097-6.563h0.78l1.319,3.722c0.258,0.745,0.387,1.257,0.509,1.825l0.014-0.011
			c0.038-0.589,0.104-1.135,0.247-2.051l0.588-3.485h0.669l-1.101,6.563h-0.699l-1.323-3.712c-0.275-0.804-0.4-1.264-0.532-1.887
			l-0.024,0.007c-0.06,0.616-0.157,1.271-0.303,2.162l-0.578,3.43H223.934z"/>
		<path fill="#707277" d="M230.987,178.979l0.46-2.729l-1.121-3.834h0.763l0.561,2.124c0.149,0.581,0.194,0.846,0.232,1.097h0.021
			c0.146-0.271,0.348-0.641,0.619-1.124l1.257-2.097h0.829l-2.462,3.823l-0.459,2.74H230.987z"/>
		<path fill="#707277" d="M237.999,172.416h0.714l-0.988,5.859h2.336l-0.118,0.704h-3.047L237.999,172.416z"/>
		<path fill="#707277" d="M242.31,172.416h0.71l-0.988,5.859h2.336l-0.122,0.704h-3.032L242.31,172.416z"/>
		<path fill="#707277" d="M249.13,178.773c-0.324,0.16-0.847,0.307-1.497,0.307c-1.463,0-2.344-1.048-2.344-2.723
			c0-1.236,0.436-2.413,1.226-3.165c0.603-0.57,1.337-0.87,2.187-0.87c0.641,0,1.101,0.185,1.257,0.31l-0.233,0.648
			c-0.219-0.146-0.626-0.269-1.142-0.269c-0.603,0-1.215,0.261-1.653,0.738c-0.54,0.578-0.888,1.497-0.888,2.5
			c0,1.169,0.473,2.141,1.761,2.141c0.436,0,0.92-0.098,1.236-0.282L249.13,178.773z"/>
	</g>
</g>
</svg>
